<?xml version="1.0" encoding="UTF-8" standalone="no"?>
<svg
   xmlns:dc="http://purl.org/dc/elements/1.1/"
   xmlns:cc="http://creativecommons.org/ns#"
   xmlns:rdf="http://www.w3.org/1999/02/22-rdf-syntax-ns#"
   xmlns:svg="http://www.w3.org/2000/svg"
   xmlns="http://www.w3.org/2000/svg"
   version="1.1"
   x="0px"
   y="0px"
   viewBox="0 0 109.99999 110"
   enable-background="new 0 0 272.325 313.39"
   xml:space="preserve"
   id="svg12"
   width="110"
   height="110"><metadata
     id="metadata18"><rdf:RDF><cc:Work
         rdf:about=""><dc:format>image/svg+xml</dc:format><dc:type
           rdf:resource="http://purl.org/dc/dcmitype/StillImage" /><dc:title>Twenty-Sided Dice</dc:title></cc:Work></rdf:RDF></metadata><defs
     id="defs16" /><title
     id="title2">Twenty-Sided Dice</title><g
     style="stroke-width:2.9808507"
     transform="matrix(0.3354747,0,0,0.3354747,8.0643403,-0.09404765)"
     id="g8488"><path
       id="path8474"
       style="fill:#ffffff;fill-opacity:1;stroke:none;stroke-width:2.9808507px;stroke-linecap:butt;stroke-linejoin:miter;stroke-opacity:1"
       d="M 137.09125,0 3.2864341,87.794739 0,244.6046 M 137.09125,0 276.99944,84.977796 279.81639,245.07409 140.84717,328.17392 0,244.6046" /><path
       d="m 136.99192,5.8652403 c -0.57,0.019 -1.226,0.228 -1.585,0.731 L 54.733925,103.12324 c -1.342,1.681 -1.433,2.056 0.366,2.073 l 161.589995,-0.427 c 2.221,-0.182 2.23,-0.07 0.792,-1.951 l -79.27,-96.5269997 c -0.164,-0.254 -0.649,-0.44 -1.22,-0.426 z m 15.489,8.5979997 72.746,88.478 c 0.974,1.182 1.212,1.249 2.927,0.427 l 38.354,-17.562 c 2.513,-1.134 2.165,-1.366 0.487,-2.5 z m -33.965,3.232 c -0.034,-0.072 -0.625,0.37 -1.952,1.281 l -105.611995,69.513 33.05,15.001 c 1.724,0.568 2.239,0.599 3.354,-0.793 l 69.697995,-83.234 c 0.981,-1.137 1.495,-1.696 1.462,-1.768 z m 153.602,72.258 c -0.328,0.023 -0.846,0.212 -1.646,0.548 l -39.392,17.989 c -1.398,0.635 -1.311,1.49 -0.792,2.561 l 45.793,116.162 -3.292,-135.309 c -0.101,-1.479 -0.123,-1.99 -0.671,-1.951 z m -264.1539953,3.598 -4.208,131.651 38.7820003,-113.907 c 0.573,-1.682 0.559,-1.767 -0.61,-2.317 z m 210.8589953,17.073 -165.248995,0.427 c -2.361,-0.035 -2.264,-0.033 -1.098,1.89 l 83.904995,141.529 c 1.417,2.159 1.265,2.092 2.744,-0.121 l 80.612,-141.772 c 0.708,-1.127 1.212,-1.914 -0.914,-1.953 z m 6.586,3.72 c -0.152,0.064 -0.318,0.639 -0.793,1.524 l -81.16,142.809 c -0.887,1.508 -1.097,2.048 1.036,1.708 l 128.845,-17.744 c 2.044,-0.467 1.982,-1.197 1.281,-3.232 l -48.6,-123.479 c -0.321,-1.183 -0.456,-1.65 -0.609,-1.586 z m -178.175995,1.342 c -0.158,0.113 -0.3,0.715 -0.609,1.585 l -41.1600003,121.162 c -0.701,2.573 -0.78,3.541 1.829,4.024 l 123.1129953,17.805 c 2.328,0.351 2.03,-0.822 1.463,-1.951 l -83.782995,-141.345 c -0.526,-1.067 -0.695,-1.394 -0.853,-1.28 z m -32.013,133.845 120.795995,68.538 c 1.564,0.949 1.929,0.604 1.707,-1.036 l -2.561,-48.05 c -0.07,-1.551 -0.28,-2.183 -1.89,-2.439 z m 249.763995,0.121 -122.625,16.952 c -1.618,0.238 -1.326,1.032 -1.342,2.195 l 2.622,48.903 c 0.135,1.483 0.091,2.017 1.89,1.098 z"
       id="path4"
       style="fill:#000000;stroke-width:2.9808507" /><path
       style="fill:#ffffff;fill-opacity:1;stroke:none;stroke-width:2.9808507px;stroke-linecap:butt;stroke-linejoin:miter;stroke-opacity:1"
       d="M 46.949059,107.98283 137.09125,0 225.82497,107.51334 279.81639,245.07409 137.56074,264.3232 0,244.6046 Z"
       id="path8466" /></g></svg>