<?xml version="1.0" encoding="UTF-8" standalone="no"?>
<svg
   xmlns:dc="http://purl.org/dc/elements/1.1/"
   xmlns:cc="http://creativecommons.org/ns#"
   xmlns:rdf="http://www.w3.org/1999/02/22-rdf-syntax-ns#"
   xmlns:svg="http://www.w3.org/2000/svg"
   xmlns="http://www.w3.org/2000/svg"
   version="1.1"
   id="svg2"
   xml:space="preserve"
   width="147.52621"
   height="83.243271"
   viewBox="0 0 147.52621 83.243271"><metadata
     id="metadata8"><rdf:RDF><cc:Work
         rdf:about=""><dc:format>image/svg+xml</dc:format><dc:type
           rdf:resource="http://purl.org/dc/dcmitype/StillImage" /><dc:title></dc:title></cc:Work></rdf:RDF></metadata><defs
     id="defs6" /><path
     id="path8464"
     d="m 14.41161,73.455078 h -0.89258 l 2.17774,1.720703 h 0.43554 z"
     style="fill:#231f20;fill-opacity:1;fill-rule:nonzero;stroke:none;stroke-width:1.33333325" /><path
     id="path8466"
     d="m 8.2495004,0 v 0.859375 c 0,2.0746666 -3.67613,3.6839844 -4.9668,4.0839844 l -0.55078,0.1699218 -0.0312,0.3710938 c 0,0 0.4051,4.3851251 1.25977,6.453125 l 0.38672,-5.5410156 c 1.42133,-0.5213333 4.87819,-2.0411147 5.51953,-4.6757813 h 33.9042896 59.98438 33.9043 c 0.64133,2.6346666 4.0982,4.154448 5.51953,4.6757813 l 0.38667,5.5410156 c 0.85467,-2.0679999 1.25976,-6.453125 1.25976,-6.453125 l -0.0312,-0.3710938 -0.55078,-0.1699218 c -1.29067,-0.4 -4.9668,-2.0093178 -4.9668,-4.0839844 V 0 H 103.75536 43.77098 Z m -5.70313,8.4355469 -1.08203,12.0703121 0.0625,0.173829 c 0.37867,1.089334 0.6775,2.306932 0.9375,3.572265 0.61334,-0.388 1.10648,-1.238056 1.36914,-1.775391 -0.188,-0.754667 -0.38642,-1.490353 -0.62109,-2.179687 l 0.22461,-2.501953 c 0.472,1.409333 0.93523,2.501656 0.97656,2.597656 0.24934,1.074667 0.0428,2.069313 -0.36523,2.945313 -0.368,1.072 -1.36133,1.96289 -1.36133,1.96289 -0.94533,1.012 -1.90907,1.622766 -1.92773,1.634766 l -0.41211,0.255859 0.14257,0.460938 c 1.11067,3.606667 2.31836,26.177734 2.31836,26.177734 0.003,0.342667 0.008,0.687438 0.008,1.023438 -1.69733,1.910667 -2.46695,4.039224 -2.26562,6.33789 0.16267,1.850667 0.93555,3.602203 1.93555,5.158203 -0.068,1.212 -0.14161,2.315636 -0.21094,3.292969 -0.08,-0.0054 -0.1669,-0.0098 -0.24024,-0.0098 v -0.0039 c -1.30533,-0.108 -2.44662,0.617297 -1.89062,1.529297 0.55333,0.914663 1.49805,1.011719 1.49805,1.011719 0,0 -0.35768,-0.227333 -0.65235,-0.75 -0.14666,-0.262666 -0.0296,-0.383355 0.1211,-0.44336 0.10933,-0.01867 0.21531,-0.03816 0.33398,-0.04883 h 0.002 c 0.24133,-0.01997 0.49099,-0.02418 0.73633,-0.02148 -0.156,2.026666 -0.28302,3.249736 -0.29102,3.316406 l -0.10156,0.953125 h 9.1581996 1.64063 c 1.28133,0.916 2.48982,1.877193 3.53515,2.75586 -3.79066,-0.03333 -6.1679596,1.855468 -6.1679596,1.855468 l 2.4121096,0.955079 c 1.164,0.493333 3.00954,1.196677 4.68554,1.527343 -0.0107,0.0027 -0.0254,0.0059 -0.0254,0.0059 0.10134,0.01866 0.18968,0.03345 0.29102,0.05078 0.072,0.01333 0.14284,0.02781 0.21484,0.03711 8.46267,1.465333 9.3457,0.658203 9.3457,0.658203 -3.64,0 -5.9375,-2.375 -5.9375,-2.375 L 20.7341,80.435561 c -0.0853,-0.084 -0.5402,-0.544516 -1.26953,-1.228516 0.53733,0.02933 1.06612,0.0667 1.57812,0.109375 h 0.006 c 0.12934,0.012 0.25482,0.02706 0.38282,0.03906 0.24666,0.02933 0.59733,0.08626 1,0.183593 0.23466,0.05733 0.49319,0.140422 0.75586,0.232422 0.0493,0.01733 0.10096,0.03664 0.15429,0.05664 0.27467,0.105333 0.55532,0.231433 0.83399,0.384766 0.0267,0.01467 0.0501,0.03222 0.0781,0.04687 0.0468,0.02759 0.0904,0.06615 0.13672,0.0957 -0.008,-0.0064 -0.002,-0.0053 -0.01,-0.01172 -1.55906,-1.22161 -1.85048,-1.379287 -3.01367,-2.255859 -1.02868,-0.0956 -2.17662,-0.178519 -3.35352,-0.191407 -0.93467,-0.824 -2.07179,-1.772703 -3.31445,-2.720703 h 0.01 L 14.55253,75.0625 c -0.64666,-0.490667 -1.31838,-0.978552 -2.01171,-1.449219 l -0.22071,-0.158203 h -0.0156 c -0.99335,-0.666667 -2.02002,-1.302323 -3.0546896,-1.847656 -0.20667,-0.148 -2.93311,-2.141557 -5.03711,-4.962891 v -0.0039 c 0,0 -0.0162,-0.02055 -0.0469,-0.06055 -0.13467,-0.185333 -0.26911,-0.371213 -0.39844,-0.560547 -0.044,-0.064 -0.0868,-0.126595 -0.13477,-0.197265 -0.95333,-1.448 -1.6906,-3.066808 -1.83594,-4.744141 -0.128,-1.449333 0.21786,-2.827141 1.00586,-4.119141 -0.024,1.965333 -0.0726,3.862522 -0.14062,5.617188 0.32933,0.818667 0.93871,2.194255 1.60937,3.044922 0.18134,-3.369334 1.58658,-32.339605 0.14258,-40.460938 0.96134,-1.345333 1.6676,-3.107536 1.1836,-5.158203 -0.0453,-0.124 -1.42732,-3.375131 -1.83399,-5.841797 0,0 -1.23013,-3.92061 -1.2168,-5.7246091 z m 142.4335996,0 c 0.0133,1.8039991 -1.2168,5.7246091 -1.2168,5.7246091 -0.40667,2.466666 -1.78868,5.717797 -1.83398,5.841797 -0.484,2.050667 0.22225,3.81287 1.18359,5.158203 -1.444,8.121333 -0.0387,37.091604 0.14258,40.460938 0.67067,-0.850667 1.28003,-2.226255 1.60937,-3.044922 -0.068,-1.754666 -0.11662,-3.651855 -0.14062,-5.617188 0.788,1.292 1.13386,2.669808 1.00586,4.119141 -0.14533,1.677333 -0.88261,3.296141 -1.83594,4.744141 -0.048,0.07067 -0.0908,0.133265 -0.13476,0.197265 -0.12933,0.189334 -0.26377,0.375214 -0.39844,0.560547 -0.0307,0.04 -0.0469,0.06055 -0.0469,0.06055 v 0.0039 c -2.104,2.821334 -4.83044,4.814891 -5.03711,4.962891 -1.03466,0.545333 -2.06134,1.180989 -3.05468,1.847656 h -0.0156 -40.35547 -1.13672 c 0.45867,-1.358667 0.69874,-2.57377 0.77344,-3.648437 0.72133,0.981333 2.25913,2.461506 4.56445,1.576171 -0.52267,0.149334 -2.66965,0.463303 -4.59765,-3.582031 l -0.004,0.02148 c -0.38534,-3.208 -2.21094,-4.664063 -2.21094,-4.664063 1.89333,3.721333 1.45451,7.022912 0.83984,9.017578 -0.0107,0.012 -0.39525,0.546594 -1.16992,0.558594 0.46933,-1.182667 0.73438,-2.423558 0.73438,-3.712891 0,-7.494667 -8.47153,-13.58789 -18.88086,-13.58789 -10.40933,0 -18.88086,6.093223 -18.88086,13.58789 0,1.289333 0.26504,2.530224 0.73437,3.712891 -0.77467,-0.012 -1.15925,-0.546594 -1.16992,-0.558594 -0.61467,-1.994666 -1.05348,-5.296245 0.83985,-9.017578 0,0 -1.8256,1.456063 -2.21094,4.664063 l -0.004,-0.02148 c -1.928,4.045334 -4.07499,3.731365 -4.59766,3.582031 2.30533,0.885335 3.84312,-0.594838 4.56445,-1.576171 0.0747,1.074667 0.31477,2.28977 0.77344,3.648437 H 52.67508 14.41141 l 1.7207,1.720703 h 38.26367 0.37305 2.18164 c 0.752,1.06 1.69492,2.039303 2.79492,2.917969 -0.035,-0.0033 -0.0799,-0.0026 -0.11523,-0.0059 0.80669,0.607915 1.31828,0.973313 2,1.484375 2.62347,1.501464 5.82043,2.515153 9.32031,2.876953 l -0.0215,-0.0098 c 0.928,0.10267 1.87132,0.171875 2.83399,0.171875 0.96267,0 1.90598,-0.0692 2.83398,-0.171875 l -0.0215,0.0098 c 3.49988,-0.3618 6.69684,-1.375489 9.32031,-2.876953 0.68172,-0.511062 1.19331,-0.87646 2,-1.484375 -0.0353,0.0033 -0.0802,0.0026 -0.11523,0.0059 1.1,-0.878666 2.04292,-1.857969 2.79492,-2.917969 h 2.18164 0.37305 39.69726 c -1.24266,0.948 -2.37978,1.896703 -3.31445,2.720703 -1.17691,0.01289 -2.32483,0.09581 -3.35351,0.191407 -1.1632,0.876572 -1.45462,1.034249 -3.01368,2.255859 -0.008,0.0064 -0.002,0.0053 -0.01,0.01172 0.0463,-0.02955 0.0899,-0.06811 0.13672,-0.0957 0.028,-0.01466 0.0514,-0.03221 0.0781,-0.04687 0.27867,-0.153333 0.55932,-0.279433 0.83399,-0.384766 0.0533,-0.02 0.10499,-0.03931 0.15429,-0.05664 0.26267,-0.092 0.52119,-0.175092 0.75586,-0.232422 0.40267,-0.09733 0.75333,-0.154263 1,-0.183593 0.128,-0.012 0.25349,-0.02706 0.38282,-0.03906 h 0.006 c 0.51199,-0.04268 1.04079,-0.08004 1.57812,-0.109375 -0.72933,0.684 -1.18423,1.144516 -1.26953,1.228516 l -0.20899,0.210937 c 0,0 -2.2975,2.375 -5.9375,2.375 0,0 0.88304,0.80713 9.34571,-0.658203 0.072,-0.0093 0.14284,-0.02378 0.21484,-0.03711 0.10134,-0.01733 0.18968,-0.03212 0.29102,-0.05078 0,0 -0.0147,-0.0032 -0.0254,-0.0059 1.676,-0.330666 3.52154,-1.03401 4.68554,-1.527343 l 2.41211,-0.955079 c 0,0 -2.3773,-1.888798 -6.16797,-1.855468 1.04534,-0.878667 2.25383,-1.83986 3.53516,-2.75586 h 1.64062 9.15821 l -0.10156,-0.953125 c -0.008,-0.06667 -0.13502,-1.28974 -0.29102,-3.316406 0.24533,-0.0027 0.495,0.0015 0.73633,0.02148 h 0.002 c 0.11866,0.01067 0.22466,0.03016 0.33399,0.04883 0.1507,0.06001 0.26775,0.180694 0.12109,0.44336 -0.29467,0.522667 -0.65234,0.75 -0.65234,0.75 0,0 0.94471,-0.09706 1.49804,-1.011719 0.556,-0.912 -0.58528,-1.637297 -1.89062,-1.529297 v 0.0039 c -0.0733,0 -0.16024,0.0044 -0.24024,0.0098 -0.0693,-0.977333 -0.14293,-2.080969 -0.21093,-3.292969 1,-1.556 1.77287,-3.307536 1.93554,-5.158203 0.20133,-2.298666 -0.56828,-4.427223 -2.26562,-6.33789 0,-0.336 0.005,-0.680771 0.008,-1.023438 0,0 1.2077,-22.571067 2.31836,-26.177734 l 0.14258,-0.460938 -0.41211,-0.255859 c -0.0187,-0.012 -0.98241,-0.622766 -1.92774,-1.634766 0,0 -0.99332,-0.89089 -1.36132,-1.96289 -0.40803,-0.876 -0.61458,-1.870646 -0.36524,-2.945313 0.0413,-0.096 0.50456,-1.188323 0.97656,-2.597656 l 0.22461,2.501953 c -0.23467,0.689334 -0.43309,1.42502 -0.62109,2.179687 0.26267,0.537335 0.75581,1.387391 1.36914,1.775391 0.26,-1.265333 0.55884,-2.482931 0.9375,-3.572265 l 0.0625,-0.173829 z M 2.9330904,26.818359 c 0.68667,4.646667 0.81158,12.286224 0.76758,16.212891 -0.472,-4.962667 -1.10138,-12.450114 -1.88672,-15.300781 0.28134,-0.201333 0.68181,-0.51211 1.11914,-0.91211 z m 141.6601596,0 c 0.43734,0.4 0.8378,0.710777 1.11914,0.91211 -0.78534,2.850667 -1.41472,10.338114 -1.88672,15.300781 -0.044,-3.926667 0.0809,-11.566224 0.76758,-16.212891 z M 73.76317,57.308594 c 9.376,0 17.00586,5.255556 17.00586,11.71289 0,1.569333 -0.46,3.066214 -1.27734,4.435547 -0.164,0.274667 -0.34502,0.540688 -0.54102,0.804688 -0.02,0.02933 -0.0418,0.05918 -0.0645,0.08984 -0.21334,0.280001 -0.43969,0.554886 -0.67969,0.824219 -3.00267,3.329333 -8.34735,5.558594 -14.44336,5.558594 -6.096,0 -11.44068,-2.229261 -14.44335,-5.558594 -0.24,-0.269333 -0.46635,-0.544218 -0.67969,-0.824219 -0.0227,-0.03066 -0.0445,-0.06051 -0.0645,-0.08984 -0.196,-0.264 -0.37702,-0.530021 -0.54102,-0.804688 -0.81734,-1.369333 -1.27734,-2.866214 -1.27734,-4.435547 0,-6.457334 7.62986,-11.71289 17.00586,-11.71289 z M 4.0952004,68.503906 c 0.49867,0.584 1.00295,1.126183 1.48828,1.603516 -0.54,-0.145333 -1.06336,-0.241405 -1.58203,-0.302734 0.032,-0.406667 0.0644,-0.848782 0.0937,-1.300782 z m 139.3359396,0 c 0.0293,0.452 0.0618,0.894115 0.0937,1.300782 -0.51867,0.06133 -1.04203,0.157401 -1.58203,0.302734 0.48533,-0.477333 0.98961,-1.019516 1.48828,-1.603516 z M 3.9096604,71.033203 c 1.87866,0.225333 3.99964,1.179208 6.07031,2.421875 h -6.28125 c 0.056,-0.578667 0.12827,-1.407209 0.21094,-2.421875 z m 139.7070296,0 c 0.0827,1.014666 0.15493,1.843208 0.21093,2.421875 h -6.28124 c 2.07066,-1.242667 4.19165,-2.196542 6.07031,-2.421875 z M 17.53856,79.15625 c 0.944,0.841333 1.64958,1.513667 2.01758,1.875 -0.0187,0.016 -0.0404,0.03159 -0.0644,0.04492 -0.92667,0.521333 -3.9723,-0.391339 -6.4043,-1.388672 1.14934,-0.388 2.76451,-0.52855 4.45117,-0.53125 z m 112.44922,0 c 1.68667,0.0027 3.30184,0.14325 4.45117,0.53125 -2.432,0.997333 -5.47763,1.910005 -6.40429,1.388672 -0.024,-0.01333 -0.0458,-0.02892 -0.0645,-0.04492 0.368,-0.361333 1.07358,-1.033667 2.01758,-1.875 z"
     style="fill:#231f20;fill-opacity:1;fill-rule:nonzero;stroke:none;stroke-width:1.33333325" /><g
     transform="matrix(1.3333333,0,0,-1.3333333,73.76382,78.339593)"
     id="g16"><path
       id="path18"
       style="fill:#deddde;fill-opacity:1;fill-rule:nonzero;stroke:none"
       d="m 0,0 c -5.939,0 -10.958,3.201 -10.958,6.989 0,3.788 5.019,6.989 10.958,6.989 5.939,0 10.958,-3.201 10.958,-6.989 C 10.958,3.201 5.939,0 0,0 m 0,-2.5 c 7.434,0 13.458,4.249 13.458,9.489 0,5.24 -6.024,9.489 -13.458,9.489 -7.433,0 -13.458,-4.249 -13.458,-9.489 0,-5.24 6.025,-9.489 13.458,-9.489" /></g></svg>