<svg width="198" height="150" version="1.1" viewBox="0 0 198 150" xml:space="preserve" xmlns="http://www.w3.org/2000/svg"><g transform="matrix(3.1888 0 0 -2.3701 99.002 140.28)" stroke-width=".485"><path d="m0 0c-5.939 0-10.958 3.201-10.958 6.989s5.019 6.989 10.958 6.989 10.958-3.201 10.958-6.989-5.019-6.989-10.958-6.989m0-2.5c7.434 0 13.458 4.249 13.458 9.489s-6.024 9.489-13.458 9.489c-7.433 0-13.458-4.249-13.458-9.489s6.025-9.489 13.458-9.489" fill="#deddde"/></g><g fill="#231f20"><g><path d="m27.038 131.6h-1.5866l3.8711 3.0587h0.77421z"/><path d="m99.001 99.566c-24.784 0-44.956 10.831-44.956 24.153 0 2.2919 0.63228 4.4967 1.7497 6.599-1.8445-0.0213-2.7618-0.97092-2.7872-0.99226-1.4635-3.5457-2.5079-9.4134 2.0001-16.028 0 0-4.3446 2.5882-5.2621 8.2907l-0.01031-0.0386c-4.5905 7.1909-9.703 6.6333-10.947 6.3678 5.4889 1.5738 9.15-1.059 10.867-2.8034 0.17786 1.9103 0.75056 4.0702 1.8426 6.4854h-2.5678l1.4891 3.0596h8.5499c1.7905 1.8842 4.0366 3.6248 6.6557 5.1867-0.08338-6e-3 -0.18944-4e-3 -0.27356-0.01 1.9207 1.0806 3.1383 1.7292 4.7614 2.6377 6.2464 2.669 13.859 4.4704 22.192 5.1135l-0.05169-0.0174c2.2096 0.18249 4.4565 0.30635 6.7486 0.30635 2.2921 0 4.5365-0.12385 6.746-0.30635l-0.0517 0.0174c8.3331-0.64313 15.945-2.4445 22.192-5.1135 1.6232-0.90847 2.8407-1.5571 4.7614-2.6377-0.084 6e-3 -0.19016 4e-3 -0.27356 0.01 2.6191-1.5619 4.8652-3.3025 6.6557-5.1867h6.9241l2.9653-3.0596h-2.4156c1.0921-2.4152 1.6622-4.575 1.8401-6.4854 1.7175 1.7444 5.3786 4.3772 10.867 2.8034-1.2445 0.26546-6.3543 0.82312-10.945-6.3678l-0.0106 0.0386c-0.91747-5.7025-5.2647-8.2907-5.2647-8.2907 4.508 6.615 3.4636 12.483 2.0001 16.028-0.0257 0.0213-0.94013 0.97094-2.7846 0.99226 1.1175-2.1023 1.7472-4.3071 1.7472-6.599 0-13.322-20.169-24.153-44.954-24.153zm0 3.3332c22.324 0 40.489 9.3417 40.489 20.82 0 2.7896-1.094 5.45-3.0401 7.8842-0.39047 0.48824-0.82111 0.96227-1.2878 1.4316-0.0476 0.0522-0.10082 0.10541-0.15485 0.15992-0.50794 0.49772-1.0467 0.98553-1.6181 1.4643-7.1493 5.9182-19.874 9.8802-34.388 9.8802-14.514 0-27.241-3.9621-34.391-9.8802-0.57141-0.47877-1.1102-0.96658-1.6181-1.4643-0.05405-0.0546-0.10465-0.10779-0.15227-0.15992-0.46667-0.46929-0.8973-0.94332-1.2878-1.4316-1.9461-2.4341-3.0427-5.0945-3.0427-7.8842 0-11.478 18.168-20.82 40.492-20.82z"/><path d="m192.05 16.024c0.0237 3.2068-2.1637 10.175-2.1637 10.175-0.72289 4.3847-3.1795 10.165-3.26 10.385-0.86035 3.6452 0.39511 6.7778 2.104 9.1693-2.5668 14.436-0.0679 65.933 0.25432 71.923 1.1922-1.5121 2.2758-3.9569 2.8612-5.4122-0.12087-3.1191-0.20781-6.4927-0.25047-9.9862 1.4007 2.2966 2.0155 4.7452 1.788 7.3216-0.25834 2.9816-1.5692 5.8593-3.2639 8.4333-0.0853 0.12562-0.1608 0.2369-0.2389 0.35067-0.2299 0.33656-0.46965 0.6686-0.70905 0.99804-0.0546 0.0711-0.0829 0.10597-0.0829 0.10597v8e-3c-3.74 5.0152-8.5861 8.5594-8.9535 8.8225-1.8392 0.96938-3.6638 2.0981-5.4295 3.2832h-35.689a43.159 22.112 0 0 1 -2.8612 3.0596h34.292c-2.2089 1.6852-4.2305 3.3713-5.8919 4.8361-2.0921 0.0229-4.1327 0.17111-5.9613 0.34104-2.0677 1.5582-2.5849 1.838-5.3563 4.0095-0.0142 0.0114-4e-3 0.0103-0.0174 0.0212 0.0823-0.0525 0.15953-0.12244 0.24276-0.17148 0.0498-0.026 0.0913-0.0567 0.13872-0.0829 0.49536-0.27257 0.99341-0.49675 1.4817-0.68399 0.0947-0.0355 0.18787-0.0694 0.27551-0.10019 0.46693-0.16354 0.92579-0.31234 1.3429-0.41424 0.71578-0.17302 1.3399-0.27349 1.7784-0.32562 0.22754-0.0213 0.45023-0.048 0.68013-0.0693h0.01c0.91011-0.0759 1.8502-0.14246 2.8053-0.1946-1.2964 1.2159-2.1046 2.0356-2.2562 2.1849l-0.37187 0.37378s-4.0842 4.2214-10.555 4.2214c0 0 1.571 1.4352 16.614-1.1695 0.12799-0.0166 0.25351-0.0418 0.38149-0.0655 0.18014-0.0308 0.33623-0.0574 0.51637-0.0906 0 0-0.0253-5e-3 -0.0443-0.01 2.9792-0.58779 6.2601-1.8397 8.3292-2.7167l4.287-1.6975s-4.2248-3.3578-10.963-3.2986c1.8582-1.5619 4.0054-3.2695 6.283-4.8977h19.196l-0.18111-1.6936c-0.0142-0.11852-0.23907-2.2932-0.51637-5.8958 0.4361-5e-3 0.87926 3e-3 1.3082 0.0386h4e-3c0.21093 0.0189 0.39909 0.0535 0.59343 0.0867 0.26789 0.10668 0.47649 0.32112 0.2158 0.78803-0.52381 0.92909-1.1599 1.3333-1.1599 1.3333 0 0 1.6791-0.17367 2.6627-1.7996 0.98834-1.6212-1.0398-2.9106-3.3602-2.7186v8e-3c-0.1303 0-0.28361 8e-3 -0.42581 0.0174-0.12319-1.7373-0.25483-3.699-0.37571-5.8534 1.7776-2.7659 3.152-5.8795 3.4411-9.1693 0.35787-4.0861-1.0116-7.8692-4.0288-11.266 0-0.59727 0.0101-1.2116 0.0154-1.8208 0 0 2.147-40.121 4.1213-46.532l0.2524-0.81886-0.73215-0.45471c-0.0332-0.02133-1.7472-1.1085-3.4276-2.9074 0 0-1.7639-1.5837-2.418-3.4893-0.72531-1.5572-1.0925-3.3246-0.64931-5.2349 0.0734-0.17065 0.89696-2.1112 1.736-4.6164l0.39884 4.4469c-0.41716 1.2254-0.76983 2.5332-1.104 3.8746 0.46692 0.95516 1.3432 2.4663 2.4334 3.156 0.46218-2.2492 0.99351-4.4141 1.6666-6.3505l0.11176-0.30828zm-0.68783 32.677c0.7774 0.71104 1.4902 1.2625 1.9903 1.6204-1.396 5.0673-2.5154 18.378-3.3544 27.2-0.0782-6.98 0.14347-20.56 1.3641-28.82zm-2.0654 74.1c0.0521 0.80347 0.11091 1.5892 0.16762 2.3121-0.92199 0.10903-1.8531 0.27921-2.813 0.53755 0.86271-0.8485 1.759-1.8115 2.6454-2.8496zm0.32946 4.495c0.14701 1.8037 0.27617 3.2757 0.37572 4.3043h-11.165c3.6808-2.209 7.4502-3.9038 10.79-4.3043zm-24.227 14.439c2.9982 5e-3 5.87 0.25439 7.913 0.94409-4.3231 1.7728-9.7378 3.3968-11.385 2.4701-0.0427-0.0237-0.0804-0.0524-0.11368-0.0809 0.65416-0.6423 1.9076-1.8377 3.5856-3.3332z"/><path d="m27.038 131.6 3.0577 3.0596h31.431a43.159 22.112 0 0 1 -2.9248 -3.0596z"/><path d="m149.18 1.0279v3.0596h29.857c1.14 4.6834 7.2863 7.3832 9.8128 8.31l0.68592 9.8513c1.5193-3.6761 2.2408-11.472 2.2408-11.472l-0.0558-0.66087-0.97878-0.30057c-2.2943-0.71104-8.8302-3.572-8.8302-7.2599v-1.5279z"/><path d="m5.9458 16.024-1.9229 21.456 0.11175 0.30828c0.67312 1.9364 1.2044 4.1012 1.6666 6.3505 1.0903-0.6897 1.9666-2.2008 2.4335-3.156-0.33419-1.3415-0.68687-2.6493-1.104-3.8746l0.39883-4.4469c0.83902 2.5052 1.6625 4.4458 1.736 4.6164 0.44322 1.9103 0.076004 3.6777-0.64931 5.2349-0.65415 1.9056-2.42 3.4893-2.42 3.4893-1.6804 1.7989-3.3925 2.8861-3.4257 2.9074l-0.73408 0.45471 0.25433 0.81886c1.9743 6.4112 4.1213 46.532 4.1213 46.532 0.00534 0.60912 0.013487 1.2235 0.013487 1.8208-3.0172 3.3964-4.3847 7.1795-4.0269 11.266 0.28916 3.2897 1.6635 6.4034 3.4411 9.1693-0.12088 2.1544-0.25247 4.1161-0.37571 5.8534-0.14221-0.01-0.29736-0.0174-0.42773-0.0174v-8e-3c-2.3203-0.19198-4.3485 1.0974-3.3602 2.7186 0.98359 1.6259 2.6627 1.7995 2.6627 1.7996 0 0-0.63609-0.40422-1.1599-1.3333-0.2607-0.46692-0.05209-0.68138 0.21579-0.78804 0.19434-0.0331 0.38248-0.0678 0.59343-0.0867h0.00386c0.42899-0.0355 0.87213-0.0434 1.3082-0.0386-0.2773 3.6026-0.50214 5.7773-0.51636 5.8958l-0.18111 1.6936h19.196c2.2777 1.6283 4.4268 3.3358 6.285 4.8977-6.7382-0.0593-10.965 3.2986-10.965 3.2986l4.287 1.6974c2.0691 0.87694 5.35 2.1289 8.3292 2.7167-0.01902 5e-3 -0.04431 0.01-0.04431 0.01 0.18014 0.0331 0.33622 0.0598 0.51636 0.0906 0.12799 0.0237 0.25543 0.0489 0.38342 0.0655 15.043 2.6048 16.612 1.1695 16.612 1.1695-6.4704 0-10.555-4.2214-10.555-4.2214l-0.37186-0.37378c-0.15163-0.14932-0.95974-0.96904-2.2562-2.1849 0.95515 0.0521 1.8952 0.11875 2.8053 0.1946h0.0097c0.22991 0.0213 0.45453 0.048 0.68206 0.0694 0.43846 0.0522 1.0607 0.15452 1.7764 0.32754 0.41713 0.10192 0.87793 0.24879 1.3449 0.41232 0.08764 0.0308 0.1788 0.0646 0.2736 0.10019 0.48825 0.18724 0.98629 0.41142 1.4817 0.68399 0.04746 0.026 0.08895 0.0568 0.13872 0.0829 0.08319 0.049 0.16236 0.11894 0.24469 0.17148-0.01423-0.0113-5e-3 -0.0103-0.01927-0.0212-2.7714-2.1715-3.2886-2.4513-5.3563-4.0095-1.8286-0.16993-3.8692-0.31813-5.9613-0.34103-1.6615-1.4647-3.683-3.1509-5.8919-4.8361h0.01734l-0.27745-0.2023c-1.1495-0.8722-2.3435-1.7394-3.576-2.576l-0.39305-0.28129h-0.02697c-1.7658-1.185-3.5903-2.3138-5.4295-3.2831-0.36738-0.26308-5.2134-3.8073-8.9535-8.8225v-8e-3s-0.030205-0.0348-0.084775-0.10596c-0.23939-0.32945-0.47721-0.66149-0.70711-0.99805-0.078214-0.11376-0.15557-0.22504-0.24084-0.35066-1.6946-2.574-3.0036-5.4497-3.2619-8.4313-0.22753-2.5763 0.38726-5.0268 1.788-7.3235-0.042662 3.4936-0.12956 6.8671-0.25047 9.9862 0.58541 1.4553 1.669 3.9 2.8612 5.4122 0.32232-5.9893 2.8192-57.486 0.25237-71.923 1.7089-2.3915 2.9643-5.524 2.104-9.1693-0.080526-0.22042-2.5371-6.0003-3.26-10.385 0 0-2.1855-6.9683-2.1618-10.175zm0.68784 32.677c1.2206 8.2599 1.4423 21.84 1.3641 28.82-0.83902-8.8216-1.9565-22.132-3.3525-27.2 0.50011-0.35789 1.211-0.90934 1.9884-1.6204zm2.0654 74.1c0.88643 1.0381 1.7827 2.0011 2.6454 2.8496-0.9599-0.25834-1.8891-0.42853-2.8111-0.53755 0.056883-0.72289 0.11362-1.5086 0.1657-2.3121zm-0.32947 4.495c3.3395 0.40055 7.1089 2.0954 10.79 4.3043h-11.165c0.099545-1.0286 0.22876-2.5006 0.37571-4.3043zm24.227 14.439c1.678 1.4955 2.9315 2.6909 3.5856 3.3332-0.03325 0.0284-0.07102 0.0572-0.11368 0.0809-1.6472 0.92672-7.0619-0.69721-11.385-2.4701 2.0431-0.68971 4.9149-0.93929 7.9131-0.94409z"/><path d="m16.084 1.0279v1.5279c0 3.6879-6.534 6.5489-8.8282 7.2599l-0.9807 0.30057-0.053948 0.66087s0.7196 7.7957 2.2389 11.472l0.68784-9.8513c2.5265-0.92672 8.6708-3.6266 9.8109-8.31h31.29v-3.0596z"/></g><path d="m49.955 1h99.635v3.088h-99.635z"/></g></svg>
