<svg width="198" height="150" version="1.1" viewBox="0 0 198 150" xml:space="preserve" xmlns="http://www.w3.org/2000/svg"><g fill="#fff"><path d="m164.54 140.86-6.0366 6.0366 4.743-0.34495 12.849-3.8807-4.743-1.7247z"/><path d="m189.98 99.638s1.9834 1.2935 2.3284 1.811c0.34495 0.51742 1.811 3.5357 1.811 3.5357l0.77613 3.277-0.51742 2.9321-2.5871 6.8127-1.0348 2.3284 0.68989 7.5888 0.25871 5.2605-21.253 1.476h-1.8733l-30.168-1.9934s-11.556 13.453-38.03 13.625c-26.475 0.17248-40.1-12.763-40.1-12.763l-3.4495-0.43119-27.508 1.562-3.8825-0.096-2.4146-1.5523-16.816 0.0862 0.86237-14.315-3.8807-8.9686 0.94861-5.9504 4.3981-5.6054-3.1045-31.649-2.2422-16.816 3.0055-3.7912-0.39498-1.8631 0.062788-10.731 0.25871-12.849-0.17699-4.5348 0.27552-5.2465 3.006 0.12271 6.2953-3.5357 2.2422-5.0017 162.56-0.086237s0.94861 3.0183 1.0348 3.3632c0.0862 0.34495 6.7265 4.743 6.7265 4.743l2.5009 0.94861 1.1409-1.2148 0.32939 5.9073-0.17671 12.641-0.0862 12.677 0.40976 2.7972-0.3969 1.8631-1.3926 1.29 3.8807 2.3284-0.25871 2.6733-2.5871 24.233z"/><path d="m33.805 140.86 6.0366 6.0366-4.743-0.34495-12.849-3.8807 4.743-1.7247z"/></g><path d="m170.86 131.6v2e-3h1.5859l-3.8711 3.0586h-32.203a43.159 22.112 0 0 0 2.9238 -3.0606z" fill="#231f20"/><g transform="matrix(3.1888 0 0 -2.3701 99.002 140.28)" stroke-width=".485"><path d="m0 0c-5.939 0-10.958 3.201-10.958 6.989s5.019 6.989 10.958 6.989 10.958-3.201 10.958-6.989-5.019-6.989-10.958-6.989m0-2.5c7.434 0 13.458 4.249 13.458 9.489s-6.024 9.489-13.458 9.489c-7.433 0-13.458-4.249-13.458-9.489s6.025-9.489 13.458-9.489" fill="#deddde"/></g><g fill="#231f20"><g><path d="m27.037 131.6v0.00195h-1.5859l3.8711 3.0586h0.77344 31.43a43.159 22.112 0 0 1 -2.9238 -3.0606h-31.564z"/><path d="m99.001 99.566c-24.784 0-44.956 10.831-44.956 24.153 0 2.2919 0.63228 4.4967 1.7497 6.599-1.8445-0.0213-2.7618-0.97092-2.7872-0.99226-1.4635-3.5457-2.5079-9.4134 2.0001-16.028 0 0-4.3446 2.5882-5.2621 8.2907l-0.01031-0.0386c-4.5905 7.1909-9.703 6.6333-10.947 6.3678 5.4889 1.5738 9.15-1.059 10.867-2.8034 0.17786 1.9103 0.75056 4.0702 1.8426 6.4854h-2.5678l1.4891 3.0596h8.5499c1.7905 1.8842 4.0366 3.6248 6.6557 5.1867-0.08338-6e-3 -0.18944-4e-3 -0.27356-0.01 1.9207 1.0806 3.1383 1.7292 4.7614 2.6377 6.2464 2.669 13.859 4.4704 22.192 5.1135l-0.05169-0.0174c2.2096 0.18249 4.4565 0.30635 6.7486 0.30635 2.2921 0 4.5365-0.12385 6.746-0.30635l-0.0517 0.0174c8.3331-0.64313 15.945-2.4445 22.192-5.1135 1.6232-0.90847 2.8407-1.5571 4.7614-2.6377-0.084 6e-3 -0.19016 4e-3 -0.27356 0.01 2.6191-1.5619 4.8652-3.3025 6.6557-5.1867h6.9241l2.9653-3.0596h-2.4156c1.0921-2.4152 1.6622-4.575 1.8401-6.4854 1.7175 1.7444 5.3786 4.3772 10.867 2.8034-1.2445 0.26546-6.3543 0.82312-10.945-6.3678l-0.0106 0.0386c-0.91747-5.7025-5.2647-8.2907-5.2647-8.2907 4.508 6.615 3.4636 12.483 2.0001 16.028-0.0257 0.0213-0.94013 0.97094-2.7846 0.99226 1.1175-2.1023 1.7472-4.3071 1.7472-6.599 0-13.322-20.169-24.153-44.954-24.153zm0 3.3332c22.324 0 40.489 9.3417 40.489 20.82 0 2.7896-1.094 5.45-3.0401 7.8842-0.39047 0.48824-0.82111 0.96227-1.2878 1.4316-0.0476 0.0522-0.10082 0.10541-0.15485 0.15992-0.50794 0.49772-1.0467 0.98553-1.6181 1.4643-7.1493 5.9182-19.874 9.8802-34.388 9.8802-14.514 0-27.241-3.9621-34.391-9.8802-0.57141-0.47877-1.1102-0.96658-1.6181-1.4643-0.05405-0.0546-0.10465-0.10779-0.15227-0.15992-0.46667-0.46929-0.8973-0.94332-1.2878-1.4316-1.9461-2.4341-3.0427-5.0945-3.0427-7.8842 0-11.478 18.168-20.82 40.492-20.82z"/><path d="m149.18 1.0279v3.0596h29.857c1.14 4.6834 7.2863 7.3832 9.8128 8.31l0.68592 9.8513c1.5193-3.6761 2.2408-11.472 2.2408-11.472l-0.0558-0.66087-0.97878-0.30057c-2.2943-0.71104-8.8302-3.572-8.8302-7.2599v-1.5279z"/><path d="m5.9458 16.024-1.9229 21.456 0.11175 0.30828c0.67312 1.9364 1.2044 4.1012 1.6666 6.3505 1.0903-0.6897 1.9666-2.2008 2.4335-3.156-0.33419-1.3415-0.68687-2.6493-1.104-3.8746l0.39883-4.4469c0.83902 2.5052 1.6625 4.4458 1.736 4.6164 0.44322 1.9103 0.076004 3.6777-0.64931 5.2349-0.65415 1.9056-2.42 3.4893-2.42 3.4893-1.6804 1.7989-3.3925 2.8861-3.4257 2.9074l-0.73408 0.45471 0.25433 0.81886c1.9743 6.4112 4.1213 46.532 4.1213 46.532 0.00534 0.60912 0.013487 1.2235 0.013487 1.8208-3.0172 3.3964-4.3847 7.1795-4.0269 11.266 0.28916 3.2897 1.6635 6.4034 3.4411 9.1693-0.12088 2.1544-0.25247 4.1161-0.37571 5.8534-0.14221-0.01-0.29736-0.0174-0.42773-0.0174v-8e-3c-2.3203-0.19198-4.3485 1.0974-3.3602 2.7186 0.98359 1.6259 2.6627 1.7995 2.6627 1.7996 0 0-0.63609-0.40422-1.1599-1.3333-0.2607-0.46692-0.05209-0.68138 0.21579-0.78804 0.19434-0.0331 0.38248-0.0678 0.59343-0.0867h0.00386c0.42899-0.0355 0.87213-0.0434 1.3082-0.0386-0.2773 3.6026-0.50214 5.7773-0.51636 5.8958l-0.18111 1.6936h19.196c2.2777 1.6283 4.4268 3.3358 6.285 4.8977-6.7382-0.0593-10.965 3.2986-10.965 3.2986l4.287 1.6974c2.0691 0.87694 5.35 2.1289 8.3292 2.7167-0.01902 5e-3 -0.04431 0.01-0.04431 0.01 0.18014 0.0331 0.33622 0.0598 0.51636 0.0906 0.12799 0.0237 0.25543 0.0489 0.38342 0.0655 15.043 2.6048 16.612 1.1695 16.612 1.1695-6.4704 0-10.555-4.2214-10.555-4.2214l-0.37186-0.37378c-0.15163-0.14932-0.95974-0.96904-2.2562-2.1849 0.95515 0.0521 1.8952 0.11875 2.8053 0.1946h0.0097c0.22991 0.0213 0.45453 0.048 0.68206 0.0694 0.43846 0.0522 1.0607 0.15452 1.7764 0.32754 0.41713 0.10192 0.87793 0.24879 1.3449 0.41232 0.08764 0.0308 0.1788 0.0646 0.2736 0.10019 0.48825 0.18724 0.98629 0.41142 1.4817 0.68399 0.04746 0.026 0.08895 0.0568 0.13872 0.0829 0.08319 0.049 0.16236 0.11894 0.24469 0.17148-0.01423-0.0113-5e-3 -0.0103-0.01927-0.0212-2.7714-2.1715-3.2886-2.4513-5.3563-4.0095-1.8286-0.16993-3.8692-0.31813-5.9613-0.34103-1.6615-1.4647-3.683-3.1509-5.8919-4.8361h0.01734l-0.27745-0.2023c-1.1495-0.8722-2.3435-1.7394-3.576-2.576l-0.39305-0.28129h-0.02697c-1.7658-1.185-3.5903-2.3138-5.4295-3.2831-0.36738-0.26308-5.2134-3.8073-8.9535-8.8225v-8e-3s-0.030205-0.0348-0.084775-0.10596c-0.23939-0.32945-0.47721-0.66149-0.70711-0.99805-0.078214-0.11376-0.15557-0.22504-0.24084-0.35066-1.6946-2.574-3.0036-5.4497-3.2619-8.4313-0.22753-2.5763 0.38726-5.0268 1.788-7.3235-0.042662 3.4936-0.12956 6.8671-0.25047 9.9862 0.58541 1.4553 1.669 3.9 2.8612 5.4122 0.32232-5.9893 2.8192-57.486 0.25237-71.923 1.7089-2.3915 2.9643-5.524 2.104-9.1693-0.080526-0.22042-2.5371-6.0003-3.26-10.385 0 0-2.1855-6.9683-2.1618-10.175zm0.68784 32.677c1.2206 8.2599 1.4423 21.84 1.3641 28.82-0.83902-8.8216-1.9565-22.132-3.3525-27.2 0.50011-0.35789 1.211-0.90934 1.9884-1.6204zm2.0654 74.1c0.88643 1.0381 1.7827 2.0011 2.6454 2.8496-0.9599-0.25834-1.8891-0.42853-2.8111-0.53755 0.056883-0.72289 0.11362-1.5086 0.1657-2.3121zm-0.32947 4.495c3.3395 0.40055 7.1089 2.0954 10.79 4.3043h-11.165c0.099545-1.0286 0.22876-2.5006 0.37571-4.3043zm24.227 14.439c1.678 1.4955 2.9315 2.6909 3.5856 3.3332-0.03325 0.0284-0.07102 0.0572-0.11368 0.0809-1.6472 0.92672-7.0619-0.69721-11.385-2.4701 2.0431-0.68971 4.9149-0.93929 7.9131-0.94409z"/><path d="m16.084 1.0279v1.5279c0 3.6879-6.534 6.5489-8.8282 7.2599l-0.9807 0.30057-0.053948 0.66087s0.7196 7.7957 2.2389 11.472l0.68784-9.8513c2.5265-0.92672 8.6708-3.6266 9.8109-8.31h31.29v-3.0596z"/></g><path d="m49.955 1h99.635v3.088h-99.635z"/><path d="m192.05 16.024 1.9229 21.456-0.11175 0.30828c-0.67312 1.9364-1.2044 4.1012-1.6666 6.3505-1.0903-0.6897-1.9666-2.2008-2.4334-3.156 0.33419-1.3415 0.68687-2.6493 1.104-3.8746l-0.39883-4.4469c-0.83902 2.5052-1.6625 4.4458-1.736 4.6164-0.44322 1.9103-0.076 3.6777 0.64931 5.2349 0.65415 1.9056 2.42 3.4893 2.42 3.4893 1.6804 1.7989 3.3926 2.8861 3.4257 2.9074l0.73408 0.45471-0.25433 0.81886c-1.9743 6.4112-4.1213 46.532-4.1213 46.532-5e-3 0.60912-0.0135 1.2235-0.0135 1.8208 3.0172 3.3964 4.3847 7.1795 4.0268 11.266-0.28916 3.2897-1.6635 6.4034-3.4411 9.1693 0.12087 2.1544 0.25247 4.1161 0.37571 5.8534 0.1422-0.01 0.29736-0.0174 0.42773-0.0174v-8e-3c2.3203-0.19198 4.3486 1.0974 3.3602 2.7186-0.9836 1.6259-2.6627 1.7995-2.6627 1.7996 0 0 0.63609-0.40422 1.1599-1.3333 0.2607-0.46692 0.0521-0.68138-0.21579-0.78804-0.19435-0.0331-0.38249-0.0678-0.59343-0.0867h-4e-3c-0.42899-0.0355-0.87213-0.0434-1.3082-0.0386 0.27731 3.6026 0.50214 5.7773 0.51636 5.8958l0.18112 1.6936h-19.196c-2.2777 1.6283-4.4268 3.3358-6.285 4.8977 6.7382-0.0593 10.965 3.2986 10.965 3.2986l-4.287 1.6974c-2.0691 0.87694-5.35 2.1289-8.3292 2.7167 0.019 5e-3 0.0443 0.01 0.0443 0.01-0.18015 0.0331-0.33622 0.0598-0.51637 0.0906-0.12798 0.0237-0.25543 0.0489-0.38341 0.0655-15.043 2.6048-16.612 1.1695-16.612 1.1695 6.4704 0 10.555-4.2214 10.555-4.2214l0.37185-0.37378c0.15163-0.14932 0.95975-0.96904 2.2562-2.1849-0.95516 0.0521-1.8952 0.11875-2.8053 0.1946h-0.01c-0.22992 0.0213-0.45453 0.048-0.68206 0.0694-0.43846 0.0522-1.0607 0.15452-1.7764 0.32754-0.41713 0.10192-0.87794 0.24879-1.3449 0.41232-0.0876 0.0308-0.17879 0.0646-0.27359 0.10019-0.48825 0.18724-0.98629 0.41142-1.4816 0.68399-0.0475 0.026-0.089 0.0568-0.13873 0.0829-0.0832 0.049-0.16235 0.11894-0.24469 0.17148 0.0142-0.0113 5e-3 -0.0103 0.0193-0.0212 2.7714-2.1715 3.2886-2.4513 5.3563-4.0095 1.8286-0.16993 3.8692-0.31813 5.9613-0.34103 1.6615-1.4647 3.683-3.1509 5.8919-4.8361h-0.0173l0.27745-0.2023c1.1495-0.8722 2.3435-1.7394 3.576-2.576l0.39305-0.28129h0.027c1.7658-1.185 3.5903-2.3138 5.4295-3.2831 0.36737-0.26308 5.2134-3.8073 8.9535-8.8225v-8e-3s0.0302-0.0348 0.0848-0.10596c0.23938-0.32945 0.47721-0.66149 0.7071-0.99805 0.0782-0.11376 0.15557-0.22504 0.24084-0.35066 1.6946-2.574 3.0036-5.4497 3.262-8.4313 0.22753-2.5763-0.38726-5.0268-1.788-7.3235 0.0427 3.4936 0.12956 6.8671 0.25047 9.9862-0.58541 1.4553-1.669 3.9-2.8612 5.4122-0.32232-5.9893-2.8192-57.486-0.25237-71.923-1.7089-2.3915-2.9643-5.524-2.104-9.1693 0.0805-0.22042 2.5371-6.0003 3.26-10.385 0 0 2.1855-6.9683 2.1618-10.175zm-0.68784 32.677c-1.2206 8.2599-1.4423 21.84-1.3641 28.82 0.83902-8.8216 1.9565-22.132 3.3525-27.2-0.50011-0.35789-1.211-0.90934-1.9884-1.6204zm-2.0654 74.1c-0.88643 1.0381-1.7827 2.0011-2.6454 2.8496 0.9599-0.25834 1.8891-0.42853 2.8111-0.53755-0.0569-0.72289-0.11362-1.5086-0.1657-2.3121zm0.32947 4.495c-3.3395 0.40055-7.1088 2.0954-10.79 4.3043h11.165c-0.0995-1.0286-0.22876-2.5006-0.37571-4.3043zm-24.227 14.439c-1.678 1.4955-2.9315 2.6909-3.5856 3.3332 0.0333 0.0284 0.071 0.0572 0.11367 0.0809 1.6472 0.92672 7.0619-0.69721 11.385-2.4701-2.0431-0.68971-4.9149-0.93929-7.9131-0.94409z"/></g></svg>
