<svg width="71.002" height="83.243" version="1.1" viewBox="0 0 71.002289 83.242851" xml:space="preserve" xmlns="http://www.w3.org/2000/svg"><g transform="matrix(1.3333 0 0 -1.3333 -40.75 867.59)"><g transform="translate(31.321 630.22)"><path d="m0 0s2.231-11.25 1.5-21.5c0 0-3.125-3.125 0.25-8.187l-0.28-5.472h48.795l-0.281 5.472c3.375 5.062 0.25 8.187 0.25 8.187-0.731 10.25 1.5 21.5 1.5 21.5l-1.437 1.062c0.312 0.563 1.098 4.029 1.098 4.029l-0.952 11.545c-2.853-1.177-4.693 3.139-4.693 3.139h-39.766s-1.839-4.316-4.693-3.139l-0.951-11.545s0.785-3.466 1.097-4.029z" fill="#fff"/></g><g transform="translate(57.188 591.94)"><path d="m0 0c-5.939 0-10.958 3.201-10.958 6.989s5.019 6.989 10.958 6.989 10.958-3.201 10.958-6.989-5.019-6.989-10.958-6.989m0-2.5c7.434 0 13.458 4.249 13.458 9.489s-6.024 9.489-13.458 9.489c-7.433 0-13.458-4.249-13.458-9.489s6.025-9.489 13.458-9.489" fill="#deddde"/></g><g transform="translate(33.534 641.74)"><path d="m0 0c-0.641 1.551-0.945 4.839-0.945 4.839l0.023 0.279 0.413 0.128c0.968 0.3 3.725 1.507 3.725 3.063v0.644h40.878v-0.644c0-1.556 2.756-2.763 3.724-3.063l0.412-0.128 0.024-0.279s-0.304-3.288-0.945-4.839l-0.288 4.155c-1.067 0.391-3.66 1.532-4.14 3.508h-38.452c-0.481-1.976-3.074-3.117-4.14-3.508zm-1.444-43.269-1e-3 -2e-3c0.055 0 0.121-4e-3 0.181-8e-3 0.052 0.733 0.106 1.561 0.157 2.47-0.75 1.167-1.329 2.48-1.451 3.868-0.151 1.724 0.426 3.321 1.699 4.754 0 0.252-3e-3 0.51-5e-3 0.767 0 0-0.907 16.929-1.74 19.634l-0.107 0.346 0.31 0.191c0.014 9e-3 0.736 0.468 1.445 1.227 0 0 0.746 0.667 1.022 1.471 0.306 0.657 0.461 1.404 0.274 2.21-0.031 0.072-0.379 0.891-0.733 1.948l-0.169-1.876c0.176-0.517 0.326-1.07 0.467-1.636-0.197-0.403-0.568-1.04-1.028-1.331-0.195 0.949-0.419 1.862-0.703 2.679l-0.047 0.13 0.812 9.054c-0.01-1.353 0.912-4.294 0.912-4.294 0.305-1.85 1.342-4.289 1.376-4.382 0.363-1.538-0.166-2.859-0.887-3.868 1.083-6.091 0.028-27.819-0.108-30.346-0.503 0.638-0.959 1.67-1.206 2.284 0.051 1.316 0.087 2.739 0.105 4.213-0.591-0.969-0.85-2.003-0.754-3.09 0.109-1.258 0.662-2.471 1.377-3.557 0.036-0.053 0.068-0.101 0.101-0.149 0.097-0.142 0.197-0.281 0.298-0.42 0.023-0.03 0.035-0.046 0.035-0.046v-2e-3c1.578-2.116 3.623-3.611 3.778-3.722 0.776-0.409 1.546-0.886 2.291-1.386h0.012l0.165-0.119c0.52-0.353 1.024-0.719 1.509-1.087l0.118-0.085h-7e-3c0.932-0.711 1.784-1.422 2.485-2.04 0.913-0.01 1.811-0.073 2.602-0.148-0.825 0.659-1.532 1.393-2.096 2.188h-2.243l-1.634 1.291h1.522c-0.344 1.019-0.523 1.93-0.579 2.736-0.541-0.736-1.695-1.846-3.424-1.182 0.392-0.112 2.002-0.347 3.448 2.687l4e-3 -0.016c0.289 2.406 1.657 3.498 1.657 3.498-1.42-2.791-1.091-5.268-0.63-6.764 8e-3 -9e-3 0.297-0.41 0.878-0.419-0.352 0.887-0.551 1.818-0.551 2.785 0 5.621 6.354 10.191 14.161 10.191 7.809 0 14.162-4.57 14.162-10.191 0-0.967-0.199-1.898-0.55-2.785 0.581 9e-3 0.869 0.41 0.877 0.419 0.461 1.496 0.791 3.973-0.629 6.764 0 0 1.368-1.092 1.656-3.498l4e-3 0.016c1.446-3.034 3.056-2.799 3.449-2.687-1.729-0.664-2.884 0.446-3.425 1.182-0.055-0.806-0.234-1.717-0.579-2.736h1.522l-1.634-1.291h-2.242c-0.565-0.795-1.272-1.529-2.096-2.188 0.79 0.075 1.688 0.138 2.602 0.148 0.701 0.618 1.552 1.329 2.485 2.04h-7e-3l0.117 0.085c0.486 0.368 0.988 0.734 1.51 1.087l0.165 0.119h0.012c0.745 0.5 1.514 0.977 2.291 1.386 0.154 0.111 2.199 1.606 3.777 3.722v2e-3s0.013 0.016 0.035 0.046c0.102 0.139 0.201 0.278 0.298 0.42 0.033 0.048 0.066 0.096 0.101 0.149 0.716 1.086 1.267 2.299 1.377 3.557 0.096 1.087-0.162 2.121-0.753 3.09 0.017-1.474 0.052-2.897 0.104-4.213-0.247-0.614-0.703-1.646-1.206-2.284-0.137 2.527-1.191 24.255-0.107 30.346-0.721 1.009-1.25 2.33-0.887 3.868 0.032 0.093 1.07 2.532 1.376 4.382 0 0 0.922 2.941 0.91 4.294l0.813-9.054-0.046-0.13c-0.284-0.817-0.508-1.73-0.703-2.679-0.46 0.291-0.831 0.928-1.029 1.331 0.141 0.566 0.291 1.119 0.467 1.636l-0.169 1.876c-0.353-1.057-0.701-1.876-0.732-1.948-0.188-0.806-0.033-1.553 0.273-2.21 0.277-0.804 1.022-1.471 1.022-1.471 0.71-0.759 1.431-1.218 1.446-1.227l0.31-0.191-0.108-0.346c-0.832-2.705-1.739-19.634-1.739-19.634-2e-3 -0.257-5e-3 -0.515-5e-3 -0.767 1.272-1.433 1.85-3.03 1.698-4.754-0.123-1.388-0.701-2.701-1.45-3.868 0.05-0.909 0.104-1.737 0.155-2.47 0.062 4e-3 0.127 8e-3 0.183 8e-3l-1e-3 2e-3c0.978 0.081 1.835-0.462 1.419-1.146-0.415-0.686-1.126-0.76-1.126-0.76s0.269 0.171 0.49 0.563c0.11 0.197 0.024 0.288-0.09 0.333-0.082 0.014-0.162 0.028-0.251 0.036h-2e-3c-0.18 0.015-0.369 0.019-0.551 0.017 0.117-1.52 0.211-2.438 0.217-2.488l0.076-0.715h-8.097c-0.962-0.687-1.868-1.408-2.652-2.067 2.842 0.025 4.626-1.391 4.626-1.391l-1.81-0.718 1e-3 1e-3c-0.874-0.37-2.259-0.897-3.515-1.145 9e-3 -2e-3 0.02-5e-3 0.02-5e-3 -0.077-0.014-0.143-0.024-0.218-0.037-0.055-0.01-0.108-0.021-0.161-0.028-6.348-1.099-7.011-0.494-7.011-0.494 2.731 0 4.453 1.781 4.453 1.781l0.157 0.159c0.065 0.063 0.407 0.407 0.954 0.92-0.404-0.022-0.8-0.05-1.184-0.082h-5e-3c-0.098-9e-3 -0.19-0.019-0.286-0.028-0.19-0.022-0.465-0.067-0.775-0.147-0.18-0.045-0.375-0.105-0.575-0.177-0.031-0.011-0.061-0.022-0.092-0.035-0.207-0.079-0.42-0.174-0.626-0.289-0.025-0.013-0.047-0.031-0.071-0.046-0.174-0.1-0.34-0.222-0.503-0.354-0.05-0.042-0.099-0.084-0.148-0.128-0.179-0.166-0.35-0.347-0.492-0.563l-5.187-0.592 0.041 0.017c-0.695-0.077-1.402-0.129-2.126-0.129-0.722 0-1.429 0.052-2.125 0.129l0.041-0.017-5.187 0.592c-0.145 0.218-0.317 0.401-0.499 0.567-0.047 0.044-0.096 0.085-0.145 0.128-0.167 0.135-0.341 0.26-0.519 0.365-0.021 0.011-0.039 0.025-0.059 0.036-0.209 0.115-0.42 0.209-0.626 0.288-0.04 0.015-0.078 0.029-0.115 0.042-0.197 0.069-0.392 0.131-0.568 0.174-0.302 0.073-0.565 0.117-0.75 0.139-0.096 9e-3 -0.189 0.019-0.286 0.028h-5e-3c-0.384 0.032-0.781 0.06-1.184 0.082 0.547-0.513 0.889-0.857 0.953-0.92l0.157-0.159s1.722-1.781 4.452-1.781c0 0-0.662-0.605-7.009 0.494-0.054 7e-3 -0.107 0.018-0.161 0.028-0.076 0.013-0.142 0.023-0.218 0.037 0 0 0.011 3e-3 0.019 5e-3 -1.257 0.248-2.641 0.775-3.514 1.145l1e-3 -1e-3 -1.81 0.718s1.783 1.416 4.626 1.391c-0.784 0.659-1.691 1.38-2.652 2.067h-8.098l0.076 0.715c6e-3 0.05 0.101 0.968 0.218 2.488-0.184 2e-3 -0.371-2e-3 -0.552-0.017h-2e-3c-0.089-8e-3 -0.169-0.022-0.251-0.036-0.113-0.045-0.201-0.136-0.091-0.333 0.221-0.392 0.49-0.563 0.49-0.563s-0.709 0.074-1.124 0.76c-0.417 0.684 0.44 1.227 1.419 1.146m48.949 19.948c0.353 3.722 0.825 9.338 1.415 11.476-0.212 0.151-0.512 0.384-0.84 0.684-0.516-3.485-0.608-9.215-0.575-12.16m-1.412-20.306c0.403 0.109 0.797 0.181 1.184 0.227-0.022 0.305-0.046 0.636-0.068 0.975-0.374-0.438-0.752-0.844-1.116-1.202m-3.298-2.511h4.711c-0.042 0.434-0.098 1.055-0.158 1.816-1.41-0.169-3-0.884-4.553-1.816m-7.183-5.683c0.015-0.012 0.031-0.023 0.049-0.033 0.694-0.391 2.98 0.294 4.804 1.042-0.862 0.291-2.073 0.396-3.338 0.398-0.708-0.631-1.239-1.136-1.515-1.407m-11.958 0.223c4.573 0 8.58 1.672 10.832 4.169 0.182 0.202 0.353 0.409 0.513 0.619 0.017 0.023 0.031 0.047 0.048 0.069 0.144 0.196 0.282 0.395 0.405 0.601 0.613 1.027 0.957 2.15 0.957 3.327 0 4.843-5.722 8.785-12.755 8.785-7.032 0-12.754-3.942-12.754-8.785 0-1.177 0.344-2.3 0.957-3.327 0.123-0.206 0.26-0.405 0.407-0.603 0.015-0.022 0.03-0.044 0.047-0.067 0.16-0.21 0.331-0.417 0.511-0.619 2.252-2.497 6.26-4.169 10.832-4.169m-13.471 1.184c-1.265-2e-3 -2.476-0.107-3.338-0.398 1.824-0.748 4.108-1.433 4.803-1.042 0.018 0.01 0.035 0.021 0.049 0.033-0.276 0.271-0.806 0.776-1.514 1.407m-10.152 7.014c0.389-0.046 0.781-0.118 1.186-0.227-0.364 0.358-0.743 0.764-1.117 1.202-0.022-0.339-0.045-0.67-0.069-0.975m-0.227-2.738h4.711c-1.553 0.932-3.144 1.647-4.553 1.816-0.062-0.761-0.116-1.382-0.158-1.816m1e-3 22.817c0.033 2.945-0.061 8.675-0.576 12.16-0.328-0.3-0.628-0.533-0.839-0.684 0.589-2.138 1.061-7.754 1.415-11.476" fill="#231f20"/></g></g></svg>
