<?xml version="1.0" encoding="UTF-8" standalone="no"?>
<svg
   xmlns:dc="http://purl.org/dc/elements/1.1/"
   xmlns:cc="http://creativecommons.org/ns#"
   xmlns:rdf="http://www.w3.org/1999/02/22-rdf-syntax-ns#"
   xmlns:svg="http://www.w3.org/2000/svg"
   xmlns="http://www.w3.org/2000/svg"
   version="1.1"
   id="svg2"
   xml:space="preserve"
   width="165"
   height="165"
   viewBox="0 0 165 165"><metadata
     id="metadata8"><rdf:RDF><cc:Work
         rdf:about=""><dc:format>image/svg+xml</dc:format><dc:type
           rdf:resource="http://purl.org/dc/dcmitype/StillImage" /><dc:title></dc:title></cc:Work></rdf:RDF></metadata><defs
     id="defs6" /><path
     id="path4521"
     d="m 38.421875,110 c -0.42907,6.91197 -1.43628,20.50299 -2.99219,25.55078 l -0.11328,0.36914 0.32813,0.20508 c 0.0227,0.012 1.00719,0.63364 2.00585,1.68164 -0.32399,1.844 -0.73877,3.58633 -1.27343,5.125 l -0.0664,0.18555 1.35352,15.06836 0.58593,0.18164 c 1.47067,0.46 5.29102,2.13823 5.29102,4.35156 v 0.91602 h 11.44336 v -1.83204 h -2.94141 c -12.564,-4.08799 -12.42736,-13.77463 -12.08203,-16.66796 0.32267,-0.87067 0.57775,-1.47358 0.59375,-1.51758 0.484,-2.06267 -0.19058,-3.84709 -1.14258,-5.23242 1.84134,-10.09334 0.90409,-22.94735 0.85743,-23.52735 V 110 Z m 0.24609,10.23828 c 0.0973,4.36134 0.0323,10.71423 -0.81836,16.35156 -0.548,-0.51066 -1.04675,-0.88751 -1.35742,-1.10351 0.932,-3.29467 1.65578,-9.41738 2.17578,-15.24805 z m 0.45313,19.59766 c 0.51466,1.016 0.78499,2.19141 0.48633,3.46875 -0.0467,0.11066 -0.61954,1.45319 -1.15821,3.11719 l -0.27539,-3.07813 c 0.36934,-1.09333 0.6806,-2.27315 0.94727,-3.50781 z m 0.10156,7.46094 c 0.0427,1.316 0.25237,2.93987 0.8457,4.67187 1.09734,3.21333 3.75426,7.27932 10.04493,9.83398 h -4.84766 c -0.68133,-2.80666 -4.36877,-4.42837 -5.88477,-4.98437 l -0.67578,-7.54297 c 0.136,-0.648 0.31891,-1.32651 0.51758,-1.97851 z"
     style="fill:#231f20;fill-opacity:1;fill-rule:nonzero;stroke:none;stroke-width:1.33333325" /><path
     id="path4526"
     d="m 54.984375,161.80273 v 1.83204 h 55.000005 v -1.83204 z"
     style="fill:#231f20;fill-opacity:1;fill-rule:nonzero;stroke:none;stroke-width:1.33333325" /><path
     style="fill:#231f20;fill-opacity:1;fill-rule:nonzero;stroke:none;stroke-width:1.33333325"
     d="m 38.437495,110 h 1.83204 V 54.999999 h -1.83204 z"
     id="path4531" /><path
     style="fill:#231f20;fill-opacity:1;fill-rule:nonzero;stroke:none;stroke-width:1.33333325"
     d="m 38.437495,54.999999 c -0.42907,-6.91197 -1.43628,-20.50299 -2.99219,-25.55079 l -0.11328,-0.36913 0.32813,-0.20508 c 0.0226,-0.012 1.00719,-0.63364 2.00585,-1.68164 -0.32399,-1.844 -0.73877,-3.58633 -1.27343,-5.125 l -0.0664,-0.18555 1.35352,-15.06836 0.58593,-0.18164 c 1.47067,-0.46 5.29102,-2.13823 5.29102,-4.35155 v -0.91603 h 11.44337 v 1.83204 h -2.94141 c -12.564,4.08798 -12.42736,13.77462 -12.08203,16.66796 0.32267,0.87066 0.57775,1.47358 0.59375,1.51758 0.484,2.06267 -0.19058,3.84708 -1.14258,5.23242 1.84134,10.09334 0.90409,22.94734 0.85743,23.52734 v 4.85743 z m 0.24609,-10.23828 c 0.0974,-4.36135 0.0323,-10.71423 -0.81836,-16.35156 -0.548,0.51065 -1.04675,0.88751 -1.35742,1.10351 0.932,3.29466 1.65578,9.41738 2.17578,15.24805 z m 0.45313,-19.59767 c 0.51466,-1.016 0.78499,-2.1914 0.48633,-3.46874 -0.0467,-0.11067 -0.61954,-1.45319 -1.15821,-3.11719 l -0.27539,3.07813 c 0.36934,1.09332 0.6806,2.27315 0.94727,3.5078 z m 0.10156,-7.46093 c 0.0427,-1.316 0.25237,-2.93987 0.8457,-4.67187 1.09734,-3.21333 3.75426,-7.27932 10.04493,-9.83398 h -4.84766 c -0.68133,2.80666 -4.36877,4.42837 -5.88477,4.98437 l -0.67578,7.54297 c 0.136,0.648 0.31891,1.32651 0.51758,1.97851 z"
     id="path4533" /><path
     style="fill:#231f20;fill-opacity:1;fill-rule:nonzero;stroke:none;stroke-width:1.33333325"
     d="m 54.999995,1.365229 v 1.83204 H 110 v -1.83204 z"
     id="path4535" /><path
     style="fill:#231f20;fill-opacity:1;fill-rule:nonzero;stroke:none;stroke-width:1.33333325"
     d="m 126.57807,110.00001 c 0.42907,6.91196 1.43628,20.50299 2.99219,25.55078 l 0.11333,0.36914 -0.32813,0.20508 c -0.0227,0.012 -1.00719,0.63364 -2.00584,1.68164 0.32399,1.844 0.73876,3.58632 1.27343,5.125 l 0.0664,0.18555 -1.35352,15.06836 -0.58593,0.18164 c -1.47066,0.46 -5.29103,2.13822 -5.29103,4.35156 v 0.91601 h -11.44336 v -1.83204 h 2.94142 c 12.564,-4.08799 12.42736,-13.77463 12.08203,-16.66796 -0.32267,-0.87067 -0.57775,-1.47357 -0.59375,-1.51757 -0.484,-2.06267 0.19059,-3.8471 1.14259,-5.23243 -1.84136,-10.09333 -0.9041,-22.94734 -0.85744,-23.52734 v -4.85742 z m -0.24608,10.23828 c -0.0973,4.36134 -0.0323,10.71423 0.81836,16.35156 0.548,-0.51066 1.04675,-0.88752 1.35742,-1.10352 -0.932,-3.29466 -1.65578,-9.41737 -2.17578,-15.24804 z m -0.45313,19.59765 c -0.51467,1.016 -0.78499,2.19142 -0.48633,3.46875 0.0467,0.11067 0.61953,1.4532 1.1582,3.1172 l 0.2754,-3.07813 c -0.36935,-1.09334 -0.6806,-2.27315 -0.94727,-3.50782 z m -0.10161,7.46095 c -0.0427,1.316 -0.25235,2.93987 -0.84569,4.67187 -1.09734,3.21333 -3.75426,7.27932 -10.04493,9.83397 h 4.84767 c 0.68132,-2.80665 4.36875,-4.42836 5.88476,-4.98436 l 0.67578,-7.54297 c -0.136,-0.648 -0.3189,-1.32651 -0.51759,-1.97851 z"
     id="path4537" /><path
     id="path4539"
     d="m 126.56246,110 h -1.83205 V 54.999999 h 1.83205 z"
     style="fill:#231f20;fill-opacity:1;fill-rule:nonzero;stroke:none;stroke-width:1.33333325" /><path
     id="path4541"
     d="m 126.56246,54.999999 c 0.42906,-6.91197 1.43627,-20.50299 2.99218,-25.55079 l 0.11334,-0.36913 -0.32813,-0.20508 c -0.0227,-0.012 -1.00719,-0.63364 -2.00585,-1.68164 0.32398,-1.844 0.73877,-3.58633 1.27342,-5.125 l 0.0664,-0.18555 -1.35352,-15.06836 -0.58592,-0.18164 c -1.47068,-0.46 -5.29104,-2.13823 -5.29104,-4.35155 V 1.365229 H 110 v 1.83204 h 2.9414 c 12.56399,4.08798 12.42735,13.77462 12.08204,16.66796 -0.32268,0.87066 -0.57776,1.47358 -0.59376,1.51758 -0.484,2.06267 0.19059,3.84708 1.14259,5.23242 -1.84136,10.09334 -0.90409,22.94734 -0.85743,23.52734 v 4.85743 z m -0.2461,-10.23828 c -0.0973,-4.36135 -0.0323,-10.71423 0.81836,-16.35156 0.548,0.51065 1.04675,0.88751 1.35742,1.10351 -0.932,3.29466 -1.65579,9.41738 -2.17578,15.24805 z m -0.45312,-19.59767 c -0.51467,-1.016 -0.785,-2.1914 -0.48633,-3.46874 0.0467,-0.11067 0.61953,-1.45319 1.15821,-3.11719 l 0.27539,3.07813 c -0.36935,1.09332 -0.6806,2.27315 -0.94727,3.5078 z m -0.10161,-7.46093 c -0.0427,-1.316 -0.25236,-2.93987 -0.84569,-4.67187 -1.09734,-3.21333 -3.75426,-7.27932 -10.04494,-9.83398 h 4.84767 c 0.68133,2.80666 4.36877,4.42837 5.88477,4.98437 l 0.67578,7.54297 c -0.136,0.648 -0.31891,1.32651 -0.51759,1.97851 z"
     style="fill:#231f20;fill-opacity:1;fill-rule:nonzero;stroke:none;stroke-width:1.33333325" /></svg>