<svg width="165" height="165" version="1.1" viewBox="0 0 165 165" xml:space="preserve" xmlns="http://www.w3.org/2000/svg"><g fill="#231f20"><path d="m4.4219 110c-0.42907 6.912-1.4363 20.503-2.9922 25.551l-0.11328 0.36914 0.32813 0.20508c0.0227 0.012 1.0072 0.63364 2.0058 1.6816-0.32399 1.844-0.73877 3.5863-1.2734 5.125l-0.0664 0.18555 1.3535 15.068 0.58593 0.18164c1.4707 0.46 5.291 2.1382 5.291 4.3516v0.91602h11.443v-1.832h-2.9414c-12.564-4.088-12.427-13.775-12.082-16.668 0.32267-0.87067 0.57775-1.4736 0.59375-1.5176 0.484-2.0627-0.19058-3.8471-1.1426-5.2324 1.8413-10.093 0.90409-22.947 0.85743-23.527v-4.8574zm0.24609 10.238c0.0973 4.3613 0.0323 10.714-0.81836 16.352-0.548-0.51066-1.0468-0.88751-1.3574-1.1035 0.932-3.2947 1.6558-9.4174 2.1758-15.248zm0.45313 19.598c0.51466 1.016 0.78499 2.1914 0.48633 3.4688-0.0467 0.11066-0.61954 1.4532-1.1582 3.1172l-0.27539-3.0781c0.36934-1.0933 0.6806-2.2732 0.94727-3.5078zm0.10156 7.4609c0.0427 1.316 0.25237 2.9399 0.8457 4.6719 1.0973 3.2133 3.7543 7.2793 10.045 9.834h-4.8477c-0.68133-2.8067-4.3688-4.4284-5.8848-4.9844l-0.67578-7.543c0.136-0.648 0.31891-1.3265 0.51758-1.9785z"/><path d="m20.953 161.8v1.832h123.06v-1.832z"/><path d="m4.4375 110h1.832v-55h-1.832z"/><path d="m4.4375 55c-0.42907-6.912-1.4363-20.503-2.9922-25.551l-0.11328-0.36913 0.32813-0.20508c0.0226-0.012 1.0072-0.63364 2.0058-1.6816-0.32399-1.844-0.73877-3.5863-1.2734-5.125l-0.0664-0.18555 1.3535-15.068 0.58593-0.18164c1.4707-0.46 5.291-2.1382 5.291-4.3516v-0.91603h11.443v1.832h-2.9414c-12.564 4.088-12.427 13.775-12.082 16.668 0.32267 0.87066 0.57775 1.4736 0.59375 1.5176 0.484 2.0627-0.19058 3.8471-1.1426 5.2324 1.8413 10.093 0.90409 22.947 0.85743 23.527v4.8574zm0.24609-10.238c0.0974-4.3614 0.0323-10.714-0.81836-16.352-0.548 0.51065-1.0468 0.88751-1.3574 1.1035 0.932 3.2947 1.6558 9.4174 2.1758 15.248zm0.45313-19.598c0.51466-1.016 0.78499-2.1914 0.48633-3.4687-0.0467-0.11067-0.61954-1.4532-1.1582-3.1172l-0.27539 3.0781c0.36934 1.0933 0.6806 2.2732 0.94727 3.5078zm0.10156-7.4609c0.0427-1.316 0.25237-2.9399 0.8457-4.6719 1.0973-3.2133 3.7543-7.2793 10.045-9.834h-4.8477c-0.68133 2.8067-4.3688 4.4284-5.8848 4.9844l-0.67578 7.543c0.136 0.648 0.31891 1.3265 0.51758 1.9785z"/><path d="m21 1.3652v1.832h123v-1.832z"/><path d="m160.58 110c0.42907 6.912 1.4363 20.503 2.9922 25.551l0.11333 0.36914-0.32813 0.20508c-0.0227 0.012-1.0072 0.63364-2.0058 1.6816 0.32399 1.844 0.73876 3.5863 1.2734 5.125l0.0664 0.18555-1.3535 15.068-0.58593 0.18164c-1.4707 0.46-5.291 2.1382-5.291 4.3516v0.91601h-11.443v-1.832h2.9414c12.564-4.088 12.427-13.775 12.082-16.668-0.32267-0.87067-0.57775-1.4736-0.59375-1.5176-0.484-2.0627 0.19059-3.8471 1.1426-5.2324-1.8414-10.093-0.9041-22.947-0.85744-23.527v-4.8574zm-0.24608 10.238c-0.0973 4.3613-0.0323 10.714 0.81836 16.352 0.548-0.51066 1.0468-0.88752 1.3574-1.1035-0.932-3.2947-1.6558-9.4174-2.1758-15.248zm-0.45313 19.598c-0.51467 1.016-0.78499 2.1914-0.48633 3.4688 0.0467 0.11067 0.61953 1.4532 1.1582 3.1172l0.2754-3.0781c-0.36935-1.0933-0.6806-2.2732-0.94727-3.5078zm-0.10161 7.461c-0.0427 1.316-0.25235 2.9399-0.84569 4.6719-1.0973 3.2133-3.7543 7.2793-10.045 9.834h4.8477c0.68132-2.8066 4.3688-4.4284 5.8848-4.9844l0.67578-7.543c-0.136-0.648-0.3189-1.3265-0.51759-1.9785z"/><path d="m160.56 110h-1.832v-55h1.832z"/><path d="m160.56 55c0.42906-6.912 1.4363-20.503 2.9922-25.551l0.11334-0.36913-0.32813-0.20508c-0.0227-0.012-1.0072-0.63364-2.0058-1.6816 0.32398-1.844 0.73877-3.5863 1.2734-5.125l0.0664-0.18555-1.3535-15.068-0.58592-0.18164c-1.4707-0.46-5.291-2.1382-5.291-4.3516v-0.91603h-11.443v1.832h2.9414c12.564 4.088 12.427 13.775 12.082 16.668-0.32268 0.87066-0.57776 1.4736-0.59376 1.5176-0.484 2.0627 0.19059 3.8471 1.1426 5.2324-1.8414 10.093-0.90409 22.947-0.85743 23.527v4.8574zm-0.2461-10.238c-0.0973-4.3614-0.0323-10.714 0.81836-16.352 0.548 0.51065 1.0468 0.88751 1.3574 1.1035-0.932 3.2947-1.6558 9.4174-2.1758 15.248zm-0.45312-19.598c-0.51467-1.016-0.785-2.1914-0.48633-3.4687 0.0467-0.11067 0.61953-1.4532 1.1582-3.1172l0.27539 3.0781c-0.36935 1.0933-0.6806 2.2732-0.94727 3.5078zm-0.10161-7.4609c-0.0427-1.316-0.25236-2.9399-0.84569-4.6719-1.0973-3.2133-3.7543-7.2793-10.045-9.834h4.8477c0.68133 2.8067 4.3688 4.4284 5.8848 4.9844l0.67578 7.543c-0.136 0.648-0.31891 1.3265-0.51759 1.9785z"/></g></svg>
