<svg width="152" height="38" version="1.1" viewBox="0 0 152 38" xml:space="preserve" xmlns="http://www.w3.org/2000/svg"><g transform="matrix(1.3333 0 0 -1.3333 -123.8 888.82)"><g transform="matrix(-1 0 0 1 93.321 658.77)"><path d="m0 0-0.395 0.186c-1.462 0.687-3.274 3.341-3.848 4.305l-0.2 0.336h-80.476v2.837h-6.874l-0.263-0.33c-0.442-0.555-0.985-0.992-1.587-1.303-1.488 0.641-3.058 1.002-4.644 1.085-0.125 0.265-0.389 0.452-0.702 0.452-0.312 0-0.577-0.187-0.701-0.452-1.586-0.083-3.155-0.444-4.643-1.085-0.603 0.311-1.146 0.748-1.587 1.303l-0.263 0.33h-6.875v-28.139h6.875l0.263 0.33c0.441 0.554 0.983 0.992 1.585 1.302 1.485-0.643 3.042-1.009 4.649-1.091 0.126-0.261 0.388-0.445 0.697-0.445s0.572 0.184 0.697 0.445c1.608 0.082 3.166 0.448 4.651 1.091 0.601-0.31 1.144-0.748 1.585-1.302l0.263-0.33h6.874v2.837h80.478l0.2 0.336c0.574 0.965 2.385 3.618 3.847 4.306l0.396 0.185zm-6.846-14.099h-76.069v15.387h76.071c2.318-1.307 4.647-3.082 5.47-5.221v-4.942c-0.822-2.14-3.152-3.916-5.472-5.224m-78.073 15.387h1.255v-15.387h-1.255zm83.544-2.133v-1.483c-1.812 2.694-5.548 4.666-8.138 5.78h4.296c0.566-0.889 2.184-3.28 3.842-4.297m-10.174 4.297c0.782-0.291 1.975-0.768 3.284-1.414h-76.654v1.414zm-88.083 2.925c0.137-0.216 0.368-0.366 0.643-0.366 0.276 0 0.506 0.15 0.645 0.366 1.247-0.063 2.482-0.307 3.67-0.734-0.365-0.09-0.741-0.139-1.122-0.139h-6.384c-0.383 0-0.758 0.049-1.121 0.139 1.186 0.427 2.422 0.671 3.669 0.734m1.287-25.564c-0.139 0.214-0.369 0.366-0.644 0.366s-0.505-0.152-0.642-0.366c-1.248 0.062-2.484 0.306-3.67 0.734 0.363 0.09 0.738 0.139 1.121 0.139h6.384c0.381 0 0.757-0.049 1.122-0.139-1.188-0.428-2.424-0.672-3.671-0.734m7.378 0.462c-1.247 1.378-2.985 2.161-4.829 2.161h-6.384c-1.845 0-3.582-0.783-4.829-2.161h-1.164s-3.135 0.033-3.135 4.251v16.137c0 4.219 3.135 4.251 3.135 4.251h1.164c1.247-1.378 2.984-2.16 4.829-2.16h6.384c1.844 0 3.582 0.782 4.829 2.16h1.163s3.135-0.032 3.135-4.251v-16.137c0-4.218-3.135-4.251-3.135-4.251zm6.048 3.876h76.652c-1.308-0.645-2.501-1.123-3.282-1.414h-73.37zm79.704-1.414h-4.298c2.591 1.115 6.328 3.087 8.14 5.783v-1.486c-1.659-1.016-3.276-3.407-3.842-4.297" fill="#221c1b"/></g></g></svg>
