<svg width="172" height="58" version="1.1" viewBox="0 0 172 58" xml:space="preserve" xmlns="http://www.w3.org/2000/svg"><path d="m113.86 0.24023v3.7832h-106.78-0.52148l-0.26758 0.44727c-0.76533 1.2867-3.1796 4.8249-5.1289 5.7422l-0.52734 0.24609v8.4824 20.117 8.4824l0.52734 0.24609c1.9493 0.91733 4.3636 4.4555 5.1289 5.7422l0.26758 0.44726h0.52148 106.78v3.7832h7.3457 10 1.8184l0.35156-0.44141c0.588-0.73867 1.312-1.321 2.1133-1.7344 1.98 0.85733 4.0572 1.3438 6.2012 1.4531 0.16667 0.348 0.51768 0.59375 0.92968 0.59375 0.41201 0 0.76169-0.24575 0.92969-0.59375 2.1427-0.10933 4.2173-0.59579 6.1973-1.4531 0.80266 0.41333 1.5253 0.99571 2.1133 1.7344l0.35156 0.44141h1.5137 10 7.6524v-18.701-20.117-18.701h-7.6524-10-1.5137l-0.35156 0.44141c-0.58801 0.73867-1.3106 1.321-2.1133 1.7344-1.98-0.85733-4.0546-1.3438-6.1973-1.4531-0.168-0.348-0.51768-0.59375-0.92969-0.59375-0.412 0-0.76301 0.24575-0.92968 0.59375-2.144 0.10933-4.2212 0.59579-6.2012 1.4531-0.80134-0.41333-1.5253-0.99571-2.1133-1.7344l-0.35156-0.44141h-1.8184-10-7.3457z" fill="#fff"/><path d="m113.86 0.24023v3.7832h-107.3l-0.26758 0.44727c-0.76533 1.2867-3.1796 4.8249-5.1289 5.7422l-0.52734 0.24609v37.082l0.52734 0.24609c1.9493 0.91733 4.3636 4.4555 5.1289 5.7422l0.26758 0.44727h107.3v3.7832h19.164l0.35155-0.44141c0.588-0.73867 1.312-1.321 2.1133-1.7344 1.98 0.85733 4.0572 1.3438 6.2012 1.4531 0.16667 0.348 0.51769 0.59375 0.92969 0.59375 0.41201 0 0.76169-0.24575 0.92969-0.59375 2.1427-0.10933 4.2173-0.59579 6.1973-1.4531 0.80266 0.41333 1.5253 0.99571 2.1133 1.7344l0.35156 0.44141h19.166v-57.52h-19.166l-0.35156 0.44141c-0.58801 0.73867-1.3106 1.321-2.1133 1.7344-1.98-0.85733-4.0546-1.3438-6.1973-1.4531-0.168-0.348-0.51768-0.59375-0.92969-0.59375-0.412 0-0.76302 0.24575-0.92969 0.59375-2.144 0.10933-4.2212 0.59579-6.2012 1.4531-0.80133-0.41333-1.5253-0.99571-2.1133-1.7344l-0.35155-0.44141h-11.818zm27.9 1.7168c0.18533 0.28533 0.4927 0.48828 0.85937 0.48828 0.36666 0 0.6728-0.20295 0.85547-0.48828 1.664 0.08267 3.3112 0.4098 4.8926 0.98047-0.48401 0.12-0.98348 0.18359-1.4942 0.18359h-8.5117c-0.508 0-1.0094-0.063591-1.4961-0.18359 1.584-0.57067 3.2319-0.8978 4.8945-0.98047zm-21.389 0.61719h11.551c1.6626 1.8373 3.9808 2.8809 6.4394 2.8809h8.5117c2.46 0 4.7768-1.0435 6.4394-2.8809h11.551c-1e-5 0 4.1797 0.043968 4.1797 5.668v41.516c0 5.624-4.1797 5.668-4.1797 5.668h-11.551c-1.6627-1.8373-3.9794-2.8809-6.4394-2.8809h-8.5117c-2.4587 0-4.7768 1.0435-6.4394 2.8809h-11.551s-4.1797-0.04397-4.1797-5.668v-41.516c0-5.624 4.1797-5.668 4.1797-5.668zm-112.79 3.2832h5.7305c-3.4547 1.4867-8.4356 4.1143-10.852 7.709v-1.9805c2.212-1.3547 4.3664-4.5419 5.1211-5.7285zm8.4453 0h97.828v1.8848h-102.2c1.744-0.86 3.3337-1.4968 4.375-1.8848zm-6.2695 2.8848h101.43v40.516h-101.43c-3.0933-1.744-6.2009-4.1115-7.2969-6.9648v-26.586c1.096-2.8533 4.2035-5.2208 7.2969-6.9648zm102.42 0h1.6738v40.516h-1.6738v-30.316zm-109.72 35.691c2.416 3.5947 7.3969 6.2223 10.852 7.709h-5.7305c-0.75467-1.1867-2.9091-4.3738-5.1211-5.7285zm9.1914 5.8242h102.2v1.8848h-97.828c-1.0413-0.388-2.631-1.0248-4.375-1.8848zm126.71 4.6211h8.5117c0.51067 0 1.0101 0.06359 1.4942 0.18359-1.5813 0.57067-3.2286 0.8978-4.8926 0.98047-0.18267-0.28533-0.48881-0.48828-0.85547-0.48828-0.36667 0-0.67404 0.20295-0.85937 0.48828-1.6627-0.08267-3.3105-0.4098-4.8945-0.98047 0.48667-0.12 0.98809-0.18359 1.4961-0.18359z" fill="#221c1b"/></svg>
