<svg width="102" height="102" version="1.1" viewBox="0 0 102 102" xml:space="preserve" xmlns="http://www.w3.org/2000/svg"><g fill="#deddde"><path d="m8.2916 3.0279c-1.2387 2.6347-6.0996 5.5274-6.0996 5.5274v3.4375c2.4613-2.5547 7.2785-6.7462 13.924-8.9649zm10.223 0c-8.1693 2.016-13.888 7.2922-16.322 9.9375v2.5215c2.5813-3.6653 7.61-8.9395 15.25-8.9395h2.6582v-3.5195zm-1.0723 4.5195c-5.9493 0-10.236 3.4247-12.936 6.582-0.34267 1.3267-1.1239 5.2122 0.13477 9.2402l0.0312 0.09173-0.02733 0.09173-2.4531 9.125v1.4219h17.908v-26.553zm-13.873 7.7402c-0.552 0.728-1.005 1.4047-1.377 1.9981v12.826l1.7852-6.6387c-0.98933-3.2387-0.74153-6.3109-0.4082-8.1855z"/><path d="m2.192 67.9v2.1289l2.4805 9.2148-0.0312 0.09373c-1.26 4.0293-0.47477 7.9149-0.13477 9.2402 2.7 3.1573 6.9862 6.582 12.936 6.582h2.6581v-27.26zm0 4.6934v12.828c0.372 0.59333 0.82496 1.272 1.377 2-0.33333-1.8747-0.58113-4.9495 0.4082-8.1895zm0 14.629v2.5195c2.4373 2.6467 8.1632 7.9275 16.338 9.9395h1.5703v-3.5215h-2.6582c-7.64 0-12.669-5.2735-15.25-8.9375zm0 3.4922v3.4395s4.8609 2.89 6.0996 5.5273h7.832c-6.6493-2.2187-11.47-6.4108-13.932-8.9668z"/><path d="m20 67.9v27.26h62v-27.26zm0 28.26v3.5215h62v-3.5215z"/><path d="m2.192 34v34h49.454v-34z"/><path d="m82 2.9258-62 0.00133v3.5195h62zm-62 4.5215v26.553h62v-26.553z"/><path d="m93.709 3.0279c1.2387 2.6347 6.0996 5.5274 6.0996 5.5274v3.4375c-2.4613-2.5547-7.2785-6.7462-13.924-8.9649zm-10.223 0c8.1693 2.016 13.888 7.2922 16.322 9.9375v2.5215c-2.5813-3.6653-7.61-8.9395-15.25-8.9395h-2.6582v-3.5195zm1.0723 4.5195c5.9493 0 10.236 3.4247 12.936 6.582 0.34267 1.3267 1.1239 5.2122-0.13477 9.2402l-0.0312 0.09173 0.02733 0.09173 2.4531 9.125v1.4219h-17.908v-26.553zm13.873 7.7402c0.552 0.728 1.005 1.4047 1.377 1.9981v12.826l-1.7852-6.6387c0.98933-3.2387 0.74153-6.3109 0.4082-8.1855z"/><path d="m99.808 68v2.1289l-2.4805 9.2148 0.0312 0.09373c1.26 4.0293 0.47477 7.9149 0.13477 9.2402-2.7 3.1573-6.9862 6.582-12.936 6.582h-2.6581v-27.26zm0 4.6934v12.828c-0.372 0.59333-0.82496 1.272-1.377 2 0.33333-1.8747 0.58113-4.9495-0.4082-8.1895zm0 14.629v2.5195c-2.4373 2.6467-8.1632 7.9275-16.338 9.9395h-1.5703v-3.5215h2.6582c7.64 0 12.669-5.2735 15.25-8.9375zm0 3.4922v3.4395s-4.8609 2.89-6.0996 5.5273h-7.832c6.6493-2.2187 11.47-6.4108 13.932-8.9668z"/><path d="m99.808 34v34h-48.162v-34z"/></g><g transform="matrix(1.3333 0 0 -1.3333 234 295)" fill="none" stroke="#000"><path d="m0 26.25h78.75" stroke-width=".75"/><path d="m0 52.5h78.75" stroke-width=".75px"/><path d="m26.25 78.75v-78.75" stroke-width=".75"/><path d="m52.5 78.75v-78.75" stroke-width=".75px"/></g></svg>
