<?xml version="1.0" encoding="UTF-8" standalone="no"?>
<svg
   xmlns:dc="http://purl.org/dc/elements/1.1/"
   xmlns:cc="http://creativecommons.org/ns#"
   xmlns:rdf="http://www.w3.org/1999/02/22-rdf-syntax-ns#"
   xmlns:svg="http://www.w3.org/2000/svg"
   xmlns="http://www.w3.org/2000/svg"
   viewBox="0 0 960 160"
   height="160"
   width="960"
   xml:space="preserve"
   id="svg2"
   version="1.1"><metadata
     id="metadata8"><rdf:RDF><cc:Work
         rdf:about=""><dc:format>image/svg+xml</dc:format><dc:type
           rdf:resource="http://purl.org/dc/dcmitype/StillImage" /><dc:title></dc:title></cc:Work></rdf:RDF></metadata><defs
     id="defs6" /><g
     transform="matrix(1.3333333,0,0,-1.3333333,-11.409466,1062.9356)"
     id="g10"><g
       transform="matrix(1.1910679,0,0,1.1910679,-1.634987,-128.32452)"
       id="g4685"><g
         id="g12"
         transform="translate(92.8431,734.1721)"><path
           d="M 0,0 23.255,-1.74 0,-3.479 -23.252,-1.74 Z m 139.199,-6.519 23.254,-1.739 23.256,1.739 -23.256,1.74 z m 114.293,16.991 22.286,1.666 -27.48,2.055 42.048,3.143 -37.447,2.801 51.877,3.877 -88.338,6.608 23.736,1.773 -43.337,3.242 -38.505,-2.88 -17.318,2.255 42.488,3.174 -34.049,2.547 -23.73,-1.773 -27.549,2.06 -25.751,-1.927 26.164,-1.958 -28.828,-2.156 -28.823,2.156 16.707,1.25 -19.96,1.493 -63.818,-4.771 22.614,-1.691 -71.71,-5.36 42.231,-3.158 -22.286,-1.666 27.478,-2.055 -42.046,-3.142 37.445,-2.802 -51.877,-3.877 71.294,-5.333 -32.644,-2.442 34.46,-2.575 8.912,0.666 25.916,-1.939 38.506,2.88 17.299,-2.252 -44.872,-3.356 61.598,-4.604 13.469,1.006 -24.247,1.814 34.625,2.59 24.268,-1.815 15.887,1.188 22.622,-1.691 63.818,4.77 -22.612,1.691 71.709,5.359 z"
           style="fill:#deddde;fill-opacity:1;fill-rule:nonzero;stroke:none"
           id="path14" /></g><g
         id="g16"
         transform="translate(191.5663,683.9097)"><path
           d="M 0,0 18.891,-1.413 0,-2.826 -18.888,-1.413 Z m 113.072,-5.295 18.89,-1.413 18.891,1.413 -18.891,1.413 z m 92.841,13.801 18.103,1.354 -22.322,1.669 34.156,2.553 -30.419,2.275 42.14,3.15 -71.757,5.367 19.281,1.441 -35.203,2.633 -31.278,-2.339 -14.067,1.831 34.513,2.579 -27.659,2.069 L 102.126,31.647 79.747,33.321 58.83,31.756 80.082,30.165 56.666,28.414 33.253,30.165 46.824,31.18 30.61,32.393 -21.229,28.518 -2.86,27.144 -61.111,22.79 l 34.305,-2.565 -18.103,-1.353 22.321,-1.67 -34.155,-2.552 30.417,-2.276 -42.14,-3.15 57.912,-4.331 -26.516,-1.984 27.992,-2.092 7.239,0.541 21.052,-1.575 31.278,2.34 14.052,-1.83 -36.449,-2.726 50.036,-3.74 10.941,0.818 -19.696,1.473 28.126,2.104 19.713,-1.474 12.905,0.964 18.376,-1.373 51.84,3.875 -18.368,1.373 58.25,4.354 z"
           style="fill:#deddde;fill-opacity:1;fill-rule:nonzero;stroke:none"
           id="path18" /></g><g
         id="g20"
         transform="translate(391.8167,731.4042)"><path
           d="M 0,0 15.58,-1.166 0,-2.33 -15.578,-1.166 Z m 93.256,-4.367 15.579,-1.165 15.58,1.165 -15.58,1.166 z m 76.57,11.383 14.93,1.116 -18.41,1.376 28.17,2.106 -25.087,1.877 34.754,2.597 -59.181,4.427 15.902,1.188 -29.034,2.172 -25.796,-1.929 -11.602,1.51 28.465,2.127 -22.812,1.706 -15.897,-1.188 -18.457,1.38 -17.252,-1.291 17.529,-1.312 -19.313,-1.444 -19.31,1.444 11.193,0.838 -13.372,1 -42.755,-3.196 15.15,-1.133 -48.042,-3.591 28.293,-2.116 -14.931,-1.116 18.409,-1.376 -28.168,-2.106 25.086,-1.877 -34.755,-2.597 47.763,-3.573 -21.869,-1.636 23.086,-1.725 5.97,0.446 17.363,-1.299 25.796,1.93 11.59,-1.509 -30.062,-2.249 41.268,-3.084 9.023,0.674 -16.245,1.216 23.197,1.735 16.259,-1.216 10.643,0.795 15.156,-1.133 42.754,3.196 -15.148,1.133 48.041,3.591 z"
           style="fill:#deddde;fill-opacity:1;fill-rule:nonzero;stroke:none"
           id="path22" /></g><g
         id="g24"
         transform="translate(87.0604,771.1898)"><path
           d="m 0,0 c -0.431,-2.8 0.22,-6.34 0.22,-6.34 0,0 -2.05,1.5 -4.29,2.77 -1.33,0.75 -2.46,2.42 -3.161,3.65 -0.479,0.85 -0.759,1.48 -0.759,1.48 -3.111,-3.34 -1.101,-7.27 -1.101,-7.27 -4.849,1.06 -7.88,-0.19 -7.88,-0.19 9.181,-6.01 4.301,-6.5 -1,-9.01 -5.29,-2.51 -5.679,-5.63 -5.679,-5.63 6.33,2.08 8.849,-0.58 8.849,-0.58 -3.409,-3.26 -0.369,-8.35 -0.369,-8.35 3.31,-6.34 11.51,-9.04 18.85,-10.15 7.269,-1.11 13.7,-0.67 13.7,-0.67 l -16.721,-5.2 -15.019,-3.79 c 0,0 -14.911,1.6 -20.39,14.22 -5.471,12.63 4.09,22.57 3.13,23.22 -0.91,0.62 -2.07,-0.76 -2.191,-0.91 4.161,11.91 16.691,11.78 17.191,13.04 0.51,1.27 -2.471,1.35 -2.471,1.35 C -6.42,5.81 0,0 0,0"
           style="fill:#231f20;fill-opacity:1;fill-rule:nonzero;stroke:none"
           id="path26" /></g><g
         id="g28"
         transform="translate(574.2475,737.1426)"><path
           d="m 0,0 v -38.142 c 14.567,0.085 16.462,0 18.946,3.228 v 37.5 C 14.287,0.112 9.473,0.037 0,0"
           style="fill:#ffffff;fill-opacity:1;fill-rule:nonzero;stroke:none"
           id="path30" /></g><g
         id="g32"
         transform="translate(574.2475,737.1426)"><path
           d="m 0,0 v -38.142 c 14.567,0.085 16.462,0 18.946,3.228 v 37.5 C 14.287,0.112 9.473,0.037 0,0 Z"
           style="fill:none;stroke:#231f20;stroke-width:1.375;stroke-linecap:butt;stroke-linejoin:miter;stroke-miterlimit:10;stroke-dasharray:none;stroke-opacity:1"
           id="path34" /></g><g
         id="g36"
         transform="translate(573.6425,734.3076)"><path
           d="M 0,0 C 16.235,0.054 17.687,1.176 19.157,2.303 M 0.603,-32.193 c 19.602,-2.231 17.932,3.579 18.804,3.754"
           style="fill:none;stroke:#231f20;stroke-width:0.75;stroke-linecap:butt;stroke-linejoin:miter;stroke-miterlimit:10;stroke-dasharray:none;stroke-opacity:1"
           id="path38" /></g><g
         id="g40"
         transform="translate(197.6205,706.1968)"><path
           d="m 0,0 c -0.004,-0.014 -0.015,-0.023 -0.019,-0.036 -0.088,-0.307 -0.036,-0.636 0.143,-0.901 0.218,-0.324 5.426,-7.942 12.223,-7.942 1.513,0 2.994,0.383 4.469,1.177 0.591,0.375 1.159,0.755 1.649,1.098 3.578,2.192 7.058,5.399 8.319,6.604 z"
           style="fill:#ffffff;fill-opacity:1;fill-rule:nonzero;stroke:none"
           id="path42" /></g><g
         id="g44"
         transform="translate(30.4075,730.4297)"><path
           d="m 0,0 v -37.5 l 35.5,4.639 V 4.64 Z"
           style="fill:#ffffff;fill-opacity:1;fill-rule:nonzero;stroke:none"
           id="path46" /></g><g
         id="g48"
         transform="translate(30.4075,730.4297)"><path
           d="m 0,0 v -37.5 l 35.5,4.639 v 37.5 z"
           style="fill:none;stroke:#231f20;stroke-width:1.375;stroke-linecap:butt;stroke-linejoin:miter;stroke-miterlimit:10;stroke-dasharray:none;stroke-opacity:1"
           id="path50" /></g><g
         id="g52"
         transform="translate(31.1838,695.7139)"><path
           d="M 0,0 34.724,4.925 M 0,32.207 34.724,36.625"
           style="fill:none;stroke:#231f20;stroke-width:0.75;stroke-linecap:butt;stroke-linejoin:miter;stroke-miterlimit:10;stroke-dasharray:none;stroke-opacity:1"
           id="path54" /></g><g
         id="g56"
         transform="translate(65.9075,735.0684)"><path
           d="m 0,0 -24.219,3.583 v -37.5 L 0,-37.5 Z"
           style="fill:#c1c0c2;fill-opacity:1;fill-rule:nonzero;stroke:none"
           id="path58" /></g><g
         id="g60"
         transform="translate(65.9075,735.0684)"><path
           d="m 0,0 -24.219,3.583 v -37.5 L 0,-37.5 Z"
           style="fill:none;stroke:#231f20;stroke-width:1.375;stroke-linecap:butt;stroke-linejoin:miter;stroke-miterlimit:10;stroke-dasharray:none;stroke-opacity:1"
           id="path62" /></g><g
         id="g64"
         transform="translate(260.7278,701.1514)"><path
           d="M 0,0 C -61.753,-11.25 -157.286,11.25 -219.039,0 V 37.5 C -157.286,48.75 -61.753,26.25 0,37.5 Z"
           style="fill:#ffffff;fill-opacity:1;fill-rule:nonzero;stroke:none"
           id="path66" /></g><g
         id="g68"
         transform="translate(260.7278,701.1514)"><path
           d="M 0,0 C -61.753,-11.25 -157.286,11.25 -219.039,0 V 37.5 C -157.286,48.75 -61.753,26.25 0,37.5 Z"
           style="fill:none;stroke:#231f20;stroke-width:1.375;stroke-linecap:butt;stroke-linejoin:miter;stroke-miterlimit:10;stroke-dasharray:none;stroke-opacity:1"
           id="path70" /></g><g
         id="g72"
         transform="translate(261.6057,704.7744)"><path
           d="m 0,0 c 0,0 -20.5,-8.666 -114.666,-0.333 -66.51,5.886 -99.718,0.727 -104.856,-0.173 M -0.878,30.955 c 0,0 -19.872,-8.038 -114.038,0.295 -66.51,5.886 -99.718,0.726 -104.856,-0.173"
           style="fill:none;stroke:#231f20;stroke-width:0.75;stroke-linecap:butt;stroke-linejoin:miter;stroke-miterlimit:10;stroke-dasharray:none;stroke-opacity:1"
           id="path74" /></g><path
         d="M 574.528,689.543 H 260.634 v 60.642 h 313.894 z"
         style="fill:#ffffff;fill-opacity:1;fill-rule:nonzero;stroke:none"
         id="path76" /><path
         d="M 574.528,689.543 H 260.634 v 60.642 h 313.894 z"
         style="fill:none;stroke:#231f20;stroke-width:1.25;stroke-linecap:butt;stroke-linejoin:miter;stroke-miterlimit:10;stroke-dasharray:none;stroke-opacity:1"
         id="path78" /><g
         id="g80"
         transform="translate(258.5359,756.4932)"><path
           d="m 0,0 -0.001,-73.258 c 1.048,2.516 2.098,3.565 2.098,3.565 l 10e-4,66.129 c 0,0 -1.05,1.046 -2.098,3.564"
           style="fill:#ffffff;fill-opacity:1;fill-rule:nonzero;stroke:none"
           id="path82" /></g><g
         id="g84"
         transform="translate(258.5359,756.4932)"><path
           d="m 0,0 -0.001,-73.258 c 1.048,2.516 2.098,3.565 2.098,3.565 l 10e-4,66.129 c 0,0 -1.05,1.046 -2.098,3.564 z"
           style="fill:none;stroke:#231f20;stroke-width:1.25;stroke-linecap:butt;stroke-linejoin:miter;stroke-miterlimit:10;stroke-dasharray:none;stroke-opacity:1"
           id="path86" /></g><g
         id="g88"
         transform="translate(260.6335,742.2969)"><path
           d="m 0,0 c 0,0 1.067,10.333 8.401,10.333 h 22 c 0,0 7.166,-2.445 20.5,-2.445 M -0.001,-44.866 c 0,0 1.067,-10.333 8.401,-10.333 h 22 c 0,0 7.166,2.445 20.5,2.445"
           style="fill:none;stroke:#231f20;stroke-width:1.25;stroke-linecap:butt;stroke-linejoin:miter;stroke-miterlimit:10;stroke-dasharray:none;stroke-opacity:1"
           id="path90" /></g><g
         id="g92"
         transform="translate(576.6253,756.4932)"><path
           d="m 0,0 0.001,-73.258 c -1.048,2.516 -2.098,3.565 -2.098,3.565 l -10e-4,66.129 c 0,0 1.05,1.046 2.098,3.564"
           style="fill:#ffffff;fill-opacity:1;fill-rule:nonzero;stroke:none"
           id="path94" /></g><g
         id="g96"
         transform="translate(576.6253,756.4932)"><path
           d="m 0,0 0.001,-73.258 c -1.048,2.516 -2.098,3.565 -2.098,3.565 l -10e-4,66.129 c 0,0 1.05,1.046 2.098,3.564 z"
           style="fill:none;stroke:#231f20;stroke-width:1.25;stroke-linecap:butt;stroke-linejoin:miter;stroke-miterlimit:10;stroke-dasharray:none;stroke-opacity:1"
           id="path98" /></g><g
         id="g100"
         transform="translate(574.5276,742.2969)"><path
           d="m 0,0 c 0,0 -1.067,10.333 -8.401,10.333 h -22 c 0,0 -7.166,-2.445 -20.5,-2.445 M 0.001,-44.866 c 0,0 -1.067,-10.333 -8.401,-10.333 h -22 c 0,0 -7.166,2.445 -20.5,2.445"
           style="fill:none;stroke:#231f20;stroke-width:1.25;stroke-linecap:butt;stroke-linejoin:miter;stroke-miterlimit:10;stroke-dasharray:none;stroke-opacity:1"
           id="path102" /></g><g
         id="g104"
         transform="translate(552.6292,750.18359)"><path
           d="m 0,0 c -5.202,-0.907 -11.465,-1.923 -17.206,-1.923 h -235.685 c -5.741,0 -12.004,1.016 -17.206,1.923 m 0,-60.641 c 5.202,0.908 11.465,1.923 17.206,1.923 h 235.685 c 5.741,0 12.004,-1.015 17.206,-1.923"
           style="fill:none;stroke:#231f20;stroke-width:0.75;stroke-linecap:butt;stroke-linejoin:miter;stroke-miterlimit:10;stroke-dasharray:none;stroke-opacity:1"
           id="path106" /></g><g
         id="g108"
         transform="translate(99.7194,755.3397)"><path
           d="M 0,0 C 3.391,-1.37 4.29,-4.66 4.29,-4.66 1.441,-4.58 0.601,-2.38 0,0"
           style="fill:#ffffff;fill-opacity:1;fill-rule:nonzero;stroke:none"
           id="path110" /></g><g
         id="g112"
         transform="translate(256.0256,696.1201)"><path
           d="m 0,0 c -0.64,3.468 -3.087,9.124 -7.827,12.106 -3.917,2.459 -7.339,1.927 -7.355,3.149 -0.029,1.554 4.362,1.073 4.362,1.073 -4.735,2.712 -11.527,-0.607 -12.498,0.946 -0.573,0.931 3.161,2.238 3.161,2.238 -5.776,0.212 -12.592,-2.765 -15.326,-5.466 6.89,2.313 16.593,0.983 21.05,-2.825 -1.887,1.06 -3.933,1.768 -6.033,2.188 -7.819,1.572 -16.523,-0.755 -21.763,-2.935 C -48.143,8.471 -52.654,5.513 -52.654,5.513 -56.558,3.244 -63.768,1.129 -68.657,3.198 l -0.001,-0.01 c 0,0 7.654,-12.749 17.059,-8.314 0.691,0.384 1.352,0.78 1.973,1.168 5.134,2.785 10.304,7.431 10.304,7.431 1.798,1.257 7.334,4.862 13.999,6.876 1.485,0.443 2.992,0.535 4.424,0.329 3.717,-0.505 6.957,-2.888 8.02,-5.737 C -10.009,5.441 -2.734,3.037 0,0"
           style="fill:#231f20;fill-opacity:1;fill-rule:nonzero;stroke:none"
           id="path114" /></g><g
         id="g116"
         transform="translate(104.0095,750.68)"><path
           d="M 0,0 C 0,0 -0.899,3.29 -4.29,4.66 -3.689,2.28 -2.85,0.08 0,0 m -10.92,-8.8 c -0.79,4.26 -6.67,4.99 -9.699,3.03 1.05,2.82 4,5.38 6.279,6.19 -1.3,0.5 -2.83,0.93 -4.479,1.29 1.939,1.48 6.71,2.6 9.13,2.39 -0.441,0.13 -0.92,0.23 -1.441,0.3 l 0.46,2.77 c -0.269,2.32 -2.37,4.98 -4.87,6.58 -1.239,3.55 -0.029,10.01 1.681,11.73 C -14.72,16.19 -1.6,10.45 0.95,3.6 -0.489,9.45 -6.56,13.31 -9.399,16.87 -10.3,19.21 -9.43,23.08 -8.34,24.39 -8.84,18.16 -2.26,13.08 1.23,9.48 5.351,5.25 6.44,1.58 5.771,-1.37 6.69,-1.65 7.94,-2.59 7.681,-4.11 c 1.359,0.27 2.79,1.78 3.149,2.73 0.53,-4.66 -2.35,-9.47 -5.439,-10.84 0,0 0.889,2.18 -0.46,3.92 -1.321,1.71 -5.21,1.85 -6.531,1.8 0,0 1.691,2.34 1.08,3.57 -0.74,1.53 -8.379,1.1 -11.83,-0.03 1.17,0.09 3.911,-0.3 4.85,-0.73 -0.56,-0.78 -2.06,-4.09 -1.079,-5.13 0.829,-0.89 2,0.43 2.149,0.6 -0.11,-0.32 -1.259,-3.66 -0.469,-4.5 0.82,-0.88 2.67,-0.33 2.67,-0.33 -1.231,-2.84 -5.72,-4.69 -8.821,-4.59 1.12,0.31 3.01,2.22 3.321,3.4 -0.831,-0.38 -2.951,-0.55 -3.76,-0.37 1.01,0.38 3.099,2.89 2.569,5.81"
           style="fill:#231f20;fill-opacity:1;fill-rule:nonzero;stroke:none"
           id="path118" /></g><g
         id="g120"
         transform="translate(76.7302,759.3397)"><path
           d="M 0,0 C 0.51,1.8 -2.99,5.01 -4.311,5.63 0.63,5.68 3.06,4.68 3.06,4.68 1.83,6.61 1.5,9.53 2.31,11.81 4.8,5.28 14.39,3.94 16.609,-1.49 l -0.46,-2.77 C 12.359,-3.77 6.77,-4.9 3.95,-8.03 4.93,-8.06 7.46,-8.61 8.439,-8.96 4.17,-9.6 -1.71,-13.36 -3.471,-15.17 c 0.521,2.44 1.271,4.49 0.741,5.98 -0.75,2.1 -3.25,3.06 -8.3,2.17 C -7.54,-3.73 -0.53,-1.84 0,0"
           style="fill:#231f20;fill-opacity:1;fill-rule:nonzero;stroke:none"
           id="path122" /></g><g
         id="g124"
         transform="translate(48.7,742.8237)"><path
           d="M 0,0 1.019,-2.22 C -0.35,-2.45 -1.89,-7.86 -1.89,-7.86 -5.38,-5.84 -2.44,0.62 -2.44,0.62 Z"
           style="fill:#231f20;fill-opacity:1;fill-rule:nonzero;stroke:none"
           id="path126" /></g><g
         id="g128"
         transform="translate(41.0798,743.7437)"><path
           d="M 0,0 C 0,0 1.82,1.31 2.78,1.55 L 4.37,0.14 3.55,-0.11 c 0,0 -1.529,-5 -0.91,-7.07 l 1,-2.9 c 0,0 -3.26,0.65 -3.76,1.9 0,0 -1.05,5.63 0.12,8.18"
           style="fill:#231f20;fill-opacity:1;fill-rule:nonzero;stroke:none"
           id="path130" /></g><g
         id="g132"
         transform="translate(39.2399,741.6241)"><path
           d="m 0,0 c 0,0 0.21,-6.42 0.87,-6.99 l 2.42,-1.03 0.07,-2.19 c 0,0 -4.32,1.37 -4.68,3.02 -0.36,1.65 -0.64,5.75 -0.64,5.75 0,0 0.72,1.07 1.96,1.44"
           style="fill:#231f20;fill-opacity:1;fill-rule:nonzero;stroke:none"
           id="path134" /></g><g
         id="g136"
         transform="translate(270,728.1776)"><path
           d="M 0,0 H 298.08"
           style="fill:none;stroke:#b2b1b1;stroke-width:0.25;stroke-linecap:butt;stroke-linejoin:miter;stroke-miterlimit:4;stroke-dasharray:none;stroke-opacity:1"
           id="path138" /></g><g
         id="g140"
         transform="translate(270,702.0977)"><path
           d="M 0,0 H 298.08"
           style="fill:none;stroke:#b2b1b1;stroke-width:0.25;stroke-linecap:butt;stroke-linejoin:miter;stroke-miterlimit:4;stroke-dasharray:none;stroke-opacity:1"
           id="path142" /></g></g></g></svg>