<?xml version="1.0" encoding="UTF-8" standalone="no"?>
<svg
   xmlns:dc="http://purl.org/dc/elements/1.1/"
   xmlns:cc="http://creativecommons.org/ns#"
   xmlns:rdf="http://www.w3.org/1999/02/22-rdf-syntax-ns#"
   xmlns:svg="http://www.w3.org/2000/svg"
   xmlns="http://www.w3.org/2000/svg"
   viewBox="0 0 510 160"
   height="160"
   width="510"
   xml:space="preserve"
   id="svg2"
   version="1.1"><metadata
     id="metadata8"><rdf:RDF><cc:Work
         rdf:about=""><dc:format>image/svg+xml</dc:format><dc:type
           rdf:resource="http://purl.org/dc/dcmitype/StillImage" /><dc:title></dc:title></cc:Work></rdf:RDF></metadata><defs
     id="defs6"><clipPath
       id="clipPath176"
       clipPathUnits="userSpaceOnUse"><path
         id="path174"
         d="m 111.56,748.005 h 144 v 15.484 h -144 z" /></clipPath></defs><path
     d="M 504.813,138.97828 H 6.32092 V 42.673292 H 504.813 Z"
     style="fill:#ffffff;fill-opacity:1;fill-rule:nonzero;stroke:none;stroke-width:1.58809054"
     id="path76" /><path
     d="M 504.813,138.97828 H 6.32092 V 42.673292 H 504.813 Z"
     style="fill:none;stroke:#231f20;stroke-width:1.98511314;stroke-linecap:butt;stroke-linejoin:miter;stroke-miterlimit:10;stroke-dasharray:none;stroke-opacity:1"
     id="path78" /><g
     id="g80"
     transform="matrix(1.5880905,0,0,-1.5880905,2.98895,32.655292)"><path
       d="m 0,0 -0.001,-73.258 c 1.048,2.516 2.098,3.565 2.098,3.565 l 10e-4,66.129 c 0,0 -1.05,1.046 -2.098,3.564"
       style="fill:#ffffff;fill-opacity:1;fill-rule:nonzero;stroke:none"
       id="path82" /></g><g
     id="g84"
     transform="matrix(1.5880905,0,0,-1.5880905,2.98895,32.655292)"><path
       d="m 0,0 -0.001,-73.258 c 1.048,2.516 2.098,3.565 2.098,3.565 l 10e-4,66.129 c 0,0 -1.05,1.046 -2.098,3.564 z"
       style="fill:none;stroke:#231f20;stroke-width:1.25;stroke-linecap:butt;stroke-linejoin:miter;stroke-miterlimit:10;stroke-dasharray:none;stroke-opacity:1"
       id="path86" /></g><g
     id="g88"
     transform="matrix(1.5880905,0,0,-1.5880905,6.32014,55.200305)"><path
       d="m 0,0 c 0,0 1.067,10.333 8.401,10.333 h 22 c 0,0 7.166,-2.445 20.5,-2.445 M -0.001,-44.866 c 0,0 1.067,-10.333 8.401,-10.333 h 22 c 0,0 7.166,2.445 20.5,2.445"
       style="fill:none;stroke:#231f20;stroke-width:1.25;stroke-linecap:butt;stroke-linejoin:miter;stroke-miterlimit:10;stroke-dasharray:none;stroke-opacity:1"
       id="path90" /></g><g
     id="g92"
     transform="matrix(1.5880905,0,0,-1.5880905,508.14371,32.655292)"><path
       d="m 0,0 0.001,-73.258 c -1.048,2.516 -2.098,3.565 -2.098,3.565 l -10e-4,66.129 c 0,0 1.05,1.046 2.098,3.564"
       style="fill:#ffffff;fill-opacity:1;fill-rule:nonzero;stroke:none"
       id="path94" /></g><g
     id="g96"
     transform="matrix(1.5880905,0,0,-1.5880905,508.14371,32.655292)"><path
       d="m 0,0 0.001,-73.258 c -1.048,2.516 -2.098,3.565 -2.098,3.565 l -10e-4,66.129 c 0,0 1.05,1.046 2.098,3.564 z"
       style="fill:none;stroke:#231f20;stroke-width:1.25;stroke-linecap:butt;stroke-linejoin:miter;stroke-miterlimit:10;stroke-dasharray:none;stroke-opacity:1"
       id="path98" /></g><g
     id="g100"
     transform="matrix(1.5880905,0,0,-1.5880905,504.81238,55.200305)"><path
       d="m 0,0 c 0,0 -1.067,10.333 -8.401,10.333 h -22 c 0,0 -7.166,-2.445 -20.5,-2.445 M 0.001,-44.866 c 0,0 -1.067,-10.333 -8.401,-10.333 h -22 c 0,0 -7.166,2.445 -20.5,2.445"
       style="fill:none;stroke:#231f20;stroke-width:1.25;stroke-linecap:butt;stroke-linejoin:miter;stroke-miterlimit:10;stroke-dasharray:none;stroke-opacity:1"
       id="path102" /></g><path
     id="path106"
     style="fill:none;stroke:#231f20;stroke-width:1.19106793;stroke-linecap:butt;stroke-linejoin:miter;stroke-miterlimit:10;stroke-dasharray:none;stroke-opacity:1"
     d="m 470.03573,42.675532 c -8.26126,1.4404 -18.20746,3.053893 -27.32468,3.053893 H 68.42194 c -9.11723,0 -19.06344,-1.613493 -27.3247,-3.053893 m 0,96.303398 c 8.26126,-1.44199 18.20747,-3.05391 27.3247,-3.05391 h 374.28911 c 9.11722,0 19.06342,1.61192 27.32468,3.05391" /><g
     id="g136"
     transform="matrix(1.5880905,0,0,-1.5880905,21.19499,81.801491)"><path
       d="M 0,0 H 298.08"
       style="fill:none;stroke:#b2b1b1;stroke-width:0.25;stroke-linecap:butt;stroke-linejoin:miter;stroke-miterlimit:4;stroke-dasharray:none;stroke-opacity:1"
       id="path138" /></g><g
     id="g140"
     transform="matrix(1.5880905,0,0,-1.5880905,21.19499,114.80149)"><path
       d="M 0,0 H 298.08"
       style="fill:none;stroke:#b2b1b1;stroke-width:0.25;stroke-linecap:butt;stroke-linejoin:miter;stroke-miterlimit:4;stroke-dasharray:none;stroke-opacity:1"
       id="path142" /></g><flowRoot
     transform="matrix(1.3333333,0,0,-1.3333333,-11.409466,1062.9356)"
     xml:space="preserve"
     id="flowRoot4550"
     style="font-style:normal;font-weight:normal;font-size:40px;line-height:1.25;font-family:sans-serif;letter-spacing:0px;word-spacing:0px;fill:#000000;fill-opacity:1;stroke:none"><flowRegion
       id="flowRegion4552"><rect
         id="rect4554"
         width="178.0387"
         height="41.970078"
         x="82"
         y="67.529922" /></flowRegion><flowPara
       id="flowPara4556" /></flowRoot><flowRoot
     xml:space="preserve"
     id="flowRoot4558"
     style="font-style:normal;font-weight:normal;font-size:40px;line-height:1.25;font-family:sans-serif;letter-spacing:0px;word-spacing:0px;fill:#000000;fill-opacity:1;stroke:none"><flowRegion
       id="flowRegion4560"><rect
         id="rect4562"
         width="154"
         height="43.5"
         x="83.5"
         y="65.5" /></flowRegion><flowPara
       id="flowPara4564">DD</flowPara></flowRoot></svg>