<?xml version="1.0" encoding="UTF-8" standalone="no"?>
<svg
   xmlns:dc="http://purl.org/dc/elements/1.1/"
   xmlns:cc="http://creativecommons.org/ns#"
   xmlns:rdf="http://www.w3.org/1999/02/22-rdf-syntax-ns#"
   xmlns:svg="http://www.w3.org/2000/svg"
   xmlns="http://www.w3.org/2000/svg"
   version="1.1"
   id="svg2"
   xml:space="preserve"
   width="960"
   height="160"
   viewBox="0 0 960 160"><metadata
     id="metadata8"><rdf:RDF><cc:Work
         rdf:about=""><dc:format>image/svg+xml</dc:format><dc:type
           rdf:resource="http://purl.org/dc/dcmitype/StillImage" /><dc:title></dc:title></cc:Work></rdf:RDF></metadata><defs
     id="defs6"><clipPath
       clipPathUnits="userSpaceOnUse"
       id="clipPath176"><path
         d="m 111.56,748.005 h 144 v 15.484 h -144 z"
         id="path174" /></clipPath></defs><g
     id="g10"
     transform="matrix(1.3333333,0,0,-1.3333333,-11.409466,1062.9356)"><g
       id="g12"
       transform="matrix(1.1910679,0,0,1.1910679,108.94745,746.1243)"><path
         d="M 0,0 23.255,-1.74 0,-3.479 -23.252,-1.74 Z m 139.199,-6.519 23.254,-1.739 23.256,1.739 -23.256,1.74 z m 114.293,16.991 22.286,1.666 -27.48,2.055 42.048,3.143 -37.447,2.801 51.877,3.877 -88.338,6.608 23.736,1.773 -43.337,3.242 -38.505,-2.88 -17.318,2.255 42.488,3.174 -34.049,2.547 -23.73,-1.773 -27.549,2.06 -25.751,-1.927 26.164,-1.958 -28.828,-2.156 -28.823,2.156 16.707,1.25 -19.96,1.493 -63.818,-4.771 22.614,-1.691 -71.71,-5.36 42.231,-3.158 -22.286,-1.666 27.478,-2.055 -42.046,-3.142 37.445,-2.802 -51.877,-3.877 71.294,-5.333 -32.644,-2.442 34.46,-2.575 8.912,0.666 25.916,-1.939 38.506,2.88 17.299,-2.252 -44.872,-3.356 61.598,-4.604 13.469,1.006 -24.247,1.814 34.625,2.59 24.268,-1.815 15.887,1.188 22.622,-1.691 63.818,4.77 -22.612,1.691 71.709,5.359 z"
         style="fill:#deddde;fill-opacity:1;fill-rule:nonzero;stroke:none"
         id="path14" /></g><g
       id="g16"
       transform="matrix(1.1910679,0,0,1.1910679,226.53348,686.25837)"><path
         d="M 0,0 18.891,-1.413 0,-2.826 -18.888,-1.413 Z m 113.072,-5.295 18.89,-1.413 18.891,1.413 -18.891,1.413 z m 92.841,13.801 18.103,1.354 -22.322,1.669 34.156,2.553 -30.419,2.275 42.14,3.15 -71.757,5.367 19.281,1.441 -35.203,2.633 -31.278,-2.339 -14.067,1.831 34.513,2.579 -27.659,2.069 L 102.126,31.647 79.747,33.321 58.83,31.756 80.082,30.165 56.666,28.414 33.253,30.165 46.824,31.18 30.61,32.393 -21.229,28.518 -2.86,27.144 -61.111,22.79 l 34.305,-2.565 -18.103,-1.353 22.321,-1.67 -34.155,-2.552 30.417,-2.276 -42.14,-3.15 57.912,-4.331 -26.516,-1.984 27.992,-2.092 7.239,0.541 21.052,-1.575 31.278,2.34 14.052,-1.83 -36.449,-2.726 50.036,-3.74 10.941,0.818 -19.696,1.473 28.126,2.104 19.713,-1.474 12.905,0.964 18.376,-1.373 51.84,3.875 -18.368,1.373 58.25,4.354 z"
         style="fill:#deddde;fill-opacity:1;fill-rule:nonzero;stroke:none"
         id="path18" /></g><g
       id="g20"
       transform="matrix(1.1910679,0,0,1.1910679,465.04531,742.82754)"><path
         d="M 0,0 15.58,-1.166 0,-2.33 -15.578,-1.166 Z m 93.256,-4.367 15.579,-1.165 15.58,1.165 -15.58,1.166 z m 76.57,11.383 14.93,1.116 -18.41,1.376 28.17,2.106 -25.087,1.877 34.754,2.597 -59.181,4.427 15.902,1.188 -29.034,2.172 -25.796,-1.929 -11.602,1.51 28.465,2.127 -22.812,1.706 -15.897,-1.188 -18.457,1.38 -17.252,-1.291 17.529,-1.312 -19.313,-1.444 -19.31,1.444 11.193,0.838 -13.372,1 -42.755,-3.196 15.15,-1.133 -48.042,-3.591 28.293,-2.116 -14.931,-1.116 18.409,-1.376 -28.168,-2.106 25.086,-1.877 -34.755,-2.597 47.763,-3.573 -21.869,-1.636 23.086,-1.725 5.97,0.446 17.363,-1.299 25.796,1.93 11.59,-1.509 -30.062,-2.249 41.268,-3.084 9.023,0.674 -16.245,1.216 23.197,1.735 16.259,-1.216 10.643,0.795 15.156,-1.133 42.754,3.196 -15.148,1.133 48.041,3.591 z"
         style="fill:#deddde;fill-opacity:1;fill-rule:nonzero;stroke:none"
         id="path22" /></g><path
       id="path26"
       style="fill:#231f20;fill-opacity:1;fill-rule:nonzero;stroke:none;stroke-width:1.19106793"
       d="m 102.05986,790.2149 c -0.51335,-3.33499 0.26203,-7.55137 0.26203,-7.55137 0,0 -2.441684,1.7866 -5.109676,3.29926 -1.584121,0.8933 -2.930027,2.88238 -3.764966,4.3474 -0.570522,1.0124 -0.904021,1.76278 -0.904021,1.76278 -3.705412,-3.97817 -1.311365,-8.65907 -1.311365,-8.65907 -5.775489,1.26253 -9.385615,-0.2263 -9.385615,-0.2263 10.935194,-7.15832 5.122783,-7.74194 -1.191068,-10.73152 -6.300749,-2.98958 -6.764075,-6.70571 -6.764075,-6.70571 7.53946,2.47742 10.53976,-0.69082 10.53976,-0.69082 -4.06035,-3.88289 -0.439504,-9.94542 -0.439504,-9.94542 3.942435,-7.55137 13.709191,-10.76725 22.45163,-12.08934 8.65787,-1.32209 16.31763,-0.79802 16.31763,-0.79802 l -19.91585,-6.19355 -17.888645,-4.51415 c 0,0 -17.760014,1.90571 -24.285875,16.93699 -6.516332,15.04319 4.871468,26.8824 3.728043,27.6566 -1.083872,0.73846 -2.465511,-0.90522 -2.60963,-1.08388 4.956034,14.18562 19.880115,14.03078 20.475649,15.53153 0.607444,1.51266 -2.943129,1.60794 -2.943129,1.60794 15.092021,4.96675 22.738677,-1.95335 22.738677,-1.95335" /><g
       id="g28"
       transform="matrix(1.1910679,0,0,1.1910679,682.33278,749.66237)"><path
         d="m 0,0 v -38.142 c 14.567,0.085 16.462,0 18.946,3.228 v 37.5 C 14.287,0.112 9.473,0.037 0,0"
         style="fill:#ffffff;fill-opacity:1;fill-rule:nonzero;stroke:none"
         id="path30" /></g><g
       id="g32"
       transform="matrix(1.1910679,0,0,1.1910679,682.33278,749.66237)"><path
         d="m 0,0 v -38.142 c 14.567,0.085 16.462,0 18.946,3.228 v 37.5 C 14.287,0.112 9.473,0.037 0,0 Z"
         style="fill:none;stroke:#231f20;stroke-width:1.375;stroke-linecap:butt;stroke-linejoin:miter;stroke-miterlimit:10;stroke-dasharray:none;stroke-opacity:1"
         id="path34" /></g><g
       id="g36"
       transform="matrix(1.1910679,0,0,1.1910679,681.61218,746.28569)"><path
         d="M 0,0 C 16.235,0.054 17.687,1.176 19.157,2.303 M 0.603,-32.193 c 19.602,-2.231 17.932,3.579 18.804,3.754"
         style="fill:none;stroke:#231f20;stroke-width:0.75;stroke-linecap:butt;stroke-linejoin:miter;stroke-miterlimit:10;stroke-dasharray:none;stroke-opacity:1"
         id="path38" /></g><g
       id="g40"
       transform="matrix(1.1910679,0,0,1.1910679,233.74445,712.80382)"><path
         d="m 0,0 c -0.004,-0.014 -0.015,-0.023 -0.019,-0.036 -0.088,-0.307 -0.036,-0.636 0.143,-0.901 0.218,-0.324 5.426,-7.942 12.223,-7.942 1.513,0 2.994,0.383 4.469,1.177 0.591,0.375 1.159,0.755 1.649,1.098 3.578,2.192 7.058,5.399 8.319,6.604 z"
         style="fill:#ffffff;fill-opacity:1;fill-rule:nonzero;stroke:none"
         id="path42" /></g><g
       id="g44"
       transform="matrix(1.1910679,0,0,1.1910679,34.58241,741.66685)"><path
         d="m 0,0 v -37.5 l 35.5,4.639 V 4.64 Z"
         style="fill:#ffffff;fill-opacity:1;fill-rule:nonzero;stroke:none"
         id="path46" /></g><g
       id="g48"
       transform="matrix(1.1910679,0,0,1.1910679,34.58241,741.66685)"><path
         d="m 0,0 v -37.5 l 35.5,4.639 v 37.5 z"
         style="fill:none;stroke:#231f20;stroke-width:1.375;stroke-linecap:butt;stroke-linejoin:miter;stroke-miterlimit:10;stroke-dasharray:none;stroke-opacity:1"
         id="path50" /></g><g
       id="g52"
       transform="matrix(1.1910679,0,0,1.1910679,35.507036,700.31797)"><path
         d="M 0,0 34.724,4.925 M 0,32.207 34.724,36.625"
         style="fill:none;stroke:#231f20;stroke-width:0.75;stroke-linecap:butt;stroke-linejoin:miter;stroke-miterlimit:10;stroke-dasharray:none;stroke-opacity:1"
         id="path54" /></g><g
       id="g56"
       transform="matrix(1.1910679,0,0,1.1910679,76.865321,747.19186)"><path
         d="m 0,0 -24.219,3.583 v -37.5 L 0,-37.5 Z"
         style="fill:#c1c0c2;fill-opacity:1;fill-rule:nonzero;stroke:none"
         id="path58" /></g><g
       id="g60"
       transform="matrix(1.1910679,0,0,1.1910679,76.865321,747.19186)"><path
         d="m 0,0 -24.219,3.583 v -37.5 L 0,-37.5 Z"
         style="fill:none;stroke:#231f20;stroke-width:1.375;stroke-linecap:butt;stroke-linejoin:miter;stroke-miterlimit:10;stroke-dasharray:none;stroke-opacity:1"
         id="path62" /></g><g
       id="g64"
       transform="matrix(1.1910679,0,0,1.1910679,308.90953,706.79441)"><path
         d="M 0,0 C -61.753,-11.25 -157.286,11.25 -219.039,0 V 37.5 C -157.286,48.75 -61.753,26.25 0,37.5 Z"
         style="fill:#ffffff;fill-opacity:1;fill-rule:nonzero;stroke:none"
         id="path66" /></g><g
       id="g68"
       transform="matrix(1.1910679,0,0,1.1910679,308.90953,706.79441)"><path
         d="M 0,0 C -61.753,-11.25 -157.286,11.25 -219.039,0 V 37.5 C -157.286,48.75 -61.753,26.25 0,37.5 Z"
         style="fill:none;stroke:#231f20;stroke-width:1.375;stroke-linecap:butt;stroke-linejoin:miter;stroke-miterlimit:10;stroke-dasharray:none;stroke-opacity:1"
         id="path70" /></g><g
       id="g72"
       transform="matrix(1.1910679,0,0,1.1910679,309.95516,711.10964)"><path
         d="m 0,0 c 0,0 -20.500018,-8.6662053 -114.666,-0.333 -66.51002,5.8857947 -99.718,0.727 -104.856,-0.173 M -0.878,30.955 c 0,0 -19.872,-8.038 -114.038,0.295 -66.51,5.886 -99.718,0.726 -104.856,-0.173"
         style="fill:none;stroke:#231f20;stroke-width:0.75;stroke-linecap:butt;stroke-linejoin:miter;stroke-miterlimit:10;stroke-dasharray:none;stroke-opacity:1"
         id="path74" /></g><path
       d="M 682.66687,692.96801 H 308.7978 v 72.22874 h 373.86907 z"
       style="fill:#ffffff;fill-opacity:1;fill-rule:nonzero;stroke:none;stroke-width:1.19106793"
       id="path76" /><path
       d="M 682.66687,692.96801 H 308.7978 v 72.22874 h 373.86907 z"
       style="fill:none;stroke:#231f20;stroke-width:1.48883486;stroke-linecap:butt;stroke-linejoin:miter;stroke-miterlimit:10;stroke-dasharray:none;stroke-opacity:1"
       id="path78" /><g
       id="g80"
       transform="matrix(1.1910679,0,0,1.1910679,306.29882,772.71025)"><path
         d="m 0,0 -0.001,-73.258 c 1.048,2.516 2.098,3.565 2.098,3.565 l 10e-4,66.129 c 0,0 -1.05,1.046 -2.098,3.564"
         style="fill:#ffffff;fill-opacity:1;fill-rule:nonzero;stroke:none"
         id="path82" /></g><g
       id="g84"
       transform="matrix(1.1910679,0,0,1.1910679,306.29882,772.71025)"><path
         d="m 0,0 -0.001,-73.258 c 1.048,2.516 2.098,3.565 2.098,3.565 l 10e-4,66.129 c 0,0 -1.05,1.046 -2.098,3.564 z"
         style="fill:none;stroke:#231f20;stroke-width:1.25;stroke-linecap:butt;stroke-linejoin:miter;stroke-miterlimit:10;stroke-dasharray:none;stroke-opacity:1"
         id="path86" /></g><g
       id="g88"
       transform="matrix(1.1910679,0,0,1.1910679,308.79721,755.80149)"><path
         d="m 0,0 c 0,0 1.067,10.333 8.401,10.333 h 22 c 0,0 7.166,-2.445 20.5,-2.445 M -0.001,-44.866 c 0,0 1.067,-10.333 8.401,-10.333 h 22 c 0,0 7.166,2.445 20.5,2.445"
         style="fill:none;stroke:#231f20;stroke-width:1.25;stroke-linecap:butt;stroke-linejoin:miter;stroke-miterlimit:10;stroke-dasharray:none;stroke-opacity:1"
         id="path90" /></g><g
       id="g92"
       transform="matrix(1.1910679,0,0,1.1910679,685.1649,772.71025)"><path
         d="m 0,0 0.001,-73.258 c -1.048,2.516 -2.098,3.565 -2.098,3.565 l -10e-4,66.129 c 0,0 1.05,1.046 2.098,3.564"
         style="fill:#ffffff;fill-opacity:1;fill-rule:nonzero;stroke:none"
         id="path94" /></g><g
       id="g96"
       transform="matrix(1.1910679,0,0,1.1910679,685.1649,772.71025)"><path
         d="m 0,0 0.001,-73.258 c -1.048,2.516 -2.098,3.565 -2.098,3.565 l -10e-4,66.129 c 0,0 1.05,1.046 2.098,3.564 z"
         style="fill:none;stroke:#231f20;stroke-width:1.25;stroke-linecap:butt;stroke-linejoin:miter;stroke-miterlimit:10;stroke-dasharray:none;stroke-opacity:1"
         id="path98" /></g><g
       id="g100"
       transform="matrix(1.1910679,0,0,1.1910679,682.6664,755.80149)"><path
         d="m 0,0 c 0,0 -1.067,10.333 -8.401,10.333 h -22 c 0,0 -7.166,-2.445 -20.5,-2.445 M 0.001,-44.866 c 0,0 -1.067,-10.333 -8.401,-10.333 h -22 c 0,0 -7.166,2.445 -20.5,2.445"
         style="fill:none;stroke:#231f20;stroke-width:1.25;stroke-linecap:butt;stroke-linejoin:miter;stroke-miterlimit:10;stroke-dasharray:none;stroke-opacity:1"
         id="path102" /></g><path
       id="path106"
       style="fill:none;stroke:#231f20;stroke-width:0.89330095;stroke-linecap:butt;stroke-linejoin:miter;stroke-miterlimit:10;stroke-dasharray:none;stroke-opacity:1"
       d="m 656.58391,765.19507 c -6.19594,-1.0803 -13.65559,-2.29042 -20.49351,-2.29042 H 355.37356 c -6.83792,0 -14.29758,1.21012 -20.49352,2.29042 m 0,-72.22755 c 6.19594,1.08149 13.6556,2.29043 20.49352,2.29043 H 636.0904 c 6.83792,0 14.29757,-1.20894 20.49351,-2.29043" /><g
       id="g108"
       transform="matrix(1.1910679,0,0,1.1910679,117.13759,771.33635)"><path
         d="M 0,0 C 3.391,-1.37 4.29,-4.66 4.29,-4.66 1.441,-4.58 0.601,-2.38 0,0"
         style="fill:#ffffff;fill-opacity:1;fill-rule:nonzero;stroke:none"
         id="path110" /></g><g
       id="g112"
       transform="matrix(1.1910679,0,0,1.1910679,303.30889,700.80179)"><path
         d="m 0,0 c -0.64,3.468 -3.087,9.124 -7.827,12.106 -3.917,2.459 -7.339,1.927 -7.355,3.149 -0.029,1.554 4.362,1.073 4.362,1.073 -4.735,2.712 -11.527,-0.607 -12.498,0.946 -0.573,0.931 3.161,2.238 3.161,2.238 -5.776,0.212 -12.592,-2.765 -15.326,-5.466 6.89,2.313 16.593,0.983 21.05,-2.825 -1.887,1.06 -3.933,1.768 -6.033,2.188 -7.819,1.572 -16.523,-0.755 -21.763,-2.935 C -48.143,8.471 -52.654,5.513 -52.654,5.513 -56.558,3.244 -63.768,1.129 -68.657,3.198 l -0.001,-0.01 c 0,0 7.654,-12.749 17.059,-8.314 0.691,0.384 1.352,0.78 1.973,1.168 5.134,2.785 10.304,7.431 10.304,7.431 1.798,1.257 7.334,4.862 13.999,6.876 1.485,0.443 2.992,0.535 4.424,0.329 3.717,-0.505 6.957,-2.888 8.02,-5.737 C -10.009,5.441 -2.734,3.037 0,0"
         style="fill:#231f20;fill-opacity:1;fill-rule:nonzero;stroke:none"
         id="path114" /></g><g
       id="g116"
       transform="matrix(1.1910679,0,0,1.1910679,122.24739,765.78633)"><path
         d="M 0,0 C 0,0 -0.899,3.29 -4.29,4.66 -3.689,2.28 -2.85,0.08 0,0 m -10.92,-8.8 c -0.79,4.26 -6.67,4.99 -9.699,3.03 1.05,2.82 4,5.38 6.279,6.19 -1.3,0.5 -2.83,0.93 -4.479,1.29 1.939,1.48 6.71,2.6 9.13,2.39 -0.441,0.13 -0.92,0.23 -1.441,0.3 l 0.46,2.77 c -0.269,2.32 -2.37,4.98 -4.87,6.58 -1.239,3.55 -0.029,10.01 1.681,11.73 C -14.72,16.19 -1.6,10.45 0.95,3.6 -0.489,9.45 -6.56,13.31 -9.399,16.87 -10.3,19.21 -9.43,23.08 -8.34,24.39 -8.84,18.16 -2.26,13.08 1.23,9.48 5.351,5.25 6.44,1.58 5.771,-1.37 6.69,-1.65 7.94,-2.59 7.681,-4.11 c 1.359,0.27 2.79,1.78 3.149,2.73 0.53,-4.66 -2.35,-9.47 -5.439,-10.84 0,0 0.889,2.18 -0.46,3.92 -1.321,1.71 -5.21,1.85 -6.531,1.8 0,0 1.691,2.34 1.08,3.57 -0.74,1.53 -8.379,1.1 -11.83,-0.03 1.17,0.09 3.911,-0.3 4.85,-0.73 -0.56,-0.78 -2.06,-4.09 -1.079,-5.13 0.829,-0.89 2,0.43 2.149,0.6 -0.11,-0.32 -1.259,-3.66 -0.469,-4.5 0.82,-0.88 2.67,-0.33 2.67,-0.33 -1.231,-2.84 -5.72,-4.69 -8.821,-4.59 1.12,0.31 3.01,2.22 3.321,3.4 -0.831,-0.38 -2.951,-0.55 -3.76,-0.37 1.01,0.38 3.099,2.89 2.569,5.81"
         style="fill:#231f20;fill-opacity:1;fill-rule:nonzero;stroke:none"
         id="path118" /></g><g
       id="g120"
       transform="matrix(1.1910679,0,0,1.1910679,89.755891,776.10062)"><path
         d="M 0,0 C 0.51,1.8 -2.99,5.01 -4.311,5.63 0.63,5.68 3.06,4.68 3.06,4.68 1.83,6.61 1.5,9.53 2.31,11.81 4.8,5.28 14.39,3.94 16.609,-1.49 l -0.46,-2.77 C 12.359,-3.77 6.77,-4.9 3.95,-8.03 4.93,-8.06 7.46,-8.61 8.439,-8.96 4.17,-9.6 -1.71,-13.36 -3.471,-15.17 c 0.521,2.44 1.271,4.49 0.741,5.98 -0.75,2.1 -3.25,3.06 -8.3,2.17 C -7.54,-3.73 -0.53,-1.84 0,0"
         style="fill:#231f20;fill-opacity:1;fill-rule:nonzero;stroke:none"
         id="path122" /></g><g
       id="g124"
       transform="matrix(1.1910679,0,0,1.1910679,56.37002,756.42894)"><path
         d="M 0,0 1.019,-2.22 C -0.35,-2.45 -1.89,-7.86 -1.89,-7.86 -5.38,-5.84 -2.44,0.62 -2.44,0.62 Z"
         style="fill:#231f20;fill-opacity:1;fill-rule:nonzero;stroke:none"
         id="path126" /></g><g
       id="g128"
       transform="matrix(1.1910679,0,0,1.1910679,47.293844,757.52473)"><path
         d="M 0,0 C 0,0 1.82,1.31 2.78,1.55 L 4.37,0.14 3.55,-0.11 c 0,0 -1.529,-5 -0.91,-7.07 l 1,-2.9 c 0,0 -3.26,0.65 -3.76,1.9 0,0 -1.05,5.63 0.12,8.18"
         style="fill:#231f20;fill-opacity:1;fill-rule:nonzero;stroke:none"
         id="path130" /></g><g
       id="g132"
       transform="matrix(1.1910679,0,0,1.1910679,45.102398,755.00014)"><path
         d="m 0,0 c 0,0 0.21,-6.42 0.87,-6.99 l 2.42,-1.03 0.07,-2.19 c 0,0 -4.32,1.37 -4.68,3.02 -0.36,1.65 -0.64,5.75 -0.64,5.75 0,0 0.72,1.07 1.96,1.44"
         style="fill:#231f20;fill-opacity:1;fill-rule:nonzero;stroke:none"
         id="path134" /></g><g
       id="g136"
       transform="matrix(1.1910679,0,0,1.1910679,319.95335,735.8506)"><path
         d="M 0,0 H 298.08"
         style="fill:none;stroke:#b2b1b1;stroke-width:0.25;stroke-linecap:butt;stroke-linejoin:miter;stroke-miterlimit:4;stroke-dasharray:none;stroke-opacity:1"
         id="path138" /></g><g
       id="g140"
       transform="matrix(1.1910679,0,0,1.1910679,319.95335,711.1006)"><path
         d="M 0,0 H 298.08"
         style="fill:none;stroke:#b2b1b1;stroke-width:0.25;stroke-linecap:butt;stroke-linejoin:miter;stroke-miterlimit:4;stroke-dasharray:none;stroke-opacity:1"
         id="path142" /></g><flowRoot
       xml:space="preserve"
       id="flowRoot4550"
       style="fill:black;fill-opacity:1;stroke:none;font-family:sans-serif;font-style:normal;font-weight:normal;font-size:40px;line-height:1.25;letter-spacing:0px;word-spacing:0px"><flowRegion
         id="flowRegion4552"><rect
           id="rect4554"
           width="178.0387"
           height="41.970078"
           x="82"
           y="67.529922" /></flowRegion><flowPara
         id="flowPara4556" /></flowRoot><flowRoot
       xml:space="preserve"
       id="flowRoot4558"
       style="font-style:normal;font-weight:normal;font-size:40px;line-height:1.25;font-family:sans-serif;letter-spacing:0px;word-spacing:0px;fill:#000000;fill-opacity:1;stroke:none"
       transform="matrix(0.75000002,0,0,-0.75000002,8.5570997,797.20172)"><flowRegion
         id="flowRegion4560"><rect
           id="rect4562"
           width="154"
           height="43.5"
           x="83.5"
           y="65.5" /></flowRegion><flowPara
         id="flowPara4564">DD</flowPara></flowRoot><path
       id="path4683"
       style="font-style:normal;font-variant:normal;font-weight:normal;font-stretch:normal;font-size:medium;line-height:1.25;font-family:BlackCastleMF;-inkscape-font-specification:BlackCastleMF;letter-spacing:0px;word-spacing:0px;writing-mode:lr-tb;fill:#231f20;fill-opacity:1;stroke:none;stroke-width:0.82039559"
       d="m 135.36509,733.13721 q -1.69553,-5.09331 -3.87183,-7.38824 -3.08929,-3.28833 -8.45975,-2.93946 -1.32471,0.086 -3.86929,0.64236 -2.50622,0.5839 -3.75933,0.66531 -0.64445,0.0419 -1.77481,-0.54641 -1.13291,-0.6182 -1.70575,-0.58098 -0.35803,0.0233 -0.82604,0.44467 -0.43474,0.38918 -0.41173,0.65838 0.0997,1.16655 1.74667,1.90174 1.83619,0.84322 2.14563,1.5149 0.93854,2.13471 1.58042,9.64254 0.19692,2.3032 0.0998,2.85092 -0.23783,1.4291 -1.71599,2.247 -0.68793,0.37554 -0.63935,0.94386 0.12272,1.43577 1.76969,1.32878 0.60866,-0.0395 1.49096,-0.66834 0.88484,-0.59888 1.45769,-0.63609 0.89507,-0.0581 3.83861,0.26195 2.94352,0.32011 4.44724,0.22242 2.47041,-0.16048 4.88968,-2.60355 2.28885,-2.28422 2.60853,-4.44051 0.34014,-2.33809 0.95902,-3.52125 z m -7.42147,-0.90146 q 0.79021,9.24271 -3.68518,9.53344 -1.96917,0.12788 -2.48319,-5.88433 -0.33244,-3.88852 -0.28641,-5.45555 0.0793,-3.28364 1.20709,-5.2518 0.59587,-0.1891 1.0613,-0.21934 1.93338,-0.12556 3.16346,2.89251 0.82091,2.02205 1.02293,4.38507 z" /><path
       id="path4685"
       style="font-style:normal;font-variant:normal;font-weight:normal;font-stretch:normal;font-size:medium;line-height:1.25;font-family:BlackCastleMF;-inkscape-font-specification:BlackCastleMF;letter-spacing:0px;word-spacing:0px;writing-mode:lr-tb;fill:#231f20;fill-opacity:1;stroke:none;stroke-width:0.82039559"
       d="m 159.53883,731.22372 q -1.79696,-5.06847 -4.01893,-7.33253 -3.1547,-3.24454 -8.51803,-2.82098 -1.32295,0.1045 -3.85636,0.69608 -2.4945,0.61865 -3.74594,0.71747 -0.6436,0.0508 -1.78564,-0.52158 -1.14518,-0.60226 -1.71727,-0.55709 -0.35756,0.0283 -0.81714,0.45607 -0.42698,0.39513 -0.39861,0.66395 0.12301,1.16488 1.78451,1.87697 1.85293,0.81744 2.17574,1.48466 0.98105,2.12112 1.77251,9.61819 0.2428,2.29989 0.1566,2.84883 -0.20936,1.43207 -1.67116,2.27034 -0.68043,0.38503 -0.62052,0.95253 0.15135,1.43371 1.79611,1.30381 0.60785,-0.048 1.47757,-0.68892 0.8729,-0.61105 1.44499,-0.65624 0.89388,-0.0706 3.84369,0.20846 2.9498,0.27906 4.45153,0.16046 2.46713,-0.19484 4.83763,-2.671 2.24325,-2.31552 2.51996,-4.47574 0.29352,-2.34225 0.88882,-3.53374 z m -7.43918,-0.79793 q 0.97435,9.22946 -3.49509,9.58243 -1.96655,0.15531 -2.60035,-5.84833 -0.40992,-3.88295 -0.39512,-5.45023 0.0139,-3.28394 1.10241,-5.26733 0.59207,-0.19735 1.05689,-0.23406 1.9308,-0.15248 3.22098,2.84777 0.86118,2.01012 1.11028,4.36975 z" /><path
       id="path4687"
       style="font-style:normal;font-variant:normal;font-weight:normal;font-stretch:normal;font-size:medium;line-height:1.25;font-family:BlackCastleMF;-inkscape-font-specification:BlackCastleMF;letter-spacing:0px;word-spacing:0px;writing-mode:lr-tb;fill:#231f20;fill-opacity:1;stroke:none;stroke-width:0.82039559"
       d="m 183.44817,716.84241 q -0.16335,-1.37244 -1.76649,-2.10512 -1.41745,-0.68879 -3.13192,-0.53731 -2.71458,0.23986 -4.08734,2.04951 -1.31906,1.65416 -1.05274,3.89183 0.0639,0.53703 0.23499,1.06461 -0.47186,0.58437 -0.38308,1.33027 0.0603,0.5072 0.49191,1.40369 0.43509,0.92633 0.49191,1.4037 0.14204,1.19343 -0.64418,1.86588 -0.32522,0.30008 -1.73286,0.90684 -1.19687,0.55799 -1.66162,1.20204 l -0.44261,-0.38298 -0.0677,-0.26537 q -0.0746,-0.62654 -0.0201,-1.98807 0.058,-1.33171 -0.0593,-2.01476 0.22161,-0.26078 0.28992,-0.89995 0.11133,-0.88417 0.1364,-0.97683 0.22203,-0.8638 1.57243,-1.34491 1.21107,-0.43864 1.13651,-1.06519 -0.0816,-0.68621 -1.30299,-0.9401 -0.92847,-0.21946 -2.03573,-0.12162 -1.10726,0.0978 -3.20419,0.67506 -2.09339,0.60704 -3.23636,0.70804 -0.5715,0.0505 -1.60336,-0.43118 -1.03186,-0.48166 -1.63907,-0.42801 -0.35718,0.0315 -0.75029,0.36778 -0.36093,0.30324 -0.32899,0.57176 0.13855,1.16359 1.02748,1.65787 0.004,0.0298 1.73892,0.6604 1.05692,0.389 1.47426,1.16615 0.83823,1.58415 1.43124,6.56668 0.15624,1.31276 0.33694,3.4374 0.21639,2.12148 0.28741,2.71819 0.0746,0.62654 -0.94768,1.74194 -0.98299,1.14208 -0.92616,1.61944 0.0355,0.29836 0.54956,0.67503 0.54977,0.37352 0.87122,0.34511 0.5715,-0.0505 1.06111,-0.48569 0.49316,-0.40537 0.91843,-0.77459 0.93223,-0.0522 3.46091,-0.0344 2.16796,0.0195 3.41809,-0.091 3.50039,-0.30929 5.24077,-1.75947 1.2472,-1.04483 2.79583,-4.10614 -1.14403,-3.54699 -4.46081,-5.33422 0.0253,-0.39418 1.06861,-1.02905 1.24701,-0.74332 1.73682,-1.48003 0.85807,-1.28179 0.60951,-3.37027 -0.1136,-0.95474 -0.70162,-2.86249 -0.588,-1.90775 -0.70164,-2.86249 -0.0888,-0.74589 0.51844,-0.79953 0.14287,-0.0126 0.25358,0.008 l -0.004,0.27168 q 0.007,0.66269 0.72063,1.2026 0.74967,0.53674 1.57119,0.46416 1.60732,-0.14202 1.44753,-1.48461 z m -8.68661,16.17379 q 0.28408,2.38685 -0.0631,3.41244 -0.12888,0.43348 -0.7292,0.84832 -0.60032,0.41483 -1.13608,0.46217 -0.7858,0.0694 -1.1927,-0.31671 -0.24627,-0.24959 -0.64523,-1.7821 -0.29557,-1.2703 -0.37368,-1.92668 -0.14914,-1.2531 0.0268,-2.50476 0.43927,0.0516 0.86789,0.0138 1.53587,-0.13571 1.75437,-1.02934 1.25306,0.82391 1.49097,2.82289 z" /><path
       id="path4689"
       style="font-style:normal;font-variant:normal;font-weight:normal;font-stretch:normal;font-size:medium;line-height:1.25;font-family:BlackCastleMF;-inkscape-font-specification:BlackCastleMF;letter-spacing:0px;word-spacing:0px;writing-mode:lr-tb;fill:#231f20;fill-opacity:1;stroke:none;stroke-width:0.82039559"
       d="m 194.44969,720.77381 q -0.65261,-0.36938 -2.23796,-0.69412 -1.6958,-0.34601 -2.30627,-0.65853 -1.0683,-0.54692 -1.18684,-1.65192 -0.65633,-0.0679 -1.01384,-0.0392 -1.21554,0.0974 -2.92992,1.259 -1.88352,1.26549 -2.83278,1.49219 -0.18567,0.28598 -0.15364,0.58463 0.0353,0.32851 0.46323,0.95688 0.46374,0.6255 0.50219,0.98387 l 0.40585,4.45559 q 0.0673,0.62716 -0.0906,1.84467 -0.11892,1.24453 -0.0613,1.78209 0.0929,0.86608 1.5678,1.16955 1.21503,0.23394 2.42684,0.43802 0.7113,0.24419 1.31114,1.12988 0.51231,0.74209 1.26308,0.68191 0.57201,-0.0459 2.48808,-1.34407 1.91928,-1.26835 2.97899,-1.47378 0.24757,-0.3813 0.1899,-0.91887 -0.0416,-0.38824 -0.33624,-1.11767 -0.25885,-0.73228 -0.3005,-1.12052 -0.44531,-4.15122 -0.41968,-3.9123 -0.19441,-2.4845 0.2724,-3.84728 z m -5.06164,1.21904 q -0.1899,0.91886 -0.0361,2.35238 0.0673,0.62716 0.26693,1.81601 0.20285,1.21873 0.26692,1.81602 0.11207,1.04528 0.007,2.07787 -0.58586,0.58915 -1.51538,0.66366 -0.32241,-1.66096 -0.41852,-2.5569 -0.0513,-0.47784 -0.008,-1.41512 0.0469,-0.9074 -10e-4,-1.35537 -0.0416,-0.38825 -0.3069,-1.18027 -0.2263,-0.76501 -0.27115,-1.18312 -0.048,-0.44797 0.0597,-0.78795 0.93646,-0.34616 1.25821,-0.37195 0.35751,-0.0286 0.6985,0.12474 z" /><path
       id="path4691"
       style="font-style:normal;font-variant:normal;font-weight:normal;font-stretch:normal;font-size:medium;line-height:1.25;font-family:BlackCastleMF;-inkscape-font-specification:BlackCastleMF;letter-spacing:0px;word-spacing:0px;writing-mode:lr-tb;fill:#231f20;fill-opacity:1;stroke:none;stroke-width:0.82039559"
       d="m 205.25965,738.5438 q -0.0897,-0.5654 -1.15118,-1.12147 -1.06147,-0.55608 -1.18411,-1.08902 -0.67165,-2.90132 -1.32705,-9.8065 -0.35182,-3.70669 -0.24951,-4.52658 0.0376,-0.36383 0.69924,-0.98298 0.69752,-0.62172 0.66347,-0.98043 -0.0397,-0.4185 -1.06258,-0.94724 -0.98707,-0.53129 -1.06257,-0.94723 0.0602,-0.12469 0.0347,-0.39372 l -0.0625,-0.65764 q -0.43048,-0.36045 -0.96722,-0.32205 -0.3936,0.0282 -2.49291,1.44234 -2.06354,1.41163 -2.27713,1.81816 0.10282,0.3237 0.63776,0.64657 0.57362,0.35021 0.66788,0.58423 0.52695,1.3768 0.94292,5.37985 -0.52378,-5.13898 0.50329,5.68214 0.33479,3.52732 -0.50428,5.69404 l -0.0159,0.21181 q 0.0198,0.20924 0.22998,0.52526 0.2459,0.31346 0.49637,0.29554 2.11114,-0.15101 3.05235,-1.2416 0.50946,0.0538 1.26593,0.8123 0.79224,0.75591 1.79414,0.68425 0.75142,-0.0537 1.36886,-0.76003 z" /><path
       id="path4693"
       style="font-style:normal;font-variant:normal;font-weight:normal;font-stretch:normal;font-size:medium;line-height:1.25;font-family:BlackCastleMF;-inkscape-font-specification:BlackCastleMF;letter-spacing:0px;word-spacing:0px;writing-mode:lr-tb;fill:#231f20;fill-opacity:1;stroke:none;stroke-width:0.82039559"
       d="m 213.90306,737.88725 q -0.0837,-0.56606 -1.13935,-1.12989 -1.05556,-0.56382 -1.17262,-1.09768 -0.64128,-2.90626 -1.22451,-9.81634 -0.31307,-3.70931 -0.20221,-4.52847 0.0413,-0.36357 0.70945,-0.9779 0.70394,-0.61664 0.67364,-0.97561 -0.0353,-0.41879 -1.05258,-0.955 -0.98144,-0.53851 -1.05259,-0.955 0.0615,-0.12425 0.0388,-0.39348 l -0.0555,-0.65811 q -0.42668,-0.36359 -0.96376,-0.32911 -0.39387,0.0253 -2.50776,1.42418 -2.07809,1.3966 -2.2959,1.80157 0.0994,0.32445 0.63096,0.65124 0.56989,0.35439 0.66171,0.58911 0.51251,1.38066 0.88665,5.38681 -0.47008,-5.14287 0.44389,5.68592 0.29792,3.52983 -0.5637,5.69046 l -0.0181,0.21168 q 0.0177,0.2094 0.22448,0.52696 0.2426,0.31526 0.49324,0.29917 2.11252,-0.13558 3.06503,-1.21935 0.50885,0.0575 1.25733,0.82156 0.78426,0.7617 1.78682,0.69733 0.75192,-0.0482 1.37667,-0.75005 z" /><path
       id="path4695"
       style="font-style:normal;font-variant:normal;font-weight:normal;font-stretch:normal;font-size:medium;line-height:1.25;font-family:BlackCastleMF;-inkscape-font-specification:BlackCastleMF;letter-spacing:0px;word-spacing:0px;writing-mode:lr-tb;fill:#231f20;fill-opacity:1;stroke:none;stroke-width:0.82039559"
       d="m 225.37321,725.777 q -0.015,-0.72047 -1.86418,-1.43049 -2.92424,-1.16193 -3.41344,-1.46569 -1.91033,-1.06729 -2.02303,-2.65398 0.58573,-0.36273 1.65642,-0.48159 1.7873,-0.15817 1.7873,-0.15817 0.22776,0.16783 0.44976,1.26765 0.13546,0.89419 0.92375,0.85094 1.36371,-0.0448 1.30385,-1.39392 -0.10025,-1.91796 -3.14295,-3.7346 l -0.0144,-0.20957 q -0.0766,-1.07774 -1.04614,-1.0546 -0.89578,0.0491 -4.18098,1.40151 -3.24724,1.38034 -3.21746,1.79947 0.0233,0.32931 0.44944,0.75674 0.42816,0.45738 0.48312,0.72485 0.14791,0.56291 0.26307,2.69044 0.0957,1.34719 0.18926,2.66444 0.12122,1.70643 -0.0995,2.65022 -0.023,0.18159 -0.32429,0.49867 -0.26325,0.34503 -0.24412,0.61447 0.011,0.14968 0.0865,0.20563 0.46188,0.42547 2.02601,0.67024 2.22186,0.38902 2.99346,0.61717 1.72873,0.53629 2.67161,1.65666 0.85995,-0.0472 2.62864,-2.99937 1.67184,-2.79661 1.65875,-3.48713 z m -5.20435,-0.34559 q 0.0362,0.50894 -0.26262,1.36684 -0.39775,0.98356 -0.91395,1.31243 l -0.18501,-2.60456 q -0.0404,-0.56882 0.36617,-0.92172 0.7801,0.3479 0.99541,0.84701 z" /><path
       id="path4697"
       style="font-style:normal;font-variant:normal;font-weight:normal;font-stretch:normal;font-size:medium;line-height:1.25;font-family:BlackCastleMF;-inkscape-font-specification:BlackCastleMF;letter-spacing:0px;word-spacing:0px;writing-mode:lr-tb;fill:#231f20;fill-opacity:1;stroke:none;stroke-width:0.82039559"
       d="m 238.17422,728.55247 q -0.0328,-0.59923 -1.15946,-1.48118 -1.08912,-0.85356 -1.14332,-1.84228 -0.0295,-0.5393 -0.9977,-0.49715 -1.14741,0.0499 -1.38499,0.9613 -0.20008,0.93973 -0.70207,0.9616 -0.53786,0.0234 -0.6052,-1.20499 -0.023,-0.41947 0.0386,-1.26307 0.0991,-0.81521 0.0777,-1.2047 -0.17243,-3.14593 -0.88986,-3.77542 0.22636,-0.46035 1.71756,-0.79558 1.34942,-0.29903 1.31163,-0.98813 -0.0411,-0.74904 -0.95554,-1.03958 -1.20626,-0.36793 -1.35626,-0.48153 -0.11254,-0.0851 -0.34927,-1.12604 -0.22362,-0.80114 -0.9049,-0.77147 -0.64542,0.0281 -2.66762,1.16731 -1.39485,0.78154 -2.75385,1.5615 -0.0635,0.15293 -0.052,0.36266 0.0143,0.26966 0.46478,0.61045 0.45163,0.37076 0.52991,0.48748 0.51049,0.78865 0.68786,4.02448 0.18067,3.29574 -1e-5,3.9343 -0.0586,0.24281 -0.82278,0.72658 -0.76257,0.51374 -0.74287,0.87328 0.0143,0.26965 0.42728,0.58204 0.44835,0.31084 1.02754,1.69717 0.45354,1.06142 1.17068,1.03019 2.65339,-0.11552 4.05261,-2.12861 0.68457,0.0303 1.12498,0.852 0.44206,0.8517 0.94404,0.82984 0.68129,-0.0297 2.29292,-0.79061 1.64749,-0.7625 1.61957,-1.27184 z" /><path
       style="fill:none;stroke:none;stroke-width:0.89330095;stroke-linecap:butt;stroke-linejoin:miter;stroke-miterlimit:10;stroke-dasharray:none;stroke-opacity:1"
       d="m 114.38584,737.85905 c 14.74291,0.69458 31.93338,1.84457 51.93929,3.61494 22.73418,2.01193 42.20159,2.9403 58.54952,3.21603"
       id="path4673" /></g></svg>