<?xml version="1.0" encoding="UTF-8" standalone="no"?>
<svg
   xmlns:dc="http://purl.org/dc/elements/1.1/"
   xmlns:cc="http://creativecommons.org/ns#"
   xmlns:rdf="http://www.w3.org/1999/02/22-rdf-syntax-ns#"
   xmlns:svg="http://www.w3.org/2000/svg"
   xmlns="http://www.w3.org/2000/svg"
   xmlns:sodipodi="http://sodipodi.sourceforge.net/DTD/sodipodi-0.dtd"
   xmlns:inkscape="http://www.inkscape.org/namespaces/inkscape"
   viewBox="0 0 568 160"
   height="160"
   width="568"
   xml:space="preserve"
   id="svg2"
   version="1.1"
   sodipodi:docname="header-mid.svg"
   inkscape:version="0.92.1 r15371"><sodipodi:namedview
     pagecolor="#ffffff"
     bordercolor="#666666"
     borderopacity="1"
     objecttolerance="10"
     gridtolerance="10"
     guidetolerance="10"
     inkscape:pageopacity="0"
     inkscape:pageshadow="2"
     inkscape:window-width="1474"
     inkscape:window-height="777"
     id="namedview46"
     showgrid="false"
     inkscape:zoom="1.4291524"
     inkscape:cx="276.62679"
     inkscape:cy="89.893356"
     inkscape:window-x="0"
     inkscape:window-y="0"
     inkscape:window-maximized="0"
     inkscape:current-layer="svg2" /><metadata
     id="metadata8"><rdf:RDF><cc:Work
         rdf:about=""><dc:format>image/svg+xml</dc:format><dc:type
           rdf:resource="http://purl.org/dc/dcmitype/StillImage" /><dc:title></dc:title></cc:Work></rdf:RDF></metadata><defs
     id="defs6"><clipPath
       id="clipPath176"
       clipPathUnits="userSpaceOnUse"><path
         id="path174"
         d="m 111.56,748.005 h 144 v 15.484 h -144 z" /></clipPath></defs><g
     transform="matrix(-1.5880905,0,0,1.5880905,31.8523,123.93423)"
     id="g8617"><path
       id="path8615"
       style="fill:#ffffff;fill-opacity:1;fill-rule:nonzero;stroke:none"
       d="m 0,0 v -38.142 c 14.567,0.085 16.462,0 18.946,3.228 v 37.5 C 14.287,0.112 9.473,0.037 0,0"
       inkscape:connector-curvature="0" /></g><g
     id="g28"
     transform="matrix(1.5880905,0,0,-1.5880905,533.36755,63.385798)"><path
       d="m 0,0 v -38.142 c 14.567,0.085 16.462,0 18.946,3.228 v 37.5 C 14.287,0.112 9.473,0.037 0,0"
       style="fill:#ffffff;fill-opacity:1;fill-rule:nonzero;stroke:none"
       id="path30"
       inkscape:connector-curvature="0" /></g><g
     id="g32"
     transform="matrix(1.5880905,0,0,-1.5880905,533.36755,63.385798)"><path
       d="m 0,0 v -38.142 c 14.567,0.085 16.462,0 18.946,3.228 v 37.5 C 14.287,0.112 9.473,0.037 0,0 Z"
       style="fill:none;stroke:#231f20;stroke-width:1.375;stroke-linecap:butt;stroke-linejoin:miter;stroke-miterlimit:10;stroke-dasharray:none;stroke-opacity:1"
       id="path34"
       inkscape:connector-curvature="0" /></g><g
     id="g36"
     transform="matrix(1.5880905,0,0,-1.5880905,532.40675,67.888038)"><path
       d="M 0,0 C 16.235,0.054 17.687,1.176 19.157,2.303 M 0.603,-32.193 c 19.602,-2.231 17.932,3.579 18.804,3.754"
       style="fill:none;stroke:#231f20;stroke-width:0.75;stroke-linecap:butt;stroke-linejoin:miter;stroke-miterlimit:10;stroke-dasharray:none;stroke-opacity:1"
       id="path38"
       inkscape:connector-curvature="0" /></g><path
     d="M 533.813,138.97828 H 35.32092 V 42.673292 H 533.813 Z"
     style="fill:#ffffff;fill-opacity:1;fill-rule:nonzero;stroke:none;stroke-width:1.58809054"
     id="path76"
     inkscape:connector-curvature="0" /><path
     d="M 533.813,138.97828 H 35.32092 V 42.673292 H 533.813 Z"
     style="fill:none;stroke:#231f20;stroke-width:1.98511314;stroke-linecap:butt;stroke-linejoin:miter;stroke-miterlimit:10;stroke-dasharray:none;stroke-opacity:1"
     id="path78"
     inkscape:connector-curvature="0" /><g
     id="g80"
     transform="matrix(1.5880905,0,0,-1.5880905,31.98895,32.655292)"><path
       d="m 0,0 -0.001,-73.258 c 1.048,2.516 2.098,3.565 2.098,3.565 l 10e-4,66.129 c 0,0 -1.05,1.046 -2.098,3.564"
       style="fill:#ffffff;fill-opacity:1;fill-rule:nonzero;stroke:none"
       id="path82"
       inkscape:connector-curvature="0" /></g><g
     id="g84"
     transform="matrix(1.5880905,0,0,-1.5880905,31.98895,32.655292)"><path
       d="m 0,0 -0.001,-73.258 c 1.048,2.516 2.098,3.565 2.098,3.565 l 10e-4,66.129 c 0,0 -1.05,1.046 -2.098,3.564 z"
       style="fill:none;stroke:#231f20;stroke-width:1.25;stroke-linecap:butt;stroke-linejoin:miter;stroke-miterlimit:10;stroke-dasharray:none;stroke-opacity:1"
       id="path86"
       inkscape:connector-curvature="0" /></g><g
     id="g88"
     transform="matrix(1.5880905,0,0,-1.5880905,35.32014,55.200305)"><path
       d="m 0,0 c 0,0 1.067,10.333 8.401,10.333 h 22 c 0,0 7.166,-2.445 20.5,-2.445 M -0.001,-44.866 c 0,0 1.067,-10.333 8.401,-10.333 h 22 c 0,0 7.166,2.445 20.5,2.445"
       style="fill:none;stroke:#231f20;stroke-width:1.25;stroke-linecap:butt;stroke-linejoin:miter;stroke-miterlimit:10;stroke-dasharray:none;stroke-opacity:1"
       id="path90"
       inkscape:connector-curvature="0" /></g><g
     id="g92"
     transform="matrix(1.5880905,0,0,-1.5880905,537.14371,32.655292)"><path
       d="m 0,0 0.001,-73.258 c -1.048,2.516 -2.098,3.565 -2.098,3.565 l -10e-4,66.129 c 0,0 1.05,1.046 2.098,3.564"
       style="fill:#ffffff;fill-opacity:1;fill-rule:nonzero;stroke:none"
       id="path94"
       inkscape:connector-curvature="0" /></g><g
     id="g96"
     transform="matrix(1.5880905,0,0,-1.5880905,537.14371,32.655292)"><path
       d="m 0,0 0.001,-73.258 c -1.048,2.516 -2.098,3.565 -2.098,3.565 l -10e-4,66.129 c 0,0 1.05,1.046 2.098,3.564 z"
       style="fill:none;stroke:#231f20;stroke-width:1.25;stroke-linecap:butt;stroke-linejoin:miter;stroke-miterlimit:10;stroke-dasharray:none;stroke-opacity:1"
       id="path98"
       inkscape:connector-curvature="0" /></g><g
     id="g100"
     transform="matrix(1.5880905,0,0,-1.5880905,533.81238,55.200305)"><path
       d="m 0,0 c 0,0 -1.067,10.333 -8.401,10.333 h -22 c 0,0 -7.166,-2.445 -20.5,-2.445 M 0.001,-44.866 c 0,0 -1.067,-10.333 -8.401,-10.333 h -22 c 0,0 -7.166,2.445 -20.5,2.445"
       style="fill:none;stroke:#231f20;stroke-width:1.25;stroke-linecap:butt;stroke-linejoin:miter;stroke-miterlimit:10;stroke-dasharray:none;stroke-opacity:1"
       id="path102"
       inkscape:connector-curvature="0" /></g><path
     id="path106"
     style="fill:none;stroke:#231f20;stroke-width:1.19106793;stroke-linecap:butt;stroke-linejoin:miter;stroke-miterlimit:10;stroke-dasharray:none;stroke-opacity:1"
     d="m 499.03573,42.675532 c -8.26126,1.4404 -18.20746,3.053893 -27.32468,3.053893 H 97.42194 c -9.11723,0 -19.06344,-1.613493 -27.3247,-3.053893 m 0,96.303398 c 8.26126,-1.44199 18.20747,-3.05391 27.3247,-3.05391 h 374.28911 c 9.11722,0 19.06342,1.61192 27.32468,3.05391"
     inkscape:connector-curvature="0" /><g
     id="g136"
     transform="matrix(1.5880905,0,0,-1.5880905,50.19499,81.801491)"><path
       d="M 0,0 H 298.08"
       style="fill:none;stroke:#b2b1b1;stroke-width:0.25;stroke-linecap:butt;stroke-linejoin:miter;stroke-miterlimit:4;stroke-dasharray:none;stroke-opacity:1"
       id="path138"
       inkscape:connector-curvature="0" /></g><g
     id="g140"
     transform="matrix(1.5880905,0,0,-1.5880905,50.19499,114.80149)"><path
       d="M 0,0 H 298.08"
       style="fill:none;stroke:#b2b1b1;stroke-width:0.25;stroke-linecap:butt;stroke-linejoin:miter;stroke-miterlimit:4;stroke-dasharray:none;stroke-opacity:1"
       id="path142"
       inkscape:connector-curvature="0" /></g><flowRoot
     transform="matrix(1.3333333,0,0,-1.3333333,-11.409466,1062.9356)"
     xml:space="preserve"
     id="flowRoot4550"
     style="font-style:normal;font-weight:normal;font-size:40px;line-height:1.25;font-family:sans-serif;letter-spacing:0px;word-spacing:0px;fill:#000000;fill-opacity:1;stroke:none"><flowRegion
       id="flowRegion4552"><rect
         id="rect4554"
         width="178.0387"
         height="41.970078"
         x="82"
         y="67.529922" /></flowRegion><flowPara
       id="flowPara4556" /></flowRoot><flowRoot
     xml:space="preserve"
     id="flowRoot4558"
     style="font-style:normal;font-weight:normal;font-size:40px;line-height:1.25;font-family:sans-serif;letter-spacing:0px;word-spacing:0px;fill:#000000;fill-opacity:1;stroke:none"><flowRegion
       id="flowRegion4560"><rect
         id="rect4562"
         width="154"
         height="43.5"
         x="83.5"
         y="65.5" /></flowRegion><flowPara
       id="flowPara4564">DD</flowPara></flowRoot><g
     id="g8609"
     transform="matrix(-1.5880905,0,0,1.5880905,31.8523,123.93423)"><path
       d="m 0,0 v -38.142 c 14.567,0.085 16.462,0 18.946,3.228 v 37.5 C 14.287,0.112 9.473,0.037 0,0 Z"
       style="fill:none;stroke:#231f20;stroke-width:1.375;stroke-linecap:butt;stroke-linejoin:miter;stroke-miterlimit:10;stroke-dasharray:none;stroke-opacity:1"
       id="path8607"
       inkscape:connector-curvature="0" /></g><g
     id="g8613"
     transform="matrix(-1.5880905,0,0,1.5880905,32.8131,119.43199)"><path
       d="M 0,0 C 16.235,0.054 17.687,1.176 19.157,2.303 M 0.603,-32.193 c 19.602,-2.231 17.932,3.579 18.804,3.754"
       style="fill:none;stroke:#231f20;stroke-width:0.75;stroke-linecap:butt;stroke-linejoin:miter;stroke-miterlimit:10;stroke-dasharray:none;stroke-opacity:1"
       id="path8611"
       inkscape:connector-curvature="0" /></g></svg>