<?xml version="1.0" encoding="UTF-8" standalone="no"?>
<!-- Created with Inkscape (http://www.inkscape.org/) -->

<svg
   xmlns:dc="http://purl.org/dc/elements/1.1/"
   xmlns:cc="http://creativecommons.org/ns#"
   xmlns:rdf="http://www.w3.org/1999/02/22-rdf-syntax-ns#"
   xmlns:svg="http://www.w3.org/2000/svg"
   xmlns="http://www.w3.org/2000/svg"
   xmlns:sodipodi="http://sodipodi.sourceforge.net/DTD/sodipodi-0.dtd"
   xmlns:inkscape="http://www.inkscape.org/namespaces/inkscape"
   version="1.1"
   id="svg2"
   xml:space="preserve"
   width="960"
   height="160"
   viewBox="0 0 960 160"
   sodipodi:docname="header.svg"
   inkscape:version="0.92.1 r15371"><metadata
     id="metadata8"><rdf:RDF><cc:Work
         rdf:about=""><dc:format>image/svg+xml</dc:format><dc:type
           rdf:resource="http://purl.org/dc/dcmitype/StillImage" /><dc:title /></cc:Work></rdf:RDF></metadata><defs
     id="defs6"><inkscape:path-effect
       effect="mirror_symmetry"
       start_point="368.55711,797.20172"
       end_point="368.55711,677.20172"
       center_point="368.55711,737.20172"
       id="path-effect4652"
       is_visible="true"
       mode="vertical"
       discard_orig_path="false"
       fuse_paths="false"
       oposite_fuse="false" /><inkscape:path-effect
       effect="clone_original"
       id="path-effect4640"
       is_visible="true"
       linkedpath="m 398.69207,74.772131 c 0,0 -21.30426,8.617329 -111.85026,4.351427" /><clipPath
       clipPathUnits="userSpaceOnUse"
       id="clipPath176"><path
         d="m 111.56,748.005 h 144 v 15.484 h -144 z"
         id="path174"
         inkscape:connector-curvature="0" /></clipPath></defs><sodipodi:namedview
     pagecolor="#ffffff"
     bordercolor="#666666"
     borderopacity="1"
     objecttolerance="10"
     gridtolerance="10"
     guidetolerance="10"
     inkscape:pageopacity="0"
     inkscape:pageshadow="2"
     inkscape:window-width="1735"
     inkscape:window-height="933"
     id="namedview4"
     showgrid="false"
     inkscape:zoom="1"
     inkscape:cx="400.277"
     inkscape:cy="63.20891"
     inkscape:window-x="57"
     inkscape:window-y="64"
     inkscape:window-maximized="0"
     inkscape:current-layer="g10"
     inkscape:measure-start="812,-17.5"
     inkscape:measure-end="784,57"
     showguides="false" /><g
     id="g10"
     inkscape:groupmode="layer"
     inkscape:label="A9R1g1jjty_mvcjd7_lh8"
     transform="matrix(1.3333333,0,0,-1.3333333,-11.409466,1062.9356)"><g
       id="g12"
       transform="matrix(1.1910679,0,0,1.1910679,108.94745,746.1243)"><path
         d="M 0,0 23.255,-1.74 0,-3.479 -23.252,-1.74 Z m 139.199,-6.519 23.254,-1.739 23.256,1.739 -23.256,1.74 z m 114.293,16.991 22.286,1.666 -27.48,2.055 42.048,3.143 -37.447,2.801 51.877,3.877 -88.338,6.608 23.736,1.773 -43.337,3.242 -38.505,-2.88 -17.318,2.255 42.488,3.174 -34.049,2.547 -23.73,-1.773 -27.549,2.06 -25.751,-1.927 26.164,-1.958 -28.828,-2.156 -28.823,2.156 16.707,1.25 -19.96,1.493 -63.818,-4.771 22.614,-1.691 -71.71,-5.36 42.231,-3.158 -22.286,-1.666 27.478,-2.055 -42.046,-3.142 37.445,-2.802 -51.877,-3.877 71.294,-5.333 -32.644,-2.442 34.46,-2.575 8.912,0.666 25.916,-1.939 38.506,2.88 17.299,-2.252 -44.872,-3.356 61.598,-4.604 13.469,1.006 -24.247,1.814 34.625,2.59 24.268,-1.815 15.887,1.188 22.622,-1.691 63.818,4.77 -22.612,1.691 71.709,5.359 z"
         style="fill:#deddde;fill-opacity:1;fill-rule:nonzero;stroke:none"
         id="path14"
         inkscape:connector-curvature="0" /></g><g
       id="g16"
       transform="matrix(1.1910679,0,0,1.1910679,226.53348,686.25837)"><path
         d="M 0,0 18.891,-1.413 0,-2.826 -18.888,-1.413 Z m 113.072,-5.295 18.89,-1.413 18.891,1.413 -18.891,1.413 z m 92.841,13.801 18.103,1.354 -22.322,1.669 34.156,2.553 -30.419,2.275 42.14,3.15 -71.757,5.367 19.281,1.441 -35.203,2.633 -31.278,-2.339 -14.067,1.831 34.513,2.579 -27.659,2.069 L 102.126,31.647 79.747,33.321 58.83,31.756 80.082,30.165 56.666,28.414 33.253,30.165 46.824,31.18 30.61,32.393 -21.229,28.518 -2.86,27.144 -61.111,22.79 l 34.305,-2.565 -18.103,-1.353 22.321,-1.67 -34.155,-2.552 30.417,-2.276 -42.14,-3.15 57.912,-4.331 -26.516,-1.984 27.992,-2.092 7.239,0.541 21.052,-1.575 31.278,2.34 14.052,-1.83 -36.449,-2.726 50.036,-3.74 10.941,0.818 -19.696,1.473 28.126,2.104 19.713,-1.474 12.905,0.964 18.376,-1.373 51.84,3.875 -18.368,1.373 58.25,4.354 z"
         style="fill:#deddde;fill-opacity:1;fill-rule:nonzero;stroke:none"
         id="path18"
         inkscape:connector-curvature="0" /></g><g
       id="g20"
       transform="matrix(1.1910679,0,0,1.1910679,465.04531,742.82754)"><path
         d="M 0,0 15.58,-1.166 0,-2.33 -15.578,-1.166 Z m 93.256,-4.367 15.579,-1.165 15.58,1.165 -15.58,1.166 z m 76.57,11.383 14.93,1.116 -18.41,1.376 28.17,2.106 -25.087,1.877 34.754,2.597 -59.181,4.427 15.902,1.188 -29.034,2.172 -25.796,-1.929 -11.602,1.51 28.465,2.127 -22.812,1.706 -15.897,-1.188 -18.457,1.38 -17.252,-1.291 17.529,-1.312 -19.313,-1.444 -19.31,1.444 11.193,0.838 -13.372,1 -42.755,-3.196 15.15,-1.133 -48.042,-3.591 28.293,-2.116 -14.931,-1.116 18.409,-1.376 -28.168,-2.106 25.086,-1.877 -34.755,-2.597 47.763,-3.573 -21.869,-1.636 23.086,-1.725 5.97,0.446 17.363,-1.299 25.796,1.93 11.59,-1.509 -30.062,-2.249 41.268,-3.084 9.023,0.674 -16.245,1.216 23.197,1.735 16.259,-1.216 10.643,0.795 15.156,-1.133 42.754,3.196 -15.148,1.133 48.041,3.591 z"
         style="fill:#deddde;fill-opacity:1;fill-rule:nonzero;stroke:none"
         id="path22"
         inkscape:connector-curvature="0" /></g><g
       id="g24"
       transform="matrix(1.1910679,0,0,1.1910679,102.05986,790.2149)"><path
         d="m 0,0 c -0.431,-2.8 0.22,-6.34 0.22,-6.34 0,0 -2.05,1.5 -4.29,2.77 -1.33,0.75 -2.46,2.42 -3.161,3.65 -0.479,0.85 -0.759,1.48 -0.759,1.48 -3.111,-3.34 -1.101,-7.27 -1.101,-7.27 -4.849,1.06 -7.88,-0.19 -7.88,-0.19 9.181,-6.01 4.301,-6.5 -1,-9.01 -5.29,-2.51 -5.679,-5.63 -5.679,-5.63 6.33,2.08 8.849,-0.58 8.849,-0.58 -3.409,-3.26 -0.369,-8.35 -0.369,-8.35 3.31,-6.34 11.51,-9.04 18.85,-10.15 7.269,-1.11 13.7,-0.67 13.7,-0.67 l -16.721,-5.2 -15.019,-3.79 c 0,0 -14.911,1.6 -20.39,14.22 -5.471,12.63 4.09,22.57 3.13,23.22 -0.91,0.62 -2.07,-0.76 -2.191,-0.91 4.161,11.91 16.691,11.78 17.191,13.04 0.51,1.27 -2.471,1.35 -2.471,1.35 C -6.42,5.81 0,0 0,0"
         style="fill:#231f20;fill-opacity:1;fill-rule:nonzero;stroke:none"
         id="path26"
         inkscape:connector-curvature="0" /></g><g
       id="g28"
       transform="matrix(1.1910679,0,0,1.1910679,682.33278,749.66237)"><path
         d="m 0,0 v -38.142 c 14.567,0.085 16.462,0 18.946,3.228 v 37.5 C 14.287,0.112 9.473,0.037 0,0"
         style="fill:#ffffff;fill-opacity:1;fill-rule:nonzero;stroke:none"
         id="path30"
         inkscape:connector-curvature="0" /></g><g
       id="g32"
       transform="matrix(1.1910679,0,0,1.1910679,682.33278,749.66237)"><path
         d="m 0,0 v -38.142 c 14.567,0.085 16.462,0 18.946,3.228 v 37.5 C 14.287,0.112 9.473,0.037 0,0 Z"
         style="fill:none;stroke:#231f20;stroke-width:1.375;stroke-linecap:butt;stroke-linejoin:miter;stroke-miterlimit:10;stroke-dasharray:none;stroke-opacity:1"
         id="path34"
         inkscape:connector-curvature="0" /></g><g
       id="g36"
       transform="matrix(1.1910679,0,0,1.1910679,681.61218,746.28569)"><path
         d="M 0,0 C 16.235,0.054 17.687,1.176 19.157,2.303 M 0.603,-32.193 c 19.602,-2.231 17.932,3.579 18.804,3.754"
         style="fill:none;stroke:#231f20;stroke-width:0.75;stroke-linecap:butt;stroke-linejoin:miter;stroke-miterlimit:10;stroke-dasharray:none;stroke-opacity:1"
         id="path38"
         inkscape:connector-curvature="0" /></g><g
       id="g40"
       transform="matrix(1.1910679,0,0,1.1910679,233.74445,712.80382)"><path
         d="m 0,0 c -0.004,-0.014 -0.015,-0.023 -0.019,-0.036 -0.088,-0.307 -0.036,-0.636 0.143,-0.901 0.218,-0.324 5.426,-7.942 12.223,-7.942 1.513,0 2.994,0.383 4.469,1.177 0.591,0.375 1.159,0.755 1.649,1.098 3.578,2.192 7.058,5.399 8.319,6.604 z"
         style="fill:#ffffff;fill-opacity:1;fill-rule:nonzero;stroke:none"
         id="path42"
         inkscape:connector-curvature="0" /></g><g
       id="g44"
       transform="matrix(1.1910679,0,0,1.1910679,34.58241,741.66685)"><path
         d="m 0,0 v -37.5 l 35.5,4.639 V 4.64 Z"
         style="fill:#ffffff;fill-opacity:1;fill-rule:nonzero;stroke:none"
         id="path46"
         inkscape:connector-curvature="0" /></g><g
       id="g48"
       transform="matrix(1.1910679,0,0,1.1910679,34.58241,741.66685)"><path
         d="m 0,0 v -37.5 l 35.5,4.639 v 37.5 z"
         style="fill:none;stroke:#231f20;stroke-width:1.375;stroke-linecap:butt;stroke-linejoin:miter;stroke-miterlimit:10;stroke-dasharray:none;stroke-opacity:1"
         id="path50"
         inkscape:connector-curvature="0" /></g><g
       id="g52"
       transform="matrix(1.1910679,0,0,1.1910679,35.507036,700.31797)"><path
         d="M 0,0 34.724,4.925 M 0,32.207 34.724,36.625"
         style="fill:none;stroke:#231f20;stroke-width:0.75;stroke-linecap:butt;stroke-linejoin:miter;stroke-miterlimit:10;stroke-dasharray:none;stroke-opacity:1"
         id="path54"
         inkscape:connector-curvature="0" /></g><g
       id="g56"
       transform="matrix(1.1910679,0,0,1.1910679,76.865321,747.19186)"><path
         d="m 0,0 -24.219,3.583 v -37.5 L 0,-37.5 Z"
         style="fill:#c1c0c2;fill-opacity:1;fill-rule:nonzero;stroke:none"
         id="path58"
         inkscape:connector-curvature="0" /></g><g
       id="g60"
       transform="matrix(1.1910679,0,0,1.1910679,76.865321,747.19186)"><path
         d="m 0,0 -24.219,3.583 v -37.5 L 0,-37.5 Z"
         style="fill:none;stroke:#231f20;stroke-width:1.375;stroke-linecap:butt;stroke-linejoin:miter;stroke-miterlimit:10;stroke-dasharray:none;stroke-opacity:1"
         id="path62"
         inkscape:connector-curvature="0" /></g><g
       id="g64"
       transform="matrix(1.1910679,0,0,1.1910679,308.90953,706.79441)"><path
         d="M 0,0 C -61.753,-11.25 -157.286,11.25 -219.039,0 V 37.5 C -157.286,48.75 -61.753,26.25 0,37.5 Z"
         style="fill:#ffffff;fill-opacity:1;fill-rule:nonzero;stroke:none"
         id="path66"
         inkscape:connector-curvature="0" /></g><g
       id="g68"
       transform="matrix(1.1910679,0,0,1.1910679,308.90953,706.79441)"><path
         d="M 0,0 C -61.753,-11.25 -157.286,11.25 -219.039,0 V 37.5 C -157.286,48.75 -61.753,26.25 0,37.5 Z"
         style="fill:none;stroke:#231f20;stroke-width:1.375;stroke-linecap:butt;stroke-linejoin:miter;stroke-miterlimit:10;stroke-dasharray:none;stroke-opacity:1"
         id="path70"
         inkscape:connector-curvature="0" /></g><g
       id="g72"
       transform="matrix(1.1910679,0,0,1.1910679,309.95516,711.10964)"><path
         d="m 0,0 c 0,0 -20.500018,-8.6662053 -114.666,-0.333 -66.51002,5.8857947 -99.718,0.727 -104.856,-0.173 M -0.878,30.955 c 0,0 -19.872,-8.038 -114.038,0.295 -66.51,5.886 -99.718,0.726 -104.856,-0.173"
         style="fill:none;stroke:#231f20;stroke-width:0.75;stroke-linecap:butt;stroke-linejoin:miter;stroke-miterlimit:10;stroke-dasharray:none;stroke-opacity:1"
         id="path74"
         inkscape:connector-curvature="0"
         sodipodi:nodetypes="cscccc" /></g><path
       d="M 682.66687,692.96801 H 308.7978 v 72.22874 h 373.86907 z"
       style="fill:#ffffff;fill-opacity:1;fill-rule:nonzero;stroke:none;stroke-width:1.19106793"
       id="path76"
       inkscape:connector-curvature="0" /><path
       d="M 682.66687,692.96801 H 308.7978 v 72.22874 h 373.86907 z"
       style="fill:none;stroke:#231f20;stroke-width:1.48883486;stroke-linecap:butt;stroke-linejoin:miter;stroke-miterlimit:10;stroke-dasharray:none;stroke-opacity:1"
       id="path78"
       inkscape:connector-curvature="0" /><g
       id="g80"
       transform="matrix(1.1910679,0,0,1.1910679,306.29882,772.71025)"><path
         d="m 0,0 -0.001,-73.258 c 1.048,2.516 2.098,3.565 2.098,3.565 l 10e-4,66.129 c 0,0 -1.05,1.046 -2.098,3.564"
         style="fill:#ffffff;fill-opacity:1;fill-rule:nonzero;stroke:none"
         id="path82"
         inkscape:connector-curvature="0" /></g><g
       id="g84"
       transform="matrix(1.1910679,0,0,1.1910679,306.29882,772.71025)"><path
         d="m 0,0 -0.001,-73.258 c 1.048,2.516 2.098,3.565 2.098,3.565 l 10e-4,66.129 c 0,0 -1.05,1.046 -2.098,3.564 z"
         style="fill:none;stroke:#231f20;stroke-width:1.25;stroke-linecap:butt;stroke-linejoin:miter;stroke-miterlimit:10;stroke-dasharray:none;stroke-opacity:1"
         id="path86"
         inkscape:connector-curvature="0" /></g><g
       id="g88"
       transform="matrix(1.1910679,0,0,1.1910679,308.79721,755.80149)"><path
         d="m 0,0 c 0,0 1.067,10.333 8.401,10.333 h 22 c 0,0 7.166,-2.445 20.5,-2.445 M -0.001,-44.866 c 0,0 1.067,-10.333 8.401,-10.333 h 22 c 0,0 7.166,2.445 20.5,2.445"
         style="fill:none;stroke:#231f20;stroke-width:1.25;stroke-linecap:butt;stroke-linejoin:miter;stroke-miterlimit:10;stroke-dasharray:none;stroke-opacity:1"
         id="path90"
         inkscape:connector-curvature="0" /></g><g
       id="g92"
       transform="matrix(1.1910679,0,0,1.1910679,685.1649,772.71025)"><path
         d="m 0,0 0.001,-73.258 c -1.048,2.516 -2.098,3.565 -2.098,3.565 l -10e-4,66.129 c 0,0 1.05,1.046 2.098,3.564"
         style="fill:#ffffff;fill-opacity:1;fill-rule:nonzero;stroke:none"
         id="path94"
         inkscape:connector-curvature="0" /></g><g
       id="g96"
       transform="matrix(1.1910679,0,0,1.1910679,685.1649,772.71025)"><path
         d="m 0,0 0.001,-73.258 c -1.048,2.516 -2.098,3.565 -2.098,3.565 l -10e-4,66.129 c 0,0 1.05,1.046 2.098,3.564 z"
         style="fill:none;stroke:#231f20;stroke-width:1.25;stroke-linecap:butt;stroke-linejoin:miter;stroke-miterlimit:10;stroke-dasharray:none;stroke-opacity:1"
         id="path98"
         inkscape:connector-curvature="0" /></g><g
       id="g100"
       transform="matrix(1.1910679,0,0,1.1910679,682.6664,755.80149)"><path
         d="m 0,0 c 0,0 -1.067,10.333 -8.401,10.333 h -22 c 0,0 -7.166,-2.445 -20.5,-2.445 M 0.001,-44.866 c 0,0 -1.067,-10.333 -8.401,-10.333 h -22 c 0,0 -7.166,2.445 -20.5,2.445"
         style="fill:none;stroke:#231f20;stroke-width:1.25;stroke-linecap:butt;stroke-linejoin:miter;stroke-miterlimit:10;stroke-dasharray:none;stroke-opacity:1"
         id="path102"
         inkscape:connector-curvature="0" /></g><g
       id="g104"
       transform="matrix(1.1910679,0,0,1.1910679,656.58391,765.19507)"><path
         d="m 0,0 c -5.202,-0.907 -11.465,-1.923 -17.206,-1.923 h -235.685 c -5.741,0 -12.004,1.016 -17.206,1.923 m 0,-60.641 c 5.202,0.908 11.465,1.923 17.206,1.923 h 235.685 c 5.741,0 12.004,-1.015 17.206,-1.923"
         style="fill:none;stroke:#231f20;stroke-width:0.75;stroke-linecap:butt;stroke-linejoin:miter;stroke-miterlimit:10;stroke-dasharray:none;stroke-opacity:1"
         id="path106"
         inkscape:connector-curvature="0" /></g><g
       id="g108"
       transform="matrix(1.1910679,0,0,1.1910679,117.13759,771.33635)"><path
         d="M 0,0 C 3.391,-1.37 4.29,-4.66 4.29,-4.66 1.441,-4.58 0.601,-2.38 0,0"
         style="fill:#ffffff;fill-opacity:1;fill-rule:nonzero;stroke:none"
         id="path110"
         inkscape:connector-curvature="0" /></g><g
       id="g112"
       transform="matrix(1.1910679,0,0,1.1910679,303.30889,700.80179)"><path
         d="m 0,0 c -0.64,3.468 -3.087,9.124 -7.827,12.106 -3.917,2.459 -7.339,1.927 -7.355,3.149 -0.029,1.554 4.362,1.073 4.362,1.073 -4.735,2.712 -11.527,-0.607 -12.498,0.946 -0.573,0.931 3.161,2.238 3.161,2.238 -5.776,0.212 -12.592,-2.765 -15.326,-5.466 6.89,2.313 16.593,0.983 21.05,-2.825 -1.887,1.06 -3.933,1.768 -6.033,2.188 -7.819,1.572 -16.523,-0.755 -21.763,-2.935 C -48.143,8.471 -52.654,5.513 -52.654,5.513 -56.558,3.244 -63.768,1.129 -68.657,3.198 l -0.001,-0.01 c 0,0 7.654,-12.749 17.059,-8.314 0.691,0.384 1.352,0.78 1.973,1.168 5.134,2.785 10.304,7.431 10.304,7.431 1.798,1.257 7.334,4.862 13.999,6.876 1.485,0.443 2.992,0.535 4.424,0.329 3.717,-0.505 6.957,-2.888 8.02,-5.737 C -10.009,5.441 -2.734,3.037 0,0"
         style="fill:#231f20;fill-opacity:1;fill-rule:nonzero;stroke:none"
         id="path114"
         inkscape:connector-curvature="0" /></g><g
       id="g116"
       transform="matrix(1.1910679,0,0,1.1910679,122.24739,765.78633)"><path
         d="M 0,0 C 0,0 -0.899,3.29 -4.29,4.66 -3.689,2.28 -2.85,0.08 0,0 m -10.92,-8.8 c -0.79,4.26 -6.67,4.99 -9.699,3.03 1.05,2.82 4,5.38 6.279,6.19 -1.3,0.5 -2.83,0.93 -4.479,1.29 1.939,1.48 6.71,2.6 9.13,2.39 -0.441,0.13 -0.92,0.23 -1.441,0.3 l 0.46,2.77 c -0.269,2.32 -2.37,4.98 -4.87,6.58 -1.239,3.55 -0.029,10.01 1.681,11.73 C -14.72,16.19 -1.6,10.45 0.95,3.6 -0.489,9.45 -6.56,13.31 -9.399,16.87 -10.3,19.21 -9.43,23.08 -8.34,24.39 -8.84,18.16 -2.26,13.08 1.23,9.48 5.351,5.25 6.44,1.58 5.771,-1.37 6.69,-1.65 7.94,-2.59 7.681,-4.11 c 1.359,0.27 2.79,1.78 3.149,2.73 0.53,-4.66 -2.35,-9.47 -5.439,-10.84 0,0 0.889,2.18 -0.46,3.92 -1.321,1.71 -5.21,1.85 -6.531,1.8 0,0 1.691,2.34 1.08,3.57 -0.74,1.53 -8.379,1.1 -11.83,-0.03 1.17,0.09 3.911,-0.3 4.85,-0.73 -0.56,-0.78 -2.06,-4.09 -1.079,-5.13 0.829,-0.89 2,0.43 2.149,0.6 -0.11,-0.32 -1.259,-3.66 -0.469,-4.5 0.82,-0.88 2.67,-0.33 2.67,-0.33 -1.231,-2.84 -5.72,-4.69 -8.821,-4.59 1.12,0.31 3.01,2.22 3.321,3.4 -0.831,-0.38 -2.951,-0.55 -3.76,-0.37 1.01,0.38 3.099,2.89 2.569,5.81"
         style="fill:#231f20;fill-opacity:1;fill-rule:nonzero;stroke:none"
         id="path118"
         inkscape:connector-curvature="0" /></g><g
       id="g120"
       transform="matrix(1.1910679,0,0,1.1910679,89.755891,776.10062)"><path
         d="M 0,0 C 0.51,1.8 -2.99,5.01 -4.311,5.63 0.63,5.68 3.06,4.68 3.06,4.68 1.83,6.61 1.5,9.53 2.31,11.81 4.8,5.28 14.39,3.94 16.609,-1.49 l -0.46,-2.77 C 12.359,-3.77 6.77,-4.9 3.95,-8.03 4.93,-8.06 7.46,-8.61 8.439,-8.96 4.17,-9.6 -1.71,-13.36 -3.471,-15.17 c 0.521,2.44 1.271,4.49 0.741,5.98 -0.75,2.1 -3.25,3.06 -8.3,2.17 C -7.54,-3.73 -0.53,-1.84 0,0"
         style="fill:#231f20;fill-opacity:1;fill-rule:nonzero;stroke:none"
         id="path122"
         inkscape:connector-curvature="0" /></g><g
       id="g124"
       transform="matrix(1.1910679,0,0,1.1910679,56.37002,756.42894)"><path
         d="M 0,0 1.019,-2.22 C -0.35,-2.45 -1.89,-7.86 -1.89,-7.86 -5.38,-5.84 -2.44,0.62 -2.44,0.62 Z"
         style="fill:#231f20;fill-opacity:1;fill-rule:nonzero;stroke:none"
         id="path126"
         inkscape:connector-curvature="0" /></g><g
       id="g128"
       transform="matrix(1.1910679,0,0,1.1910679,47.293844,757.52473)"><path
         d="M 0,0 C 0,0 1.82,1.31 2.78,1.55 L 4.37,0.14 3.55,-0.11 c 0,0 -1.529,-5 -0.91,-7.07 l 1,-2.9 c 0,0 -3.26,0.65 -3.76,1.9 0,0 -1.05,5.63 0.12,8.18"
         style="fill:#231f20;fill-opacity:1;fill-rule:nonzero;stroke:none"
         id="path130"
         inkscape:connector-curvature="0" /></g><g
       id="g132"
       transform="matrix(1.1910679,0,0,1.1910679,45.102398,755.00014)"><path
         d="m 0,0 c 0,0 0.21,-6.42 0.87,-6.99 l 2.42,-1.03 0.07,-2.19 c 0,0 -4.32,1.37 -4.68,3.02 -0.36,1.65 -0.64,5.75 -0.64,5.75 0,0 0.72,1.07 1.96,1.44"
         style="fill:#231f20;fill-opacity:1;fill-rule:nonzero;stroke:none"
         id="path134"
         inkscape:connector-curvature="0" /></g><g
       id="g136"
       transform="matrix(1.1910679,0,0,1.1910679,319.95335,735.8506)"><path
         d="M 0,0 H 298.08"
         style="fill:none;stroke:#b2b1b1;stroke-width:0.25;stroke-linecap:butt;stroke-linejoin:miter;stroke-miterlimit:4;stroke-dasharray:none;stroke-opacity:1"
         id="path138"
         inkscape:connector-curvature="0" /></g><g
       id="g140"
       transform="matrix(1.1910679,0,0,1.1910679,319.95335,711.1006)"><path
         d="M 0,0 H 298.08"
         style="fill:none;stroke:#b2b1b1;stroke-width:0.25;stroke-linecap:butt;stroke-linejoin:miter;stroke-miterlimit:4;stroke-dasharray:none;stroke-opacity:1"
         id="path142"
         inkscape:connector-curvature="0" /></g><flowRoot
       xml:space="preserve"
       id="flowRoot4550"
       style="fill:black;fill-opacity:1;stroke:none;font-family:sans-serif;font-style:normal;font-weight:normal;font-size:40px;line-height:1.25;letter-spacing:0px;word-spacing:0px"><flowRegion
         id="flowRegion4552"><rect
           id="rect4554"
           width="178.0387"
           height="41.970078"
           x="82"
           y="67.529922" /></flowRegion><flowPara
         id="flowPara4556"></flowPara></flowRoot><flowRoot
       xml:space="preserve"
       id="flowRoot4558"
       style="font-style:normal;font-weight:normal;font-size:40px;line-height:1.25;font-family:sans-serif;letter-spacing:0px;word-spacing:0px;fill:#000000;fill-opacity:1;stroke:none"
       transform="matrix(0.75000002,0,0,-0.75000002,8.5570997,797.20172)"><flowRegion
         id="flowRegion4560"><rect
           id="rect4562"
           width="154"
           height="43.5"
           x="83.5"
           y="65.5" /></flowRegion><flowPara
         id="flowPara4564">DD</flowPara></flowRoot><g
       aria-label="DDRoller"
       transform="matrix(1.1963492,-0.02088235,-0.01745241,-0.9998477,-13.299313,1463.912)"
       style="font-style:normal;font-weight:normal;font-size:30px;line-height:1.25;font-family:sans-serif;letter-spacing:0px;word-spacing:0px;fill:#000000;fill-opacity:1;stroke:none;stroke-width:0.75"
       id="text4568"><path
         d="m 134.88617,728.06893 q -1.34253,5.12213 -3.12762,7.45469 -2.53352,3.34175 -7.02628,3.08666 -1.10821,-0.0629 -3.24263,-0.57474 -2.10277,-0.54007 -3.15108,-0.5996 -0.53913,-0.0306 -1.4751,0.57731 -0.93767,0.63787 -1.41689,0.61066 -0.29952,-0.017 -0.69674,-0.43019 -0.36896,-0.38153 -0.35366,-0.65109 0.0663,-1.16812 1.43182,-1.93194 1.52206,-0.87513 1.77084,-1.55211 0.75313,-2.15077 1.17999,-9.66866 0.13095,-2.30628 0.0418,-2.85222 -0.21958,-1.42474 -1.46669,-2.21671 -0.58033,-0.36348 -0.54802,-0.93256 0.0816,-1.43769 1.45941,-1.35946 0.50918,0.0289 1.25562,0.64221 0.74813,0.58335 1.22736,0.61056 0.74879,0.0425 3.2038,-0.32891 2.455,-0.37143 3.71297,-0.3 2.06667,0.11734 4.1239,2.51782 1.94593,2.24392 2.24451,4.39431 0.31833,2.33179 0.85274,3.50397 z m -6.18839,1.03085 q 0.5255,-9.25509 -3.21847,-9.46767 -1.64735,-0.0935 -1.98918,5.92677 -0.22108,3.89373 -0.15976,5.45972 0.11415,3.28175 1.08527,5.22993 0.50068,0.17867 0.89005,0.20078 1.6174,0.0918 2.60126,-2.94728 0.65648,-2.03606 0.79083,-4.40225 z"
         style="font-style:normal;font-variant:normal;font-weight:normal;font-stretch:normal;font-family:BlackCastleMF;-inkscape-font-specification:BlackCastleMF;writing-mode:lr-tb;stroke-width:0.75"
         id="path4683" /><path
         d="m 155.11418,729.56024 q -1.42765,5.09906 -3.25135,7.40156 -2.58881,3.2991 -7.07671,2.96921 -1.10701,-0.0814 -3.23261,-0.62867 -2.09348,-0.57502 -3.14065,-0.65199 -0.53855,-0.0396 -1.48451,0.55266 -0.94816,0.62216 -1.42687,0.58698 -0.29919,-0.022 -0.68947,-0.44174 -0.36256,-0.38762 -0.34277,-0.65689 0.0858,-1.16685 1.4638,-1.90783 1.53642,-0.84965 1.79644,-1.5224 0.78885,-2.13792 1.34086,-9.64766 0.16934,-2.30378 0.0893,-2.85113 -0.19583,-1.4282 -1.42957,-2.24083 -0.5742,-0.3731 -0.53241,-0.94156 0.10556,-1.43613 1.48185,-1.33496 0.50863,0.0374 1.24474,0.66303 0.73832,0.59573 1.21703,0.63092 0.74798,0.055 3.20883,-0.27551 2.46085,-0.33049 3.71746,-0.23812 2.06443,0.15175 4.08139,2.58616 1.90828,2.27602 2.17101,4.43108 0.27944,2.33677 0.79426,3.51769 z m -6.2047,0.92764 q 0.67957,-9.24506 -3.06034,-9.51997 -1.64556,-0.12096 -2.08761,5.89282 -0.2859,3.88951 -0.25067,5.4563 0.0595,3.2832 0.99802,5.24729 0.49763,0.18698 0.88658,0.21557 1.61564,0.11876 2.64998,-2.90355 0.6903,-2.02484 0.86404,-4.38846 z"
         style="font-style:normal;font-variant:normal;font-weight:normal;font-stretch:normal;font-family:BlackCastleMF;-inkscape-font-specification:BlackCastleMF;writing-mode:lr-tb;stroke-width:0.75"
         id="path4685" /><path
         d="m 175.30311,743.52209 q -0.11648,1.37508 -1.44541,2.13563 -1.17441,0.71342 -2.60927,0.59188 -2.27186,-0.19244 -3.44536,-1.97786 -1.12636,-1.63089 -0.93646,-3.87286 0.0456,-0.53807 0.18084,-1.06855 -0.40282,-0.57605 -0.33952,-1.32338 0.043,-0.50818 0.39058,-1.41207 0.35006,-0.93378 0.39058,-1.41207 0.10128,-1.19572 -0.56551,-1.85435 -0.27614,-0.29436 -1.46124,-0.87646 -1.00827,-0.53702 -1.40602,-1.17286 l -0.36427,0.39065 -0.0527,0.26651 q -0.0532,0.62775 0.0122,1.98812 0.0679,1.33049 -0.0202,2.01549 0.18899,0.25687 0.25539,0.89475 0.10593,0.88209 0.12823,0.9743 0.19813,0.85979 1.33357,1.31726 1.0184,0.41744 0.96523,1.0452 -0.0582,0.68753 -1.07509,0.96269 -0.77265,0.23563 -1.69933,0.15713 -0.92668,-0.0785 -2.68734,-0.61903 -1.75813,-0.57042 -2.7147,-0.65145 -0.47829,-0.0405 -1.33351,0.45909 -0.85522,0.4996 -1.3634,0.45655 -0.29893,-0.0253 -0.63232,-0.35463 -0.30603,-0.29689 -0.28325,-0.56593 0.0988,-1.16583 0.8344,-1.67555 0.003,-0.0299 1.44345,-0.69064 0.87751,-0.40739 1.21491,-1.19171 0.67734,-1.59853 1.1002,-6.59065 0.11141,-1.31529 0.23141,-3.44276 0.14988,-2.12493 0.20052,-2.72279 0.0532,-0.62775 -0.81731,-1.72514 -0.83806,-1.12475 -0.79754,-1.60303 0.0253,-0.29893 0.44938,-0.68452 0.45395,-0.38305 0.72298,-0.36026 0.47829,0.0405 0.89377,0.4671 0.41801,0.3967 0.77876,0.75844 0.77975,0.0359 2.89251,-0.026 1.81131,-0.0573 2.85756,0.0313 2.92951,0.24815 4.40496,1.66774 1.05743,1.0229 2.39615,4.05672 -0.90424,3.56641 -3.64975,5.41126 0.0269,0.39367 0.90797,1.01024 1.05287,0.72144 1.47291,1.44949 0.73572,1.26662 0.55848,3.35912 -0.081,0.95658 -0.54454,2.8743 -0.46352,1.91772 -0.54455,2.8743 -0.0633,0.74732 0.44488,0.79036 0.11957,0.0101 0.21178,-0.0122 l -0.007,-0.27157 q -0.004,-0.66271 0.58463,-1.21499 0.61861,-0.54975 1.30615,-0.49151 1.34518,0.11394 1.23124,1.45912 z m -7.49463,-16.01973 q 0.20257,-2.39144 -0.10248,-3.41082 -0.11402,-0.43116 -0.62171,-0.83546 -0.50769,-0.40429 -0.95608,-0.44227 -0.65764,-0.0557 -0.99202,0.33747 -0.20215,0.25385 -0.51318,1.79309 -0.22845,1.27527 -0.28415,1.93291 -0.10635,1.25551 0.0589,2.50391 0.36631,-0.0593 0.72503,-0.0289 1.28539,0.10888 1.481,0.99856 1.03507,-0.84565 1.20472,-2.84848 z"
         style="font-style:normal;font-variant:normal;font-weight:normal;font-stretch:normal;font-family:BlackCastleMF;-inkscape-font-specification:BlackCastleMF;writing-mode:lr-tb;stroke-width:0.75"
         id="path4687" /><path
         d="m 184.43888,739.39928 q -0.53995,0.38072 -1.85997,0.73308 -1.412,0.37555 -1.91756,0.69868 -0.88472,0.56548 -0.96766,1.67238 -0.54745,0.0793 -0.84661,0.0569 -1.01715,-0.0762 -2.46667,-1.20767 -1.59237,-1.23242 -2.3889,-1.44252 -0.15932,-0.2827 -0.13691,-0.58186 0.0247,-0.32908 0.37313,-0.96482 0.37839,-0.6335 0.40529,-0.99249 l 0.27415,-4.46199 q 0.0471,-0.62824 -0.1026,-1.84281 -0.11752,-1.24226 -0.0772,-1.78075 0.065,-0.86757 1.29303,-1.19673 1.01189,-0.25511 2.02153,-0.48031 0.59082,-0.25657 1.07914,-1.15259 0.41727,-0.75092 1.04551,-0.70385 0.47865,0.0359 2.0987,1.30044 1.62229,1.23466 2.5108,1.42157 0.21244,0.37692 0.17209,0.91541 -0.0291,0.38891 -0.26467,1.12337 -0.20562,0.73669 -0.23476,1.1256 -0.31156,4.15835 -0.29363,3.91902 -0.12621,2.48752 0.28374,3.84194 z m -4.2474,-1.13051 q -0.17209,-0.91541 -0.0645,-2.35139 0.0471,-0.62824 0.19656,-1.8204 0.15173,-1.22208 0.19656,-1.8204 0.0784,-1.04707 -0.0248,-2.07767 -0.49815,-0.57883 -1.27597,-0.63711 -0.24518,1.66634 -0.31243,2.56382 -0.0359,0.47866 0.0143,1.41503 0.0524,0.90645 0.0188,1.35519 -0.0291,0.38891 -0.23924,1.18544 -0.17794,0.76885 -0.20932,1.18768 -0.0336,0.44874 0.0614,0.78678 0.78757,0.32977 1.05681,0.34994 0.29916,0.0224 0.58186,-0.13691 z"
         style="font-style:normal;font-variant:normal;font-weight:normal;font-stretch:normal;font-family:BlackCastleMF;-inkscape-font-specification:BlackCastleMF;writing-mode:lr-tb;stroke-width:0.75"
         id="path4689" /><path
         d="m 193.21272,721.44334 q -0.0667,0.56688 -0.94559,1.14139 -0.87888,0.57452 -0.97358,1.10952 -0.51893,2.9126 -0.96588,9.82817 -0.23992,3.71226 -0.14247,4.53024 0.0367,0.36312 0.59864,0.97063 0.59193,0.60945 0.56871,0.9687 -0.0271,0.41913 -0.8741,0.96564 -0.81707,0.54844 -0.87409,0.96563 0.0521,0.12362 0.0347,0.39306 l -0.0426,0.65863 q -0.35446,0.3679 -0.80353,0.33888 -0.32931,-0.0213 -2.10417,-1.39862 -1.74493,-1.3754 -1.92934,-1.77814 0.0812,-0.32544 0.5235,-0.6576 0.47422,-0.36017 0.54957,-0.5958 0.42025,-1.38578 0.70946,-5.39548 -0.36273,5.14733 0.33768,-5.69006 0.22831,-3.53263 -0.50444,-5.68437 l -0.0164,-0.2115 q 0.0135,-0.20956 0.18451,-0.5292 0.20091,-0.3177 0.41047,-0.30416 1.76632,0.11415 2.56872,1.18814 0.42493,-0.0627 1.04599,-0.83427 0.65099,-0.76962 1.48924,-0.71545 0.62869,0.0406 1.15494,0.73602 z"
         style="font-style:normal;font-variant:normal;font-weight:normal;font-stretch:normal;font-family:BlackCastleMF;-inkscape-font-specification:BlackCastleMF;writing-mode:lr-tb;stroke-width:0.75"
         id="path4691" /><path
         d="m 200.44492,721.94894 q -0.0617,0.56744 -0.93558,1.1496 -0.87383,0.58216 -0.96386,1.11798 -0.49348,2.91701 -0.88005,9.83622 -0.2075,3.71421 -0.10292,4.53131 0.0398,0.36279 0.6071,0.96537 0.59722,0.60426 0.57714,0.9637 -0.0234,0.41934 -0.86563,0.97323 -0.81226,0.55555 -0.86564,0.97322 0.0532,0.12316 0.0382,0.39274 l -0.0368,0.65898 q -0.35124,0.37098 -0.80054,0.34588 -0.32949,-0.0184 -2.11631,-1.3802 -1.75687,-1.36012 -1.94478,-1.76122 0.0783,-0.32614 0.51774,-0.66215 0.47105,-0.36429 0.54435,-0.60057 0.40813,-1.3894 0.66233,-5.40147 -0.31779,5.15029 0.28799,-5.6928 0.19747,-3.53449 -0.55404,-5.67975 l -0.0182,-0.21134 q 0.0117,-0.20967 0.17989,-0.53079 0.19813,-0.31945 0.4078,-0.30774 1.76725,0.0987 2.57899,1.16568 0.42437,-0.0664 1.03867,-0.84338 0.64424,-0.77527 1.48294,-0.72841 0.62902,0.0351 1.16131,0.72591 z"
         style="font-style:normal;font-variant:normal;font-weight:normal;font-stretch:normal;font-family:BlackCastleMF;-inkscape-font-specification:BlackCastleMF;writing-mode:lr-tb;stroke-width:0.75"
         id="path4693" /><path
         d="m 210.20627,733.85717 q -0.002,0.72062 -1.53689,1.4628 -2.42661,1.21279 -2.83096,1.52504 -1.58075,1.10047 -1.65178,2.68888 0.49474,0.35246 1.39116,0.45261 1.49582,0.12696 1.49582,0.12696 0.18787,-0.17178 0.35734,-1.27531 0.10015,-0.89642 0.75949,-0.86693 1.1402,0.021 1.10986,1.37095 -0.0558,1.91942 -2.57185,3.78888 l -0.009,0.20979 q -0.0483,1.07892 -0.85879,1.0727 -0.74925,-0.0335 -3.51416,-1.32833 -2.7336,-1.32346 -2.71483,-1.74304 0.0147,-0.32967 0.36452,-0.76447 0.35111,-0.46478 0.39314,-0.73317 0.11538,-0.56541 0.18058,-2.69462 0.0603,-1.34866 0.11929,-2.66734 0.0764,-1.70829 -0.12181,-2.64808 -0.0219,-0.18116 -0.27826,-0.49293 -0.22501,-0.34039 -0.21295,-0.61012 0.007,-0.14985 0.0693,-0.20711 0.37975,-0.43347 1.6832,-0.7055 1.85096,-0.42773 2.4924,-0.66932 1.43674,-0.56637 2.20829,-1.70303 0.71928,0.0322 2.2403,2.95304 1.43781,2.767 1.43695,3.45765 z m -4.34383,0.43636 q 0.0228,-0.50949 -0.23939,-1.36205 -0.34671,-0.97647 -0.78286,-1.29628 l -0.11661,2.6074 q -0.0255,0.56943 0.31943,0.91518 0.64679,-0.36146 0.81943,-0.86425 z"
         style="font-style:normal;font-variant:normal;font-weight:normal;font-stretch:normal;font-family:BlackCastleMF;-inkscape-font-specification:BlackCastleMF;writing-mode:lr-tb;stroke-width:0.75"
         id="path4695" /><path
         d="m 220.86259,730.85871 q -0.0187,0.59971 -0.94727,1.50119 -0.89764,0.87244 -0.92851,1.86195 -0.0168,0.53974 -0.82645,0.51449 -0.95953,-0.0299 -1.17135,-0.93698 -0.1809,-0.9361 -0.60069,-0.9492 -0.44979,-0.014 -0.48814,1.21537 -0.0131,0.4198 0.0507,1.2622 0.0947,0.81335 0.0825,1.20316 -0.0982,3.14846 -0.68852,3.79037 0.19587,0.45633 1.44684,0.76549 1.13196,0.27543 1.11044,0.96509 -0.0234,0.74964 -0.78331,1.05609 -1.00261,0.38893 -1.1263,0.50513 -0.0928,0.0871 -0.27543,1.13196 -0.17518,0.80493 -0.7449,0.78715 -0.53974,-0.0168 -2.24615,-1.12058 -1.17697,-0.75707 -2.32395,-1.5132 -0.0553,-0.1518 -0.0487,-0.36169 0.008,-0.26987 0.37947,-0.61847 0.37199,-0.37859 0.4357,-0.49666 0.41507,-0.79744 0.51609,-4.03587 0.1029,-3.29839 -0.0574,-3.9337 -0.0525,-0.24175 -0.69813,-0.71211 -0.64471,-0.50035 -0.63349,-0.86018 0.008,-0.26986 0.34855,-0.58941 0.37012,-0.31862 0.83388,-1.71484 0.36351,-1.06918 0.96322,-1.05047 2.21892,0.0692 3.4175,2.05756 0.5716,-0.0422 0.92763,-0.8715 0.35697,-0.85929 0.77676,-0.84619 0.56973,0.0178 1.92754,0.75047 1.3878,0.73363 1.3719,1.24338 z"
         style="font-style:normal;font-variant:normal;font-weight:normal;font-stretch:normal;font-family:BlackCastleMF;-inkscape-font-specification:BlackCastleMF;writing-mode:lr-tb;stroke-width:0.75"
         id="path4697" /></g><path
       style="fill:none;stroke:none;stroke-width:0.89330095;stroke-linecap:butt;stroke-linejoin:miter;stroke-miterlimit:10;stroke-dasharray:none;stroke-opacity:1"
       d="m 114.38584,737.85905 c 14.74291,0.69458 31.93338,1.84457 51.93929,3.61494 22.73418,2.01193 42.20159,2.9403 58.54952,3.21603"
       id="path4673"
       inkscape:connector-curvature="0" /></g></svg>