WARNING: SVG input document uses 2 flow text elements, which won't render on browsers!
<svg width="960" height="160" version="1.1" viewBox="0 0 960 160" xml:space="preserve" xmlns="http://www.w3.org/2000/svg"><g transform="matrix(1.3333 0 0 -1.3333 -11.409 1062.9)"><g transform="matrix(1.1911 0 0 1.1911 108.95 746.12)"><path d="m0 0 23.255-1.74-23.255-1.739-23.252 1.739zm139.2-6.519 23.254-1.739 23.256 1.739-23.256 1.74zm114.29 16.991 22.286 1.666-27.48 2.055 42.048 3.143-37.447 2.801 51.877 3.877-88.338 6.608 23.736 1.773-43.337 3.242-38.505-2.88-17.318 2.255 42.488 3.174-34.049 2.547-23.73-1.773-27.549 2.06-25.751-1.927 26.164-1.958-28.828-2.156-28.823 2.156 16.707 1.25-19.96 1.493-63.818-4.771 22.614-1.691-71.71-5.36 42.231-3.158-22.286-1.666 27.478-2.055-42.046-3.142 37.445-2.802-51.877-3.877 71.294-5.333-32.644-2.442 34.46-2.575 8.912 0.666 25.916-1.939 38.506 2.88 17.299-2.252-44.872-3.356 61.598-4.604 13.469 1.006-24.247 1.814 34.625 2.59 24.268-1.815 15.887 1.188 22.622-1.691 63.818 4.77-22.612 1.691 71.709 5.359z" fill="#deddde"/></g><g transform="matrix(1.1911 0 0 1.1911 226.53 686.26)"><path d="m0 0 18.891-1.413-18.891-1.413-18.888 1.413zm113.07-5.295 18.89-1.413 18.891 1.413-18.891 1.413zm92.841 13.801 18.103 1.354-22.322 1.669 34.156 2.553-30.419 2.275 42.14 3.15-71.757 5.367 19.281 1.441-35.203 2.633-31.278-2.339-14.067 1.831 34.513 2.579-27.659 2.069l-19.275-1.441-22.379 1.674-20.917-1.565 21.252-1.591-23.416-1.751-23.413 1.751 13.571 1.015-16.214 1.213-51.839-3.875 18.369-1.374-58.251-4.354 34.305-2.565-18.103-1.353 22.321-1.67-34.155-2.552 30.417-2.276-42.14-3.15 57.912-4.331-26.516-1.984 27.992-2.092 7.239 0.541 21.052-1.575 31.278 2.34 14.052-1.83-36.449-2.726 50.036-3.74 10.941 0.818-19.696 1.473 28.126 2.104 19.713-1.474 12.905 0.964 18.376-1.373 51.84 3.875-18.368 1.373 58.25 4.354z" fill="#deddde"/></g><g transform="matrix(1.1911 0 0 1.1911 465.05 742.83)"><path d="m0 0 15.58-1.166-15.58-1.164-15.578 1.164zm93.256-4.367 15.579-1.165 15.58 1.165-15.58 1.166zm76.57 11.383 14.93 1.116-18.41 1.376 28.17 2.106-25.087 1.877 34.754 2.597-59.181 4.427 15.902 1.188-29.034 2.172-25.796-1.929-11.602 1.51 28.465 2.127-22.812 1.706-15.897-1.188-18.457 1.38-17.252-1.291 17.529-1.312-19.313-1.444-19.31 1.444 11.193 0.838-13.372 1-42.755-3.196 15.15-1.133-48.042-3.591 28.293-2.116-14.931-1.116 18.409-1.376-28.168-2.106 25.086-1.877-34.755-2.597 47.763-3.573-21.869-1.636 23.086-1.725 5.97 0.446 17.363-1.299 25.796 1.93 11.59-1.509-30.062-2.249 41.268-3.084 9.023 0.674-16.245 1.216 23.197 1.735 16.259-1.216 10.643 0.795 15.156-1.133 42.754 3.196-15.148 1.133 48.041 3.591z" fill="#deddde"/></g><path d="m102.06 790.21c-0.51335-3.335 0.26203-7.5514 0.26203-7.5514s-2.4417 1.7866-5.1097 3.2993c-1.5841 0.8933-2.93 2.8824-3.765 4.3474-0.57052 1.0124-0.90402 1.7628-0.90402 1.7628-3.7054-3.9782-1.3114-8.6591-1.3114-8.6591-5.7755 1.2625-9.3856-0.2263-9.3856-0.2263 10.935-7.1583 5.1228-7.7419-1.1911-10.732-6.3007-2.9896-6.7641-6.7057-6.7641-6.7057 7.5395 2.4774 10.54-0.69082 10.54-0.69082-4.0604-3.8829-0.4395-9.9454-0.4395-9.9454 3.9424-7.5514 13.709-10.767 22.452-12.089 8.6579-1.3221 16.318-0.79802 16.318-0.79802l-19.916-6.1936-17.889-4.5142s-17.76 1.9057-24.286 16.937c-6.5163 15.043 4.8715 26.882 3.728 27.657-1.0839 0.73846-2.4655-0.90522-2.6096-1.0839 4.956 14.186 19.88 14.031 20.476 15.532 0.60744 1.5127-2.9431 1.6079-2.9431 1.6079 15.092 4.9668 22.739-1.9534 22.739-1.9534" fill="#231f20"/><g transform="matrix(1.1911 0 0 1.1911 682.33 749.66)"><path d="m0 0v-38.142c14.567 0.085 16.462 0 18.946 3.228v37.5c-4.659-2.474-9.473-2.549-18.946-2.586" fill="#fff"/></g><g transform="matrix(1.1911 0 0 1.1911 682.33 749.66)"><path d="m0 0v-38.142c14.567 0.085 16.462 0 18.946 3.228v37.5c-4.659-2.474-9.473-2.549-18.946-2.586z" fill="none" stroke="#231f20" stroke-miterlimit="10" stroke-width="1.375"/></g><g transform="matrix(1.1911 0 0 1.1911 681.61 746.29)"><path d="m0 0c16.235 0.054 17.687 1.176 19.157 2.303m-18.554-34.496c19.602-2.231 17.932 3.579 18.804 3.754" fill="none" stroke="#231f20" stroke-miterlimit="10" stroke-width=".75"/></g><g transform="matrix(1.1911 0 0 1.1911 233.74 712.8)"><path d="m0 0c-4e-3 -0.014-0.015-0.023-0.019-0.036-0.088-0.307-0.036-0.636 0.143-0.901 0.218-0.324 5.426-7.942 12.223-7.942 1.513 0 2.994 0.383 4.469 1.177 0.591 0.375 1.159 0.755 1.649 1.098 3.578 2.192 7.058 5.399 8.319 6.604z" fill="#fff"/></g><g transform="matrix(1.1911 0 0 1.1911 34.582 741.67)"><path d="m0 0v-37.5l35.5 4.639v37.501z" fill="#fff"/></g><g transform="matrix(1.1911 0 0 1.1911 34.582 741.67)"><path d="m0 0v-37.5l35.5 4.639v37.5z" fill="none" stroke="#231f20" stroke-miterlimit="10" stroke-width="1.375"/></g><g transform="matrix(1.1911 0 0 1.1911 35.507 700.32)"><path d="M 0,0 34.724,4.925 M 0,32.207 34.724,36.625" fill="none" stroke="#231f20" stroke-miterlimit="10" stroke-width=".75"/></g><g transform="matrix(1.1911 0 0 1.1911 76.865 747.19)"><path d="m0 0-24.219 3.583v-37.5l24.219-3.583z" fill="#c1c0c2"/></g><g transform="matrix(1.1911 0 0 1.1911 76.865 747.19)"><path d="m0 0-24.219 3.583v-37.5l24.219-3.583z" fill="none" stroke="#231f20" stroke-miterlimit="10" stroke-width="1.375"/></g><g transform="matrix(1.1911 0 0 1.1911 308.91 706.79)"><path d="m0 0c-61.753-11.25-157.29 11.25-219.04 0v37.5c61.753 11.25 157.29-11.25 219.04 0z" fill="#fff"/></g><g transform="matrix(1.1911 0 0 1.1911 308.91 706.79)"><path d="m0 0c-61.753-11.25-157.29 11.25-219.04 0v37.5c61.753 11.25 157.29-11.25 219.04 0z" fill="none" stroke="#231f20" stroke-miterlimit="10" stroke-width="1.375"/></g><g transform="matrix(1.1911 0 0 1.1911 309.96 711.11)"><path d="m0 0s-20.5-8.6662-114.67-0.333c-66.51 5.8858-99.718 0.727-104.86-0.173m218.64 31.461s-19.872-8.038-114.04 0.295c-66.51 5.886-99.718 0.726-104.86-0.173" fill="none" stroke="#231f20" stroke-miterlimit="10" stroke-width=".75"/></g><path d="m682.67 692.97h-373.87v72.229h373.87z" fill="#fff"/><path d="m682.67 692.97h-373.87v72.229h373.87z" fill="none" stroke="#231f20" stroke-miterlimit="10" stroke-width="1.4888"/><g transform="matrix(1.1911 0 0 1.1911 306.3 772.71)"><path d="m0 0-1e-3 -73.258c1.048 2.516 2.098 3.565 2.098 3.565l1e-3 66.129s-1.05 1.046-2.098 3.564" fill="#fff"/></g><g transform="matrix(1.1911 0 0 1.1911 306.3 772.71)"><path d="m0 0-1e-3 -73.258c1.048 2.516 2.098 3.565 2.098 3.565l1e-3 66.129s-1.05 1.046-2.098 3.564z" fill="none" stroke="#231f20" stroke-miterlimit="10" stroke-width="1.25"/></g><g transform="matrix(1.1911 0 0 1.1911 308.8 755.8)"><path d="m0 0s1.067 10.333 8.401 10.333h22s7.166-2.445 20.5-2.445m-50.902-52.754s1.067-10.333 8.401-10.333h22s7.166 2.445 20.5 2.445" fill="none" stroke="#231f20" stroke-miterlimit="10" stroke-width="1.25"/></g><g transform="matrix(1.1911 0 0 1.1911 685.16 772.71)"><path d="m0 0 1e-3 -73.258c-1.048 2.516-2.098 3.565-2.098 3.565l-1e-3 66.129s1.05 1.046 2.098 3.564" fill="#fff"/></g><g transform="matrix(1.1911 0 0 1.1911 685.16 772.71)"><path d="m0 0 1e-3 -73.258c-1.048 2.516-2.098 3.565-2.098 3.565l-1e-3 66.129s1.05 1.046 2.098 3.564z" fill="none" stroke="#231f20" stroke-miterlimit="10" stroke-width="1.25"/></g><g transform="matrix(1.1911 0 0 1.1911 682.67 755.8)"><path d="m0 0s-1.067 10.333-8.401 10.333h-22s-7.166-2.445-20.5-2.445m50.902-52.754s-1.067-10.333-8.401-10.333h-22s-7.166 2.445-20.5 2.445" fill="none" stroke="#231f20" stroke-miterlimit="10" stroke-width="1.25"/></g><path d="m656.58 765.2c-6.1959-1.0803-13.656-2.2904-20.494-2.2904h-280.72c-6.8379 0-14.298 1.2101-20.494 2.2904m0-72.228c6.1959 1.0815 13.656 2.2904 20.494 2.2904h280.72c6.8379 0 14.298-1.2089 20.494-2.2904" fill="none" stroke="#231f20" stroke-miterlimit="10" stroke-width=".8933"/><g transform="matrix(1.1911 0 0 1.1911 117.14 771.34)"><path d="m0 0c3.391-1.37 4.29-4.66 4.29-4.66-2.849 0.08-3.689 2.28-4.29 4.66" fill="#fff"/></g><g transform="matrix(1.1911 0 0 1.1911 303.31 700.8)"><path d="m0 0c-0.64 3.468-3.087 9.124-7.827 12.106-3.917 2.459-7.339 1.927-7.355 3.149-0.029 1.554 4.362 1.073 4.362 1.073-4.735 2.712-11.527-0.607-12.498 0.946-0.573 0.931 3.161 2.238 3.161 2.238-5.776 0.212-12.592-2.765-15.326-5.466 6.89 2.313 16.593 0.983 21.05-2.825-1.887 1.06-3.933 1.768-6.033 2.188-7.819 1.572-16.523-0.755-21.763-2.935-5.914-2.003-10.425-4.961-10.425-4.961-3.904-2.269-11.114-4.384-16.003-2.315l-1e-3 -0.01s7.654-12.749 17.059-8.314c0.691 0.384 1.352 0.78 1.973 1.168 5.134 2.785 10.304 7.431 10.304 7.431 1.798 1.257 7.334 4.862 13.999 6.876 1.485 0.443 2.992 0.535 4.424 0.329 3.717-0.505 6.957-2.888 8.02-5.737 2.87 0.5 10.145-1.904 12.879-4.941" fill="#231f20"/></g><g transform="matrix(1.1911 0 0 1.1911 122.25 765.79)"><path d="m0 0s-0.899 3.29-4.29 4.66c0.601-2.38 1.44-4.58 4.29-4.66m-10.92-8.8c-0.79 4.26-6.67 4.99-9.699 3.03 1.05 2.82 4 5.38 6.279 6.19-1.3 0.5-2.83 0.93-4.479 1.29 1.939 1.48 6.71 2.6 9.13 2.39-0.441 0.13-0.92 0.23-1.441 0.3l0.46 2.77c-0.269 2.32-2.37 4.98-4.87 6.58-1.239 3.55-0.029 10.01 1.681 11.73-0.861-9.29 12.259-15.03 14.809-21.88-1.439 5.85-7.51 9.71-10.349 13.27-0.901 2.34-0.031 6.21 1.059 7.52-0.5-6.23 6.08-11.31 9.57-14.91 4.121-4.23 5.21-7.9 4.541-10.85 0.919-0.28 2.169-1.22 1.91-2.74 1.359 0.27 2.79 1.78 3.149 2.73 0.53-4.66-2.35-9.47-5.439-10.84 0 0 0.889 2.18-0.46 3.92-1.321 1.71-5.21 1.85-6.531 1.8 0 0 1.691 2.34 1.08 3.57-0.74 1.53-8.379 1.1-11.83-0.03 1.17 0.09 3.911-0.3 4.85-0.73-0.56-0.78-2.06-4.09-1.079-5.13 0.829-0.89 2 0.43 2.149 0.6-0.11-0.32-1.259-3.66-0.469-4.5 0.82-0.88 2.67-0.33 2.67-0.33-1.231-2.84-5.72-4.69-8.821-4.59 1.12 0.31 3.01 2.22 3.321 3.4-0.831-0.38-2.951-0.55-3.76-0.37 1.01 0.38 3.099 2.89 2.569 5.81" fill="#231f20"/></g><g transform="matrix(1.1911 0 0 1.1911 89.756 776.1)"><path d="m0 0c0.51 1.8-2.99 5.01-4.311 5.63 4.941 0.05 7.371-0.95 7.371-0.95-1.23 1.93-1.56 4.85-0.75 7.13 2.49-6.53 12.08-7.87 14.299-13.3l-0.46-2.77c-3.79 0.49-9.379-0.64-12.199-3.77 0.98-0.03 3.51-0.58 4.489-0.93-4.269-0.64-10.149-4.4-11.91-6.21 0.521 2.44 1.271 4.49 0.741 5.98-0.75 2.1-3.25 3.06-8.3 2.17 3.49 3.29 10.5 5.18 11.03 7.02" fill="#231f20"/></g><g transform="matrix(1.1911 0 0 1.1911 56.37 756.43)"><path d="m0 0 1.019-2.22c-1.369-0.23-2.909-5.64-2.909-5.64-3.49 2.02-0.55 8.48-0.55 8.48z" fill="#231f20"/></g><g transform="matrix(1.1911 0 0 1.1911 47.294 757.52)"><path d="m0 0s1.82 1.31 2.78 1.55l1.59-1.41-0.82-0.25s-1.529-5-0.91-7.07l1-2.9s-3.26 0.65-3.76 1.9c0 0-1.05 5.63 0.12 8.18" fill="#231f20"/></g><g transform="matrix(1.1911 0 0 1.1911 45.102 755)"><path d="m0 0s0.21-6.42 0.87-6.99l2.42-1.03 0.07-2.19s-4.32 1.37-4.68 3.02-0.64 5.75-0.64 5.75 0.72 1.07 1.96 1.44" fill="#231f20"/></g><g transform="matrix(1.1911 0 0 1.1911 319.95 735.85)"><path d="m0 0h298.08" fill="none" stroke="#b2b1b1" stroke-width=".25"/></g><g transform="matrix(1.1911 0 0 1.1911 319.95 711.1)"><path d="m0 0h298.08" fill="none" stroke="#b2b1b1" stroke-width=".25"/></g><g><flowRoot fill="black" font-family="sans-serif" font-size="40px" letter-spacing="0px" word-spacing="0px" style="line-height:1.25" xml:space="preserve"><flowRegion><rect x="82" y="67.53" width="178.04" height="41.97"/></flowRegion><flowPara/></flowRoot><flowRoot transform="matrix(.75 0 0 -.75 8.5571 797.2)" fill="#000000" font-family="sans-serif" font-size="40px" letter-spacing="0px" word-spacing="0px" style="line-height:1.25" xml:space="preserve"><flowRegion><rect x="83.5" y="65.5" width="154" height="43.5"/></flowRegion><flowPara>DD</flowPara></flowRoot><g transform="matrix(1.1963 -.020882 -.017452 -.99985 -13.299 1463.9)" fill="#231f20" stroke-width=".75" aria-label="DDRoller"><path d="m134.89 728.07q-1.3425 5.1221-3.1276 7.4547-2.5335 3.3418-7.0263 3.0867-1.1082-0.0629-3.2426-0.57474-2.1028-0.54007-3.1511-0.5996-0.53913-0.0306-1.4751 0.57731-0.93767 0.63787-1.4169 0.61066-0.29952-0.017-0.69674-0.43019-0.36896-0.38153-0.35366-0.65109 0.0663-1.1681 1.4318-1.9319 1.5221-0.87513 1.7708-1.5521 0.75313-2.1508 1.18-9.6687 0.13095-2.3063 0.0418-2.8522-0.21958-1.4247-1.4667-2.2167-0.58033-0.36348-0.54802-0.93256 0.0816-1.4377 1.4594-1.3595 0.50918 0.0289 1.2556 0.64221 0.74813 0.58335 1.2274 0.61056 0.74879 0.0425 3.2038-0.32891 2.455-0.37143 3.713-0.3 2.0667 0.11734 4.1239 2.5178 1.9459 2.2439 2.2445 4.3943 0.31833 2.3318 0.85274 3.504zm-6.1884 1.0308q0.5255-9.2551-3.2185-9.4677-1.6474-0.0935-1.9892 5.9268-0.22108 3.8937-0.15976 5.4597 0.11415 3.2818 1.0853 5.2299 0.50068 0.17867 0.89005 0.20078 1.6174 0.0918 2.6013-2.9473 0.65648-2.0361 0.79083-4.4022z"/><path d="m155.11 729.56q-1.4276 5.0991-3.2514 7.4016-2.5888 3.2991-7.0767 2.9692-1.107-0.0814-3.2326-0.62867-2.0935-0.57502-3.1406-0.65199-0.53855-0.0396-1.4845 0.55266-0.94816 0.62216-1.4269 0.58698-0.29919-0.022-0.68947-0.44174-0.36256-0.38762-0.34277-0.65689 0.0858-1.1668 1.4638-1.9078 1.5364-0.84965 1.7964-1.5224 0.78885-2.1379 1.3409-9.6477 0.16934-2.3038 0.0893-2.8511-0.19583-1.4282-1.4296-2.2408-0.5742-0.3731-0.53241-0.94156 0.10556-1.4361 1.4818-1.335 0.50863 0.0374 1.2447 0.66303 0.73832 0.59573 1.217 0.63092 0.74798 0.055 3.2088-0.27551 2.4608-0.33049 3.7175-0.23812 2.0644 0.15175 4.0814 2.5862 1.9083 2.276 2.171 4.4311 0.27944 2.3368 0.79426 3.5177zm-6.2047 0.92764q0.67957-9.2451-3.0603-9.52-1.6456-0.12096-2.0876 5.8928-0.2859 3.8895-0.25067 5.4563 0.0595 3.2832 0.99802 5.2473 0.49763 0.18698 0.88658 0.21557 1.6156 0.11876 2.65-2.9036 0.6903-2.0248 0.86404-4.3885z"/><path d="m175.3 743.52q-0.11648 1.3751-1.4454 2.1356-1.1744 0.71342-2.6093 0.59188-2.2719-0.19244-3.4454-1.9779-1.1264-1.6309-0.93646-3.8729 0.0456-0.53807 0.18084-1.0686-0.40282-0.57605-0.33952-1.3234 0.043-0.50818 0.39058-1.4121 0.35006-0.93378 0.39058-1.4121 0.10128-1.1957-0.56551-1.8544-0.27614-0.29436-1.4612-0.87646-1.0083-0.53702-1.406-1.1729l-0.36427 0.39065-0.0527 0.26651q-0.0532 0.62775 0.0122 1.9881 0.0679 1.3305-0.0202 2.0155 0.18899 0.25687 0.25539 0.89475 0.10593 0.88209 0.12823 0.9743 0.19813 0.85979 1.3336 1.3173 1.0184 0.41744 0.96523 1.0452-0.0582 0.68753-1.0751 0.96269-0.77265 0.23563-1.6993 0.15713t-2.6873-0.61903q-1.7581-0.57042-2.7147-0.65145-0.47829-0.0405-1.3335 0.45909-0.85522 0.4996-1.3634 0.45655-0.29893-0.0253-0.63232-0.35463-0.30603-0.29689-0.28325-0.56593 0.0988-1.1658 0.8344-1.6756 3e-3 -0.0299 1.4434-0.69064 0.87751-0.40739 1.2149-1.1917 0.67734-1.5985 1.1002-6.5906 0.11141-1.3153 0.23141-3.4428 0.14988-2.1249 0.20052-2.7228 0.0532-0.62775-0.81731-1.7251-0.83806-1.1248-0.79754-1.603 0.0253-0.29893 0.44938-0.68452 0.45395-0.38305 0.72298-0.36026 0.47829 0.0405 0.89377 0.4671 0.41801 0.3967 0.77876 0.75844 0.77975 0.0359 2.8925-0.026 1.8113-0.0573 2.8576 0.0313 2.9295 0.24815 4.405 1.6677 1.0574 1.0229 2.3962 4.0567-0.90424 3.5664-3.6498 5.4113 0.0269 0.39367 0.90797 1.0102 1.0529 0.72144 1.4729 1.4495 0.73572 1.2666 0.55848 3.3591-0.081 0.95658-0.54454 2.8743-0.46352 1.9177-0.54455 2.8743-0.0633 0.74732 0.44488 0.79036 0.11957 0.0101 0.21178-0.0122l-7e-3 -0.27157q-4e-3 -0.66271 0.58463-1.215 0.61861-0.54975 1.3062-0.49151 1.3452 0.11394 1.2312 1.4591zm-7.4946-16.02q0.20257-2.3914-0.10248-3.4108-0.11402-0.43116-0.62171-0.83546-0.50769-0.40429-0.95608-0.44227-0.65764-0.0557-0.99202 0.33747-0.20215 0.25385-0.51318 1.7931-0.22845 1.2753-0.28415 1.9329-0.10635 1.2555 0.0589 2.5039 0.36631-0.0593 0.72503-0.0289 1.2854 0.10888 1.481 0.99856 1.0351-0.84565 1.2047-2.8485z"/><path d="m184.44 739.4q-0.53995 0.38072-1.86 0.73308-1.412 0.37555-1.9176 0.69868-0.88472 0.56548-0.96766 1.6724-0.54745 0.0793-0.84661 0.0569-1.0172-0.0762-2.4667-1.2077-1.5924-1.2324-2.3889-1.4425-0.15932-0.2827-0.13691-0.58186 0.0247-0.32908 0.37313-0.96482 0.37839-0.6335 0.40529-0.99249l0.27415-4.462q0.0471-0.62824-0.1026-1.8428-0.11752-1.2423-0.0772-1.7808 0.065-0.86757 1.293-1.1967 1.0119-0.25511 2.0215-0.48031 0.59082-0.25657 1.0791-1.1526 0.41727-0.75092 1.0455-0.70385 0.47865 0.0359 2.0987 1.3004 1.6223 1.2347 2.5108 1.4216 0.21244 0.37692 0.17209 0.91541-0.0291 0.38891-0.26467 1.1234-0.20562 0.73669-0.23476 1.1256-0.31156 4.1584-0.29363 3.919-0.12621 2.4875 0.28374 3.8419zm-4.2474-1.1305q-0.17209-0.91541-0.0645-2.3514 0.0471-0.62824 0.19656-1.8204 0.15173-1.2221 0.19656-1.8204 0.0784-1.0471-0.0248-2.0777-0.49815-0.57883-1.276-0.63711-0.24518 1.6663-0.31243 2.5638-0.0359 0.47866 0.0143 1.415 0.0524 0.90645 0.0188 1.3552-0.0291 0.38891-0.23924 1.1854-0.17794 0.76885-0.20932 1.1877-0.0336 0.44874 0.0614 0.78678 0.78757 0.32977 1.0568 0.34994 0.29916 0.0224 0.58186-0.13691z"/><path d="m193.21 721.44q-0.0667 0.56688-0.94559 1.1414-0.87888 0.57452-0.97358 1.1095-0.51893 2.9126-0.96588 9.8282-0.23992 3.7123-0.14247 4.5302 0.0367 0.36312 0.59864 0.97063 0.59193 0.60945 0.56871 0.9687-0.0271 0.41913-0.8741 0.96564-0.81707 0.54844-0.87409 0.96563 0.0521 0.12362 0.0347 0.39306l-0.0426 0.65863q-0.35446 0.3679-0.80353 0.33888-0.32931-0.0213-2.1042-1.3986-1.7449-1.3754-1.9293-1.7781 0.0812-0.32544 0.5235-0.6576 0.47422-0.36017 0.54957-0.5958 0.42025-1.3858 0.70946-5.3955-0.36273 5.1473 0.33768-5.6901 0.22831-3.5326-0.50444-5.6844l-0.0164-0.2115q0.0135-0.20956 0.18451-0.5292 0.20091-0.3177 0.41047-0.30416 1.7663 0.11415 2.5687 1.1881 0.42493-0.0627 1.046-0.83427 0.65099-0.76962 1.4892-0.71545 0.62869 0.0406 1.1549 0.73602z"/><path d="m200.44 721.95q-0.0617 0.56744-0.93558 1.1496-0.87383 0.58216-0.96386 1.118-0.49348 2.917-0.88005 9.8362-0.2075 3.7142-0.10292 4.5313 0.0398 0.36279 0.6071 0.96537 0.59722 0.60426 0.57714 0.9637-0.0234 0.41934-0.86563 0.97323-0.81226 0.55555-0.86564 0.97322 0.0532 0.12316 0.0382 0.39274l-0.0368 0.65898q-0.35124 0.37098-0.80054 0.34588-0.32949-0.0184-2.1163-1.3802-1.7569-1.3601-1.9448-1.7612 0.0783-0.32614 0.51774-0.66215 0.47105-0.36429 0.54435-0.60057 0.40813-1.3894 0.66233-5.4015-0.31779 5.1503 0.28799-5.6928 0.19747-3.5345-0.55404-5.6798l-0.0182-0.21134q0.0117-0.20967 0.17989-0.53079 0.19813-0.31945 0.4078-0.30774 1.7672 0.0987 2.579 1.1657 0.42437-0.0664 1.0387-0.84338 0.64424-0.77527 1.4829-0.72841 0.62902 0.0351 1.1613 0.72591z"/><path d="m210.21 733.86q-2e-3 0.72062-1.5369 1.4628-2.4266 1.2128-2.831 1.525-1.5808 1.1005-1.6518 2.6889 0.49474 0.35246 1.3912 0.45261 1.4958 0.12696 1.4958 0.12696 0.18787-0.17178 0.35734-1.2753 0.10015-0.89642 0.75949-0.86693 1.1402 0.021 1.1099 1.371-0.0558 1.9194-2.5718 3.7889l-9e-3 0.20979q-0.0483 1.0789-0.85879 1.0727-0.74925-0.0335-3.5142-1.3283-2.7336-1.3235-2.7148-1.743 0.0147-0.32967 0.36452-0.76447 0.35111-0.46478 0.39314-0.73317 0.11538-0.56541 0.18058-2.6946 0.0603-1.3487 0.11929-2.6673 0.0764-1.7083-0.12181-2.6481-0.0219-0.18116-0.27826-0.49293-0.22501-0.34039-0.21295-0.61012 7e-3 -0.14985 0.0693-0.20711 0.37975-0.43347 1.6832-0.7055 1.851-0.42773 2.4924-0.66932 1.4367-0.56637 2.2083-1.703 0.71928 0.0322 2.2403 2.953 1.4378 2.767 1.437 3.4576zm-4.3438 0.43636q0.0228-0.50949-0.23939-1.362-0.34671-0.97647-0.78286-1.2963l-0.11661 2.6074q-0.0255 0.56943 0.31943 0.91518 0.64679-0.36146 0.81943-0.86425z"/><path d="m220.86 730.86q-0.0187 0.59971-0.94727 1.5012-0.89764 0.87244-0.92851 1.862-0.0168 0.53974-0.82645 0.51449-0.95953-0.0299-1.1714-0.93698-0.1809-0.9361-0.60069-0.9492-0.44979-0.014-0.48814 1.2154-0.0131 0.4198 0.0507 1.2622 0.0947 0.81335 0.0825 1.2032-0.0982 3.1485-0.68852 3.7904 0.19587 0.45633 1.4468 0.76549 1.132 0.27543 1.1104 0.96509-0.0234 0.74964-0.78331 1.0561-1.0026 0.38893-1.1263 0.50513-0.0928 0.0871-0.27543 1.132-0.17518 0.80493-0.7449 0.78715-0.53974-0.0168-2.2462-1.1206-1.177-0.75707-2.324-1.5132-0.0553-0.1518-0.0487-0.36169 8e-3 -0.26987 0.37947-0.61847 0.37199-0.37859 0.4357-0.49666 0.41507-0.79744 0.51609-4.0359 0.1029-3.2984-0.0574-3.9337-0.0525-0.24175-0.69813-0.71211-0.64471-0.50035-0.63349-0.86018 8e-3 -0.26986 0.34855-0.58941 0.37012-0.31862 0.83388-1.7148 0.36351-1.0692 0.96322-1.0505 2.2189 0.0692 3.4175 2.0576 0.5716-0.0422 0.92763-0.8715 0.35697-0.85929 0.77676-0.84619 0.56973 0.0178 1.9275 0.75047 1.3878 0.73363 1.3719 1.2434z"/></g></g><path d="m114.39 737.86c14.743 0.69458 31.933 1.8446 51.939 3.6149 22.734 2.0119 42.202 2.9403 58.55 3.216" fill="none"/></g></svg>
