<svg width="39" height="39" version="1.1" viewBox="0 0 39 39" xml:space="preserve" xmlns="http://www.w3.org/2000/svg"><g transform="matrix(1.3333 0 0 -1.3333 0 39)" fill="#231f20"><path d="m3.9976 25.497v-2.0933h-2.8726v-0.90381c1.182 0 1.2466-1.9365 1.2466-1.9365v-1.0635h0.75v0.31494h0.87598v-0.31494h1.251v4.4443h4.5015v0.8335h-2.6704c-1.334 0-1.8311 0.71924-1.8311 0.71924z"/><path d="m9.75 24.778v-0.8335h9.75v0.8335z"/><path d="m2.3716 9.7503v-0.5859s-0.06458-1.9366-1.2466-1.9366v-0.90233h2.8726v-3.2974h1.251s0.49706 0.72067 1.8311 0.72067h2.6704v0.83355h-4.5015v5.1679h-1.251v-0.5859h-0.87598v0.5859z"/><path d="m9.75 4.5824v-0.83355h9.75v0.83355z"/><path d="m25.252 25.497v-2.0933h2.8726v-0.90381c-1.182 0-1.2466-1.9365-1.2466-1.9365v-1.0635h-0.75v0.31494h-0.87598v-0.31494h-1.251v4.4443h-4.5015v0.8335h2.6704c1.334 0 1.8311 0.71923 1.8311 0.71923z"/><path d="m2.3716 19.5v-9.75h0.75v9.75zm1.626 0v-9.75h1.251v9.75z"/><path d="m26.878 19.5v-9.75h-0.75v9.75zm-1.626 0v-9.75h-1.251v9.75z"/><path d="m26.878 9.7503v-0.5859s0.06458-1.9366 1.2466-1.9366v-0.90233h-2.8726v-3.2974h-1.251s-0.49706 0.72067-1.8311 0.72067h-2.6704v0.83355h4.5015v5.1679h1.251v-0.5859h0.87598v0.5859z"/></g></svg>
