<svg width="201" height="201" version="1.1" viewBox="0 0 201 201" xml:space="preserve" xmlns="http://www.w3.org/2000/svg"><g transform="matrix(1.3333 0 0 -1.3333 0 201)"><path transform="matrix(.75 0 0 -.75 0 150.75)" d="m67.01 37.898v0.001953h-19.092v1.5801c0 4.2893-7.3135 7.5067-10.131 8.3867l-1.1094 0.34766v18.795h0.001954v66.98 0.35743c-1.1347 9.7067-5.0322 10.118-5.0469 10.119h-1.2637v1.2656c0 11.725 2.6865 20.979 6.3105 28.139v14.229l1.1094 0.3418c2.8173 0.8747 10.131 4.086 10.131 8.3887v1.5781h19.092 66.975 19.094v-1.5781c0-4.3027 7.3116-7.514 10.129-8.3887l1.1094-0.3418v-14.229c3.624-7.16 6.3106-16.413 6.3106-28.139v-1.2656h-1.2637c-0.01466-0.00133-3.9122-0.41247-5.0469-10.119v-0.35743h0.00391v-66.98-18.795l-1.1094-0.34766c-2.8173-0.88-10.131-4.0974-10.131-8.3867v-1.5801h-19.092v-0.001953h-66.98zm-16.115 3.1562h6.3223c-8.2413 4.416-14.178 13.009-17.385 18.637v-9.1992c2.7827-1.0427 9.8438-4.1708 11.062-9.4375zm13.744 0h2.3711 66.98 2.3711c9.7987 1.8147 17.235 11.196 21.414 17.934v8.0215 66.98h0.00586c0.0546 10.714 1.1874 23.117 3.3828 36.969v3.4121c-7.5253 13.517-18.899 19.408-22.182 20.883h-4.9961-66.975-4.9961c-3.2827-1.4746-14.656-7.3654-22.182-20.883v-3.4121c2.1955-13.852 3.3282-26.254 3.3828-36.969h0.009765v-66.98h-0.001953v-8.0215c4.1787-6.7373 11.615-16.119 21.414-17.934zm79.145 0h6.3223c1.2187 5.2667 8.2798 8.3948 11.062 9.4375v9.1992c-3.2067-5.628-9.1434-14.221-17.385-18.637zm-101.82 20.055v5.9004h0.001953v66.98h-0.009766c-0.043973 8.3651-0.76108 17.79-2.1211 28.125v-28.125-66.98h-0.001953v-1.8633c0.41333-0.86267 1.1269-2.2851 2.1309-4.0371zm117.07 0c1.004 1.752 1.7175 3.1744 2.1309 4.0371v1.8633 66.98h-0.00391v28.125c-1.36-10.335-2.0771-19.76-2.1211-28.125h-0.00586v-66.98-5.9004zm-122.36 82.145v24.336c-2.212-5.8213-3.668-12.721-3.7773-20.863 0.83067-0.30267 1.9543-0.95919 3.041-2.3672 0.26133-0.33733 0.50433-0.71347 0.73633-1.1055zm127.64 0c0.232 0.392 0.47499 0.76813 0.73633 1.1055 1.0867 1.408 2.2104 2.0645 3.041 2.3672-0.10933 8.1427-1.5653 15.042-3.7773 20.863v-24.336zm-124.48 36.021c2.0707 3.1186 4.2618 5.7164 6.3418 7.8164 3.7573 3.7974 7.4852 6.4288 10.395 8.1621h-5.6738c-1.2187-5.2666-8.2798-8.3948-11.062-9.4375v-6.541zm121.33 0v6.541c-2.7827 1.0427-9.8419 4.1709-11.061 9.4375h-5.6758c2.9093-1.7333 6.6372-4.3647 10.395-8.1621 2.08-2.1 4.2711-4.6978 6.3418-7.8164z" fill="#231f20"/></g></svg>
