<svg width="105" height="105" version="1.1" viewBox="0 0 105 105" xml:space="preserve" xmlns="http://www.w3.org/2000/svg"><g transform="matrix(1.3333 0 0 -1.3333 0 105)"><g transform="translate(-420 -394.5)" fill="#231f20"><g><path d="m446.25 471.73v-0.99609h26.25v0.99609z"/><path d="m421.5 471.75v-24.75h1.0159v11.307c0.5812-4.15 0.89177-7.9202 0.95639-11.307h0.51761c-0.0828 4.2749-0.57687 9.1869-1.474 14.642v9.0968h1.8369c0.36554-0.49452 1.3355-1.5089 3.1815-1.7283 0.16348-0.27709 0.45248-0.4715 0.79873-0.4715 0.35945 0 0.66216 0.20744 0.81954 0.50273 1.4002 0.17395 2.9538 0.7283 4.6525 1.6971h12.445v1.0114h-12.717l-0.11899-0.0684c-1.6175-0.93745-3.0735-1.4693-4.361-1.6331-0.1716 0.21337-0.42441 0.35994-0.71989 0.35994-0.30665 0-0.56614-0.15673-0.73774-0.38225-1.8094 0.24169-2.4917 1.4046-2.5211 1.4561l-0.14279 0.26773zm2.5077-24.253c0-0.16206-6e-3 -0.33273-7e-3 -0.49679h7e-3z"/><path d="m421.5 396v24.75h1.0159v-11.307c0.5812 4.15 0.89177 7.9202 0.95639 11.307h0.51761c-0.0828-4.2749-0.57687-9.1869-1.474-14.642v-9.0968h1.8369c0.36554 0.49451 1.3355 1.5089 3.1815 1.7283 0.16348 0.27709 0.45248 0.47151 0.79873 0.47151 0.35945 0 0.66216-0.20744 0.81954-0.50274 1.4002-0.17394 2.9538-0.72829 4.6525-1.6971h12.445v-1.0114h-12.717l-0.11899 0.0684c-1.6175 0.93745-3.0735 1.4693-4.361 1.6331-0.1716-0.21337-0.42441-0.35994-0.71989-0.35994-0.30665 0-0.56614 0.15674-0.73774 0.38225-1.8094-0.24169-2.4917-1.4046-2.5211-1.4561l-0.14279-0.26773zm2.5077 24.253c0 0.16205-6e-3 0.33273-7e-3 0.49678h7e-3z"/></g><path d="m421.5 447v-26.25h1.0159v26.25h-1.0159" stroke-width="0"/><path d="m423.47 447v-26.25h0.53546l-0.0179 26.25z" stroke-width="0"/><g><path d="m446.25 397v-0.99609h26.25v0.99609z"/><path d="m497.25 471.75v-24.75h-1.0159v11.307c-0.5812-4.15-0.89177-7.9202-0.95639-11.307h-0.51761c0.0828 4.2749 0.57687 9.1869 1.474 14.642v9.0968h-1.8369c-0.36554-0.49452-1.3355-1.5089-3.1815-1.7283-0.16348-0.27709-0.45248-0.4715-0.79873-0.4715-0.35945 0-0.66216 0.20744-0.81954 0.50273-1.4002 0.17395-2.9538 0.7283-4.6525 1.6971h-12.445v1.0114h12.717l0.11899-0.0684c1.6175-0.93745 3.0735-1.4693 4.361-1.6331 0.1716 0.21337 0.42441 0.35994 0.71989 0.35994 0.30665 0 0.56614-0.15673 0.73774-0.38225 1.8094 0.24169 2.4917 1.4046 2.5211 1.4561l0.14279 0.26773zm-2.5077-24.253c0-0.16206 6e-3 -0.33273 7e-3 -0.49679h-7e-3z"/><path d="m497.25 396v24.75h-1.0159v-11.307c-0.5812 4.15-0.89177 7.9202-0.95639 11.307h-0.51761c0.0828-4.2749 0.57687-9.1869 1.474-14.642v-9.0968h-1.8369c-0.36554 0.49451-1.3355 1.5089-3.1815 1.7283-0.16348 0.27709-0.45248 0.47151-0.79873 0.47151-0.35945 0-0.66216-0.20744-0.81954-0.50274-1.4002-0.17394-2.9538-0.72829-4.6525-1.6971h-12.445v-1.0114h12.717l0.11899 0.0684c1.6175 0.93745 3.0735 1.4693 4.361 1.6331 0.1716-0.21337 0.42441-0.35994 0.71989-0.35994 0.30665 0 0.56614 0.15674 0.73774 0.38225 1.8094-0.24169 2.4917-1.4046 2.5211-1.4561l0.14279-0.26773zm-2.5077 24.253c0 0.16205 6e-3 0.33273 7e-3 0.49678h-7e-3z"/></g><path d="m497.25 447v-26.25h-1.0159v26.25h1.0159" stroke-width="0"/><path d="m495.28 447v-26.25h-0.53546l0.0179 26.25z" stroke-width="0"/></g></g></svg>
