<?xml version="1.0" encoding="UTF-8" standalone="no"?>
<svg
   xmlns:dc="http://purl.org/dc/elements/1.1/"
   xmlns:cc="http://creativecommons.org/ns#"
   xmlns:rdf="http://www.w3.org/1999/02/22-rdf-syntax-ns#"
   xmlns:svg="http://www.w3.org/2000/svg"
   xmlns="http://www.w3.org/2000/svg"
   viewBox="0 0 105 105"
   height="105"
   width="105"
   xml:space="preserve"
   id="svg2"
   version="1.1"><metadata
     id="metadata8"><rdf:RDF><cc:Work
         rdf:about=""><dc:format>image/svg+xml</dc:format><dc:type
           rdf:resource="http://purl.org/dc/dcmitype/StillImage" /><dc:title></dc:title></cc:Work></rdf:RDF></metadata><defs
     id="defs6" /><g
     transform="matrix(1.3333333,0,0,-1.3333333,0,105)"
     id="g10"><g
       transform="translate(-419.99999,-394.50003)"
       id="g8462"><path
         style="fill:#231f20;fill-opacity:1;fill-rule:nonzero;stroke:none;stroke-width:0.99999994"
         d="m 446.24999,471.73471 v -0.99609 H 472.5 v 0.99609 z"
         id="path14" /><path
         style="fill:#231f20;fill-opacity:1;fill-rule:nonzero;stroke:none;stroke-width:0.99999994"
         d="m 421.49999,471.75003 v -24.75 h 1.01588 v 11.30707 c 0.5812,-4.15005 0.89177,-7.92018 0.95639,-11.30707 h 0.51761 c -0.0828,4.27493 -0.57687,9.18692 -1.474,14.64177 v 9.09682 h 1.83692 c 0.36554,-0.49452 1.33553,-1.5089 3.1815,-1.72834 0.16348,-0.27709 0.45248,-0.4715 0.79873,-0.4715 0.35945,0 0.66216,0.20744 0.81954,0.50273 1.40022,0.17395 2.9538,0.7283 4.65252,1.69711 h 12.44491 v 1.01141 H 433.5329 l -0.11899,-0.0684 c -1.61751,-0.93745 -3.07349,-1.46932 -4.361,-1.63314 -0.1716,0.21337 -0.42441,0.35994 -0.71989,0.35994 -0.30665,0 -0.56614,-0.15673 -0.73774,-0.38225 -1.80942,0.24169 -2.49167,1.40456 -2.52111,1.45614 l -0.14279,0.26773 z m 2.50773,-24.25321 c 0,-0.16206 -0.006,-0.33273 -0.007,-0.49679 h 0.007 z"
         id="path8430" /><path
         id="path8435"
         d="m 421.49999,396.00003 v 24.75 h 1.01588 v -11.30707 c 0.5812,4.15005 0.89177,7.92019 0.95639,11.30707 h 0.51761 c -0.0828,-4.27493 -0.57687,-9.18691 -1.474,-14.64176 v -9.09682 h 1.83692 c 0.36554,0.49451 1.33553,1.50889 3.1815,1.72833 0.16348,0.27709 0.45248,0.47151 0.79873,0.47151 0.35945,0 0.66216,-0.20744 0.81954,-0.50274 1.40022,-0.17394 2.9538,-0.72829 4.65252,-1.6971 h 12.44491 v -1.01142 H 433.5329 l -0.11899,0.0684 c -1.61751,0.93745 -3.07349,1.46932 -4.361,1.63314 -0.1716,-0.21337 -0.42441,-0.35994 -0.71989,-0.35994 -0.30665,0 -0.56614,0.15674 -0.73774,0.38225 -1.80942,-0.24169 -2.49167,-1.40456 -2.52111,-1.45614 l -0.14279,-0.26773 z m 2.50773,24.25322 c 0,0.16205 -0.006,0.33273 -0.007,0.49678 h 0.007 z"
         style="fill:#231f20;fill-opacity:1;fill-rule:nonzero;stroke:none;stroke-width:0.99999994" /><path
         style="fill:#231f20;fill-opacity:1;stroke:#000000;stroke-width:0;stroke-linecap:butt;stroke-linejoin:miter;stroke-miterlimit:4;stroke-dasharray:none;stroke-opacity:1"
         d="m 421.49999,447.00003 v -26.25 h 1.01588 v 26.25 h -1.01588"
         id="path8437" /><path
         style="fill:#231f20;fill-opacity:1;stroke:#000000;stroke-width:0;stroke-linecap:butt;stroke-linejoin:miter;stroke-miterlimit:4;stroke-dasharray:none;stroke-opacity:1"
         d="m 423.47226,447.00003 v -26.25 h 0.53546 l -0.0179,26.25 z"
         id="path8439" /><path
         id="path8442"
         d="m 446.24999,396.99612 v -0.99609 H 472.5 v 0.99609 z"
         style="fill:#231f20;fill-opacity:1;fill-rule:nonzero;stroke:none;stroke-width:0.99999994" /><path
         id="path8444"
         d="m 497.25,471.75003 v -24.75 h -1.01588 v 11.30707 c -0.5812,-4.15005 -0.89177,-7.92018 -0.95639,-11.30707 h -0.51761 c 0.0828,4.27493 0.57687,9.18692 1.474,14.64177 v 9.09682 h -1.83692 c -0.36554,-0.49452 -1.33553,-1.5089 -3.1815,-1.72834 -0.16348,-0.27709 -0.45248,-0.4715 -0.79873,-0.4715 -0.35945,0 -0.66216,0.20744 -0.81954,0.50273 -1.40022,0.17395 -2.9538,0.7283 -4.65252,1.69711 H 472.5 v 1.01141 h 12.71709 l 0.11899,-0.0684 c 1.61751,-0.93745 3.07349,-1.46932 4.361,-1.63314 0.1716,0.21337 0.42441,0.35994 0.71989,0.35994 0.30665,0 0.56614,-0.15673 0.73774,-0.38225 1.80942,0.24169 2.49167,1.40456 2.52111,1.45614 l 0.14279,0.26773 z m -2.50773,-24.25321 c 0,-0.16206 0.006,-0.33273 0.007,-0.49679 h -0.007 z"
         style="fill:#231f20;fill-opacity:1;fill-rule:nonzero;stroke:none;stroke-width:0.99999994" /><path
         style="fill:#231f20;fill-opacity:1;fill-rule:nonzero;stroke:none;stroke-width:0.99999994"
         d="m 497.25,396.00003 v 24.75 h -1.01588 v -11.30707 c -0.5812,4.15005 -0.89177,7.92019 -0.95639,11.30707 h -0.51761 c 0.0828,-4.27493 0.57687,-9.18691 1.474,-14.64176 v -9.09682 h -1.83692 c -0.36554,0.49451 -1.33553,1.50889 -3.1815,1.72833 -0.16348,0.27709 -0.45248,0.47151 -0.79873,0.47151 -0.35945,0 -0.66216,-0.20744 -0.81954,-0.50274 -1.40022,-0.17394 -2.9538,-0.72829 -4.65252,-1.6971 H 472.5 v -1.01142 h 12.71709 l 0.11899,0.0684 c 1.61751,0.93745 3.07349,1.46932 4.361,1.63314 0.1716,-0.21337 0.42441,-0.35994 0.71989,-0.35994 0.30665,0 0.56614,0.15674 0.73774,0.38225 1.80942,-0.24169 2.49167,-1.40456 2.52111,-1.45614 l 0.14279,-0.26773 z m -2.50773,24.25322 c 0,0.16205 0.006,0.33273 0.007,0.49678 h -0.007 z"
         id="path8446" /><path
         id="path8448"
         d="m 497.25,447.00003 v -26.25 h -1.01588 v 26.25 H 497.25"
         style="fill:#231f20;fill-opacity:1;stroke:#000000;stroke-width:0;stroke-linecap:butt;stroke-linejoin:miter;stroke-miterlimit:4;stroke-dasharray:none;stroke-opacity:1" /><path
         id="path8450"
         d="m 495.27773,447.00003 v -26.25 h -0.53546 l 0.0179,26.25 z"
         style="fill:#231f20;fill-opacity:1;stroke:#000000;stroke-width:0;stroke-linecap:butt;stroke-linejoin:miter;stroke-miterlimit:4;stroke-dasharray:none;stroke-opacity:1" /></g></g></svg>