<svg width="75" height="75" version="1.1" viewBox="0 0 75 75" xml:space="preserve" xmlns="http://www.w3.org/2000/svg"><g transform="matrix(1.3333 0 0 -1.3333 -298.04 880.74)"><path d="m275.07 645.12c-5.282 1.07-5.981 9.113-5.987 9.194l-0.042 0.513-17.38 5.315-17.382-5.315-0.042-0.513c-6e-3 -0.081-0.706-8.124-5.987-9.194l-0.591-0.119v-12.466l0.022-0.188c0.057-0.224 5.839-22.443 23.795-27.234l0.185-0.05 0.183 0.05c17.956 4.791 23.738 27.01 23.794 27.234l0.023 12.654zm-0.874-12.484c-0.407-1.505-6.125-21.501-22.535-26.018-16.412 4.517-22.13 24.513-22.537 26.018v11.154c5.066 1.479 6.27 7.975 6.518 9.885l16.019 4.898 16.016-4.898c0.247-1.91 1.452-8.406 6.519-9.885zm-8.031 19.408-0.048 0.24-13.365 4.088c-0.048 0.582-0.51 1.044-1.09 1.044-0.582 0-1.044-0.461-1.092-1.044l-13.367-4.089-0.048-0.24c-0.388-1.953-1.65-6.509-5.205-8.874-0.19 0.155-0.419 0.262-0.681 0.262-0.613 0-1.109-0.51-1.109-1.139 0-0.484 0.295-0.892 0.709-1.056v-8.291l0.016-0.116c0.571-1.979 5.876-19.086 19.677-23.985 0.033-0.601 0.506-1.079 1.1-1.079 0.599 0 1.082 0.492 1.101 1.103 5.647 1.999 10.517 6.173 14.473 12.477 3.24 5.166 4.799 10.095 5.198 11.482l0.015 8.408c0.415 0.164 0.712 0.572 0.712 1.057 0 0.629-0.497 1.139-1.11 1.139-0.262 0-0.493-0.107-0.682-0.262-3.554 2.365-4.817 6.921-5.204 8.875m-13.661-42.421c-0.205 0.25-0.499 0.42-0.842 0.42-0.345 0-0.64-0.17-0.843-0.421-13.298 4.724-18.514 21.2-19.151 23.383v8.23c0.416 0.165 0.711 0.572 0.711 1.057 0 0.057-0.024 0.107-0.033 0.162 3.695 2.433 5.078 7.001 5.542 9.184l12.912 3.947c0.205-0.266 0.506-0.447 0.862-0.447 0.354 0 0.656 0.181 0.859 0.447l12.91-3.947c0.464-2.182 1.848-6.751 5.542-9.185-8e-3 -0.056-0.032-0.104-0.032-0.161 0-0.485 0.295-0.892 0.711-1.056v-8.232c-0.637-2.183-5.854-18.658-19.148-23.381" fill="#231f20"/></g></svg>
