<svg width="70" height="70" version="1.1" viewBox="0 0 70 70" xml:space="preserve" xmlns="http://www.w3.org/2000/svg"><g transform="matrix(1.3333 0 0 -1.3333 -448.31 879.61)"><g transform="translate(383.59 658.1)"><path d="m0 0h-42.215l-5.012-5.013v-39.253l5.012-5.012h42.215l5.013 5.012v39.253zm3.638-5.583v-3.875c-0.408 1.222-0.987 2.525-1.799 3.756v0.071h-0.046c-1.155 1.727-2.782 3.294-5.07 4.256h2.707zm-8.852-42.32h-31.812c-2.614 0.632-4.706 2.072-6.278 4.279v37.947c1.367 1.915 3.37 3.579 6.303 4.302h31.812c2.614-0.632 4.706-2.071 6.278-4.278v-37.948c-1.366-1.915-3.37-3.579-6.303-4.302m-40.638 36.174c0.302 1.417 0.842 3.181 1.798 4.873v-35.581c-0.167 0.297-0.343 0.579-0.495 0.899-0.657 1.384-1.057 2.775-1.303 3.939zm47.691 4.888c0.167-0.297 0.344-0.579 0.495-0.898 0.657-1.385 1.058-2.776 1.304-3.94v-25.869c-0.303-1.418-0.843-3.182-1.799-4.873zm-43.483 5.466h2.707c-2.289-0.962-3.915-2.529-5.071-4.256h-0.046v-0.071c-0.812-1.231-1.391-2.534-1.798-3.756v3.875zm-4.208-42.321v3.876c0.407-1.221 0.986-2.525 1.798-3.755v-0.072h0.046c1.156-1.726 2.782-3.294 5.071-4.256h-2.707zm45.282-4.207h-2.707c2.288 0.962 3.915 2.53 5.07 4.256h0.046v0.072c0.812 1.23 1.391 2.534 1.799 3.755v-3.876z" fill="#231f20"/></g></g></svg>
