<?xml version="1.0" encoding="UTF-8" standalone="no"?>
<svg
   xmlns:dc="http://purl.org/dc/elements/1.1/"
   xmlns:cc="http://creativecommons.org/ns#"
   xmlns:rdf="http://www.w3.org/1999/02/22-rdf-syntax-ns#"
   xmlns:svg="http://www.w3.org/2000/svg"
   xmlns="http://www.w3.org/2000/svg"
   xmlns:sodipodi="http://sodipodi.sourceforge.net/DTD/sodipodi-0.dtd"
   xmlns:inkscape="http://www.inkscape.org/namespaces/inkscape"
   version="1.1"
   id="svg2"
   xml:space="preserve"
   width="198"
   height="150"
   viewBox="0 0 198 150"
   sodipodi:docname="emblem-oversize.svg"
   inkscape:version="0.92.1 r15371"><sodipodi:namedview
     pagecolor="#ffffff"
     bordercolor="#666666"
     borderopacity="1"
     objecttolerance="10"
     gridtolerance="10"
     guidetolerance="10"
     inkscape:pageopacity="0"
     inkscape:pageshadow="2"
     inkscape:window-width="2026"
     inkscape:window-height="1056"
     id="namedview19"
     showgrid="false"
     inkscape:zoom="4.0997908"
     inkscape:cx="110.48189"
     inkscape:cy="80.929644"
     inkscape:window-x="0"
     inkscape:window-y="0"
     inkscape:window-maximized="0"
     inkscape:current-layer="svg2" /><metadata
     id="metadata8"><rdf:RDF><cc:Work
         rdf:about=""><dc:format>image/svg+xml</dc:format><dc:type
           rdf:resource="http://purl.org/dc/dcmitype/StillImage" /><dc:title></dc:title></cc:Work></rdf:RDF></metadata><defs
     id="defs6"><clipPath
       id="clipPath8700"
       clipPathUnits="userSpaceOnUse"><rect
         y="295.5"
         x="97.5"
         height="64"
         width="164"
         id="rect8702"
         style="fill:#231f20;fill-opacity:1;stroke:none;stroke-width:0;stroke-miterlimit:4;stroke-dasharray:none;stroke-dashoffset:0;stroke-opacity:0" /></clipPath><clipPath
       id="clipPath8706"
       clipPathUnits="userSpaceOnUse"><rect
         y="379"
         x="392"
         height="15.5"
         width="68"
         id="rect8708"
         style="fill:#231f20;fill-opacity:1;stroke:none;stroke-width:0;stroke-miterlimit:4;stroke-dasharray:none;stroke-dashoffset:0;stroke-opacity:0" /></clipPath></defs><g
     id="g8439"><path
       inkscape:connector-curvature="0"
       id="path8428"
       d="m 164.54007,140.85889 -6.03659,6.03658 4.74304,-0.34495 12.8493,-3.88066 -4.74303,-1.72474 z"
       style="fill:#ffffff;stroke:none;stroke-width:1px;stroke-linecap:butt;stroke-linejoin:miter;stroke-opacity:1;fill-opacity:1" /><path
       inkscape:connector-curvature="0"
       id="path8432"
       d="m 189.97997,99.637631 c 0,0 1.98344,1.293549 2.32839,1.810979 0.34495,0.51742 1.81098,3.53571 1.81098,3.53571 l 0.77613,3.277 -0.51742,2.93206 -2.58711,6.81272 -1.03484,2.32839 0.68989,7.58885 0.25871,5.26046 -21.25291,1.47595 -1.87334,0 -30.16817,-1.99337 c 0,0 -11.55575,13.45296 -38.03049,13.62543 -26.474738,0.17248 -40.100173,-12.76306 -40.100173,-12.76306 l -3.449478,-0.43119 -27.507763,1.56205 -3.88248,-0.096 -2.414635,-1.55227 -16.8162018,0.0862 0.8623694,-14.31533 -3.880662,-8.96864 0.9486062,-5.95035 4.3980837,-5.6054 L 5.4329268,66.608885 3.1907666,49.792683 6.1963018,46.001485 5.8013233,44.138342 5.8641115,33.407665 6.1228223,20.558362 5.9458276,16.023584 6.2213495,10.777113 9.2273519,10.899826 15.522648,7.3641113 17.764808,2.3623691 180.32143,2.2761322 c 0,0 0.94861,3.0182927 1.03484,3.3632404 0.0862,0.3449477 6.72648,4.7430314 6.72648,4.7430314 l 2.50087,0.948606 1.14088,-1.214763 0.32939,5.907337 -0.17671,12.64105 -0.0862,12.676829 0.40976,2.797206 -0.3969,1.863143 -1.39265,1.29 3.88066,2.328397 -0.25871,2.673345 -2.58711,24.232578 z"
       style="fill:#ffffff;fill-opacity:1;stroke:none;stroke-width:1px;stroke-linecap:butt;stroke-linejoin:miter;stroke-opacity:1"
       sodipodi:nodetypes="ccccccccccccscccccccccccccccccccccccccccccccccccc" /><path
       style="fill:#ffffff;fill-opacity:1;stroke:none;stroke-width:1px;stroke-linecap:butt;stroke-linejoin:miter;stroke-opacity:1"
       d="m 33.804874,140.85889 6.03659,6.03658 -4.74304,-0.34495 -12.8493,-3.88066 4.74303,-1.72474 z"
       id="path8434"
       inkscape:connector-curvature="0" /></g><path
     id="path8442"
     d="m 170.86361,131.59915 v 0.002 h 1.58594 l -3.8711,3.0586 h -0.77344 -31.42968 a 43.158621,22.112132 0 0 0 2.92383,-3.06055 z"
     style="fill:#231f20;fill-opacity:1;fill-rule:nonzero;stroke:none;stroke-width:1.33333325"
     inkscape:connector-curvature="0" /><g
     transform="matrix(3.188805,0,0,-2.3701201,99.002088,140.28357)"
     id="g16"
     style="stroke-width:0.48499754"><path
       id="path18"
       style="fill:#deddde;fill-opacity:1;fill-rule:nonzero;stroke:none;stroke-width:0.48499754"
       d="m 0,0 c -5.939,0 -10.958,3.201 -10.958,6.989 0,3.788 5.019,6.989 10.958,6.989 5.939,0 10.958,-3.201 10.958,-6.989 C 10.958,3.201 5.939,0 0,0 m 0,-2.5 c 7.434,0 13.458,4.249 13.458,9.489 0,5.24 -6.024,9.489 -13.458,9.489 -7.433,0 -13.458,-4.249 -13.458,-9.489 0,-5.24 6.025,-9.489 13.458,-9.489" /></g><path
     style="fill:#231f20;fill-opacity:1;fill-rule:nonzero;stroke:none;stroke-width:1.33333325"
     d="M 27.037109 131.59961 L 27.037109 131.60156 L 25.451172 131.60156 L 29.322266 134.66016 L 30.095703 134.66016 L 61.525391 134.66016 A 43.158621 22.112132 0 0 1 58.601562 131.59961 L 27.037109 131.59961 z "
     id="path8464" /><path
     id="path8615"
     d="m 99.001348,99.566341 c -24.784314,0 -44.956259,10.830969 -44.956259,24.153419 0,2.2919 0.632275,4.49673 1.749732,6.59902 -1.844461,-0.0213 -2.761778,-0.97092 -2.787184,-0.99226 -1.463512,-3.54569 -2.507901,-9.41341 2.000063,-16.02842 0,0 -4.344619,2.58819 -5.262102,8.2907 l -0.01031,-0.0386 c -4.590511,7.19094 -9.702979,6.63328 -10.947442,6.36782 5.488924,1.57377 9.149974,-1.05898 10.867441,-2.80339 0.17786,1.91032 0.750558,4.0702 1.842637,6.48536 h -2.567823 l 1.48908,3.05963 h 2.467174 0.890351 5.192418 c 1.790484,1.88425 4.036616,3.62483 6.655693,5.18674 -0.08338,-0.006 -0.189438,-0.004 -0.273555,-0.01 1.920701,1.08062 3.138301,1.72922 4.76145,2.63769 6.246409,2.66898 13.858554,4.47039 22.19167,5.11352 l -0.05169,-0.0174 c 2.209554,0.18249 4.456515,0.30635 6.748617,0.30635 2.292071,0 4.536471,-0.12385 6.746011,-0.30635 l -0.0517,0.0174 c 8.33311,-0.64313 15.94526,-2.44454 22.19166,-5.11352 1.62317,-0.90847 2.84073,-1.55707 4.76144,-2.63769 -0.084,0.006 -0.19016,0.004 -0.27356,0.01 2.61908,-1.56191 4.86519,-3.30249 6.6557,-5.18674 h 5.19243 0.89035 0.84131 l 2.96526,-3.05963 h -2.41557 c 1.09208,-2.41516 1.6622,-4.57504 1.84006,-6.48536 1.71747,1.74441 5.37855,4.37716 10.86744,2.80339 -1.24447,0.26546 -6.35434,0.82312 -10.94486,-6.36782 l -0.0106,0.0386 c -0.91747,-5.70251 -5.26467,-8.2907 -5.26467,-8.2907 4.50796,6.61501 3.46359,12.48273 2.00006,16.02842 -0.0257,0.0213 -0.94013,0.97094 -2.78461,0.99226 1.11747,-2.10229 1.74716,-4.30712 1.74716,-6.59902 0,-13.32245 -20.16937,-24.153419 -44.953686,-24.153419 z m 0,3.333239 c 22.323982,0 40.489022,9.34168 40.489022,20.82018 0,2.78963 -1.09404,5.45004 -3.0401,7.88415 -0.39047,0.48824 -0.82111,0.96227 -1.28778,1.43156 -0.0476,0.0522 -0.10082,0.10541 -0.15485,0.15992 -0.50794,0.49772 -1.04668,0.98553 -1.61811,1.4643 -7.14929,5.91819 -19.87376,9.88025 -34.388182,9.88025 -14.514387,0 -27.241485,-3.96206 -34.390771,-9.88025 -0.571411,-0.47877 -1.110157,-0.96658 -1.618104,-1.4643 -0.05405,-0.0546 -0.104648,-0.10779 -0.15227,-0.15992 -0.466667,-0.46929 -0.897302,-0.94332 -1.287783,-1.43156 -1.946058,-2.43411 -3.042671,-5.09452 -3.042671,-7.88415 0,-11.4785 18.167612,-20.82018 40.491599,-20.82018 z"
     style="fill:#231f20;fill-opacity:1;fill-rule:nonzero;stroke:none;stroke-width:1.33333313" /><path
     id="path8466"
     d="m 149.18428,1.0278892 v 3.0596379 h 29.85652 c 1.14002,4.6833574 7.28626,7.3832459 9.8128,8.3099619 l 0.68592,9.851341 c 1.51926,-3.676056 2.24078,-11.471717 2.24078,-11.471717 l -0.0558,-0.660866 -0.97878,-0.300569 C 188.4514,9.1046419 181.91551,6.2436883 181.91551,2.5557814 V 1.0278892 Z"
     style="fill:#231f20;fill-opacity:1;fill-rule:nonzero;stroke:none;stroke-width:1.33333325" /><path
     id="path8722"
     d="m 5.9458276,16.023584 -1.9228706,21.456 0.11175,0.308276 C 4.8078271,39.724249 5.33915,41.889099 5.8013233,44.138342 6.8915906,43.448637 7.7678741,41.93753 8.2347759,40.982368 7.900589,39.64088 7.5479101,38.33308 7.130763,37.107726 l 0.3988319,-4.44688 c 0.8390226,2.505217 1.6625107,4.445783 1.7359785,4.616432 0.4432243,1.910317 0.076004,3.67774 -0.649306,5.234909 -0.6541531,1.905577 -2.4199656,3.489298 -2.4199656,3.489298 -1.6804093,1.798921 -3.3925457,2.886095 -3.4257155,2.907426 l -0.7340819,0.454707 0.2543276,0.818858 c 1.974316,6.411175 4.1212629,46.532315 4.1212629,46.532315 0.00534,0.609121 0.013487,1.223483 0.013487,1.820754 -3.0171571,3.396375 -4.3847357,7.179475 -4.0268534,11.265555 0.2891605,3.28973 1.6635391,6.40335 3.4411293,9.16928 -0.1208761,2.15443 -0.2524708,4.11609 -0.3757112,5.85339 -0.1422072,-0.01 -0.2973644,-0.0174 -0.4277328,-0.0174 v -0.008 c -2.3203419,-0.19198 -4.34854697,1.09744 -3.3602069,2.7186 0.9835939,1.6259 2.6627328,1.79953 2.6627328,1.79957 0,0 -0.6360855,-0.40422 -1.159888,-1.3333 -0.2607014,-0.46692 -0.05209,-0.68138 0.2157931,-0.78804 0.194344,-0.0331 0.3824843,-0.0678 0.593431,-0.0867 h 0.00386 c 0.4289857,-0.0355 0.8721314,-0.0434 1.3082457,-0.0386 -0.2773046,3.60259 -0.5021414,5.77727 -0.5163622,5.89577 l -0.181112,1.6936 h 16.2788937 2.91706 c 2.27768,1.62828 4.426806,3.33582 6.284974,4.89773 -6.73824,-0.0593 -10.964987,3.29855 -10.964987,3.29855 l 4.286961,1.69745 c 2.069115,0.87694 5.349988,2.12889 8.329229,2.71667 -0.01902,0.005 -0.04431,0.01 -0.04431,0.01 0.180141,0.0331 0.336219,0.0598 0.516361,0.0906 0.127987,0.0237 0.255433,0.0489 0.383419,0.0655 15.043158,2.60477 16.612215,1.16952 16.612215,1.16952 -6.470428,0 -10.554595,-4.22145 -10.554595,-4.22145 l -0.371857,-0.37378 c -0.151628,-0.14932 -0.959743,-0.96904 -2.256194,-2.18491 0.955153,0.0521 1.895183,0.11875 2.80531,0.1946 h 0.0097 c 0.229913,0.0213 0.45453,0.048 0.682061,0.0694 0.43846,0.0522 1.060658,0.15452 1.77644,0.32754 0.41713,0.10192 0.877934,0.24879 1.344853,0.41232 0.08764,0.0308 0.178796,0.0646 0.273595,0.10019 0.488251,0.18724 0.986289,0.41142 1.481651,0.68399 0.04746,0.026 0.08895,0.0568 0.138724,0.0829 0.08319,0.049 0.162357,0.11894 0.244694,0.17148 -0.01423,-0.0113 -0.005,-0.0103 -0.01927,-0.0212 -2.77137,-2.17152 -3.288619,-2.45132 -5.356294,-4.00951 -1.828572,-0.16993 -3.869239,-0.31813 -5.961285,-0.34103 -1.661459,-1.46474 -3.682982,-3.15092 -5.891922,-4.83608 h 0.01734 l -0.277449,-0.2023 c -1.149496,-0.8722 -2.343542,-1.73939 -3.576,-2.57604 l -0.393051,-0.28129 h -0.02697 c -1.76577,-1.18505 -3.590291,-2.31376 -5.429509,-3.28314 -0.367375,-0.26308 -5.213438,-3.80731 -8.9534878,-8.82247 v -0.008 c 0,0 -0.030205,-0.0348 -0.084775,-0.10596 -0.239388,-0.32945 -0.4772121,-0.66149 -0.7071078,-0.99805 -0.078214,-0.11376 -0.1555695,-0.22504 -0.2408405,-0.35066 -1.69463,-2.57395 -3.0035886,-5.44973 -3.261944,-8.43134 -0.2275316,-2.57632 0.387259,-5.02683 1.788,-7.32348 -0.042662,3.49356 -0.1295625,6.86714 -0.2504741,9.98621 0.5854137,1.45526 1.6690267,3.90002 2.8611853,5.41216 C 9.3355684,111.6861 11.832461,60.189112 9.265621,45.752711 10.97449,43.36126 12.229957,40.228677 11.369604,36.58343 11.289078,36.36301 8.832479,30.583109 8.1095865,26.198387 c 0,0 -2.1854796,-6.96826 -2.1617844,-10.17503 z m 0.6878405,32.677241 c 1.220618,8.25987 1.4423348,21.839935 1.3641208,28.81994 C 7.1587664,68.699178 6.0413014,55.388517 4.6452888,50.3212 5.1453963,49.963313 5.8562746,49.411861 6.6336681,48.700825 Z m 2.0654483,74.099885 c 0.886431,1.03812 1.7826736,2.00112 2.6453926,2.84962 -0.9599,-0.25834 -1.889108,-0.42853 -2.8110908,-0.53755 0.056883,-0.72289 0.1136151,-1.5086 0.1656982,-2.31207 z m -0.3294697,4.49505 c 3.3394873,0.40055 7.1088523,2.09535 10.7896553,4.3043 H 7.9939354 c 0.099545,-1.02863 0.2287579,-2.50064 0.3757113,-4.3043 z m 24.2266303,14.43887 c 1.678045,1.49554 2.931479,2.69093 3.585633,3.33323 -0.03325,0.0284 -0.07102,0.0572 -0.113677,0.0809 -1.64724,0.92672 -7.061914,-0.69721 -11.385013,-2.47006 2.043055,-0.68971 4.914867,-0.93929 7.913057,-0.94409 z"
     style="fill:#231f20;fill-opacity:1;fill-rule:nonzero;stroke:none;stroke-width:1.33333325" /><path
     id="path8745"
     d="m 16.08425,1.0278892 v 1.5278922 c 0,3.6879069 -6.5339676,6.5488605 -8.8282499,7.2598966 l -0.9807026,0.300569 -0.053948,0.660866 c 0,0 0.7196005,7.795661 2.2388535,11.471717 L 9.1480432,12.397489 C 11.674585,11.470773 17.818883,8.7708845 18.958923,4.0875271 h 31.29 V 1.0278892 Z"
     style="fill:#231f20;fill-opacity:1;fill-rule:nonzero;stroke:none;stroke-width:1.33333325" /><path
     id="path8781"
     d="M 49.954905,0.99999986 H 149.58967 V 4.0879587 H 49.954905 Z"
     style="fill:#231f20;fill-opacity:1;stroke:none;stroke-width:1px;stroke-linecap:butt;stroke-linejoin:miter;stroke-opacity:1" /><path
     style="fill:#231f20;fill-opacity:1;fill-rule:nonzero;stroke:none;stroke-width:1.33333325"
     d="m 192.05473,16.023584 1.92287,21.456 -0.11175,0.308276 c -0.67312,1.936389 -1.20444,4.101239 -1.66662,6.350482 -1.09026,-0.689705 -1.96655,-2.200812 -2.43345,-3.155974 0.33419,-1.341488 0.68687,-2.649288 1.10401,-3.874642 l -0.39883,-4.44688 c -0.83902,2.505217 -1.66251,4.445783 -1.73598,4.616432 -0.44322,1.910317 -0.076,3.67774 0.64931,5.234909 0.65415,1.905577 2.41996,3.489298 2.41996,3.489298 1.68041,1.798921 3.39255,2.886095 3.42572,2.907426 l 0.73408,0.454707 -0.25433,0.818858 c -1.97431,6.411175 -4.12126,46.532315 -4.12126,46.532315 -0.005,0.609121 -0.0135,1.223483 -0.0135,1.820754 3.01716,3.396375 4.38474,7.179475 4.02685,11.265555 -0.28916,3.28973 -1.66353,6.40335 -3.44112,9.16928 0.12087,2.15443 0.25247,4.11609 0.37571,5.85339 0.1422,-0.01 0.29736,-0.0174 0.42773,-0.0174 v -0.008 c 2.32034,-0.19198 4.34855,1.09744 3.36021,2.7186 -0.9836,1.6259 -2.66274,1.79953 -2.66274,1.79957 0,0 0.63609,-0.40422 1.15989,-1.3333 0.2607,-0.46692 0.0521,-0.68138 -0.21579,-0.78804 -0.19435,-0.0331 -0.38249,-0.0678 -0.59343,-0.0867 h -0.004 c -0.42899,-0.0355 -0.87213,-0.0434 -1.30825,-0.0386 0.27731,3.60259 0.50214,5.77727 0.51636,5.89577 l 0.18112,1.6936 h -16.2789 -2.91706 c -2.27768,1.62828 -4.4268,3.33582 -6.28497,4.89773 6.73824,-0.0593 10.96499,3.29855 10.96499,3.29855 l -4.28697,1.69745 c -2.06911,0.87694 -5.34998,2.12889 -8.32922,2.71667 0.019,0.005 0.0443,0.01 0.0443,0.01 -0.18015,0.0331 -0.33622,0.0598 -0.51637,0.0906 -0.12798,0.0237 -0.25543,0.0489 -0.38341,0.0655 -15.04316,2.60477 -16.61222,1.16952 -16.61222,1.16952 6.47043,0 10.5546,-4.22145 10.5546,-4.22145 l 0.37185,-0.37378 c 0.15163,-0.14932 0.95975,-0.96904 2.2562,-2.18491 -0.95516,0.0521 -1.89519,0.11875 -2.80531,0.1946 h -0.01 c -0.22992,0.0213 -0.45453,0.048 -0.68206,0.0694 -0.43846,0.0522 -1.06066,0.15452 -1.77644,0.32754 -0.41713,0.10192 -0.87794,0.24879 -1.34486,0.41232 -0.0876,0.0308 -0.17879,0.0646 -0.27359,0.10019 -0.48825,0.18724 -0.98629,0.41142 -1.48165,0.68399 -0.0475,0.026 -0.089,0.0568 -0.13873,0.0829 -0.0832,0.049 -0.16235,0.11894 -0.24469,0.17148 0.0142,-0.0113 0.005,-0.0103 0.0193,-0.0212 2.77137,-2.17152 3.28862,-2.45132 5.35629,-4.00951 1.82857,-0.16993 3.86924,-0.31813 5.96129,-0.34103 1.66146,-1.46474 3.68298,-3.15092 5.89192,-4.83608 h -0.0173 l 0.27745,-0.2023 c 1.14949,-0.8722 2.34354,-1.73939 3.576,-2.57604 l 0.39305,-0.28129 h 0.027 c 1.76577,-1.18505 3.59029,-2.31376 5.42951,-3.28314 0.36737,-0.26308 5.21344,-3.80731 8.95349,-8.82247 v -0.008 c 0,0 0.0302,-0.0348 0.0848,-0.10596 0.23938,-0.32945 0.47721,-0.66149 0.7071,-0.99805 0.0782,-0.11376 0.15557,-0.22504 0.24084,-0.35066 1.69463,-2.57395 3.00359,-5.44973 3.26195,-8.43134 0.22753,-2.57632 -0.38726,-5.02683 -1.788,-7.32348 0.0427,3.49356 0.12956,6.86714 0.25047,9.98621 -0.58541,1.45526 -1.66902,3.90002 -2.86118,5.41216 -0.32232,-5.98929 -2.81921,-57.486278 -0.25237,-71.922679 -1.70887,-2.391451 -2.96434,-5.524034 -2.10399,-9.169281 0.0805,-0.22042 2.53713,-6.000321 3.26002,-10.385043 0,0 2.18548,-6.96826 2.16179,-10.17503 z m -0.68784,32.677241 c -1.22062,8.25987 -1.44234,21.839935 -1.36412,28.81994 0.83902,-8.821587 1.95648,-22.132248 3.3525,-27.199565 -0.50011,-0.357887 -1.21099,-0.909339 -1.98838,-1.620375 z m -2.06545,74.099885 c -0.88643,1.03812 -1.78267,2.00112 -2.64539,2.84962 0.9599,-0.25834 1.88911,-0.42853 2.81109,-0.53755 -0.0569,-0.72289 -0.11362,-1.5086 -0.1657,-2.31207 z m 0.32947,4.49505 c -3.33949,0.40055 -7.10885,2.09535 -10.78966,4.3043 h 11.16537 c -0.0995,-1.02863 -0.22876,-2.50064 -0.37571,-4.3043 z m -24.22663,14.43887 c -1.67805,1.49554 -2.93148,2.69093 -3.58563,3.33323 0.0333,0.0284 0.071,0.0572 0.11367,0.0809 1.64724,0.92672 7.06192,-0.69721 11.38502,-2.47006 -2.04306,-0.68971 -4.91487,-0.93929 -7.91306,-0.94409 z"
     id="path8444"
     inkscape:connector-curvature="0" /></svg>