<?xml version="1.0" encoding="UTF-8" standalone="no"?>
<svg
   xmlns:dc="http://purl.org/dc/elements/1.1/"
   xmlns:cc="http://creativecommons.org/ns#"
   xmlns:rdf="http://www.w3.org/1999/02/22-rdf-syntax-ns#"
   xmlns:svg="http://www.w3.org/2000/svg"
   xmlns="http://www.w3.org/2000/svg"
   version="1.1"
   id="svg2"
   xml:space="preserve"
   width="198"
   height="150"
   viewBox="0 0 198 150"><metadata
     id="metadata8"><rdf:RDF><cc:Work
         rdf:about=""><dc:format>image/svg+xml</dc:format><dc:type
           rdf:resource="http://purl.org/dc/dcmitype/StillImage" /><dc:title></dc:title></cc:Work></rdf:RDF></metadata><defs
     id="defs6"><clipPath
       id="clipPath8700"
       clipPathUnits="userSpaceOnUse"><rect
         y="295.5"
         x="97.5"
         height="64"
         width="164"
         id="rect8702"
         style="fill:#231f20;fill-opacity:1;stroke:none;stroke-width:0;stroke-miterlimit:4;stroke-dasharray:none;stroke-dashoffset:0;stroke-opacity:0" /></clipPath><clipPath
       id="clipPath8706"
       clipPathUnits="userSpaceOnUse"><rect
         y="379"
         x="392"
         height="15.5"
         width="68"
         id="rect8708"
         style="fill:#231f20;fill-opacity:1;stroke:none;stroke-width:0;stroke-miterlimit:4;stroke-dasharray:none;stroke-dashoffset:0;stroke-opacity:0" /></clipPath></defs><g
     transform="matrix(3.188805,0,0,-2.3701201,99.002088,140.28357)"
     id="g16"
     style="stroke-width:0.48499754"><path
       id="path18"
       style="fill:#deddde;fill-opacity:1;fill-rule:nonzero;stroke:none;stroke-width:0.48499754"
       d="m 0,0 c -5.939,0 -10.958,3.201 -10.958,6.989 0,3.788 5.019,6.989 10.958,6.989 5.939,0 10.958,-3.201 10.958,-6.989 C 10.958,3.201 5.939,0 0,0 m 0,-2.5 c 7.434,0 13.458,4.249 13.458,9.489 0,5.24 -6.024,9.489 -13.458,9.489 -7.433,0 -13.458,-4.249 -13.458,-9.489 0,-5.24 6.025,-9.489 13.458,-9.489" /></g><path
     id="path8464"
     d="m 27.037889,131.60091 h -1.586642 l 3.871129,3.0587 h 0.774212 z"
     style="fill:#231f20;fill-opacity:1;fill-rule:nonzero;stroke:none;stroke-width:1.33333325" /><path
     id="path8615"
     d="m 99.001348,99.566341 c -24.784314,0 -44.956259,10.830969 -44.956259,24.153419 0,2.2919 0.632275,4.49673 1.749732,6.59902 -1.844461,-0.0213 -2.761778,-0.97092 -2.787184,-0.99226 -1.463512,-3.54569 -2.507901,-9.41341 2.000063,-16.02842 0,0 -4.344619,2.58819 -5.262102,8.2907 l -0.01031,-0.0386 c -4.590511,7.19094 -9.702979,6.63328 -10.947442,6.36782 5.488924,1.57377 9.149974,-1.05898 10.867441,-2.80339 0.17786,1.91032 0.750558,4.0702 1.842637,6.48536 h -2.567823 l 1.48908,3.05963 h 2.467174 0.890351 5.192418 c 1.790484,1.88425 4.036616,3.62483 6.655693,5.18674 -0.08338,-0.006 -0.189438,-0.004 -0.273555,-0.01 1.920701,1.08062 3.138301,1.72922 4.76145,2.63769 6.246409,2.66898 13.858554,4.47039 22.19167,5.11352 l -0.05169,-0.0174 c 2.209554,0.18249 4.456515,0.30635 6.748617,0.30635 2.292071,0 4.536471,-0.12385 6.746011,-0.30635 l -0.0517,0.0174 c 8.33311,-0.64313 15.94526,-2.44454 22.19166,-5.11352 1.62317,-0.90847 2.84073,-1.55707 4.76144,-2.63769 -0.084,0.006 -0.19016,0.004 -0.27356,0.01 2.61908,-1.56191 4.86519,-3.30249 6.6557,-5.18674 h 5.19243 0.89035 0.84131 l 2.96526,-3.05963 h -2.41557 c 1.09208,-2.41516 1.6622,-4.57504 1.84006,-6.48536 1.71747,1.74441 5.37855,4.37716 10.86744,2.80339 -1.24447,0.26546 -6.35434,0.82312 -10.94486,-6.36782 l -0.0106,0.0386 c -0.91747,-5.70251 -5.26467,-8.2907 -5.26467,-8.2907 4.50796,6.61501 3.46359,12.48273 2.00006,16.02842 -0.0257,0.0213 -0.94013,0.97094 -2.78461,0.99226 1.11747,-2.10229 1.74716,-4.30712 1.74716,-6.59902 0,-13.32245 -20.16937,-24.153419 -44.953686,-24.153419 z m 0,3.333239 c 22.323982,0 40.489022,9.34168 40.489022,20.82018 0,2.78963 -1.09404,5.45004 -3.0401,7.88415 -0.39047,0.48824 -0.82111,0.96227 -1.28778,1.43156 -0.0476,0.0522 -0.10082,0.10541 -0.15485,0.15992 -0.50794,0.49772 -1.04668,0.98553 -1.61811,1.4643 -7.14929,5.91819 -19.87376,9.88025 -34.388182,9.88025 -14.514387,0 -27.241485,-3.96206 -34.390771,-9.88025 -0.571411,-0.47877 -1.110157,-0.96658 -1.618104,-1.4643 -0.05405,-0.0546 -0.104648,-0.10779 -0.15227,-0.15992 -0.466667,-0.46929 -0.897302,-0.94332 -1.287783,-1.43156 -1.946058,-2.43411 -3.042671,-5.09452 -3.042671,-7.88415 0,-11.4785 18.167612,-20.82018 40.491599,-20.82018 z"
     style="fill:#231f20;fill-opacity:1;fill-rule:nonzero;stroke:none;stroke-width:1.33333313" /><path
     id="path8611"
     d="m 192.05389,16.023584 c 0.0237,3.20677 -2.16371,10.17503 -2.16371,10.17503 -0.72289,4.384721 -3.17948,10.164622 -3.26001,10.385043 -0.86035,3.645245 0.39511,6.77783 2.10398,9.169281 -2.56685,14.436401 -0.0679,65.933382 0.25432,71.922682 1.19218,-1.51214 2.27575,-3.95691 2.86119,-5.41216 -0.12087,-3.11908 -0.20781,-6.49266 -0.25047,-9.98622 1.40074,2.29664 2.01552,4.74523 1.788,7.32155 -0.25834,2.98161 -1.56925,5.85932 -3.26388,8.43327 -0.0853,0.12562 -0.1608,0.2369 -0.2389,0.35067 -0.2299,0.33656 -0.46965,0.6686 -0.70905,0.99804 -0.0546,0.0711 -0.0829,0.10597 -0.0829,0.10597 v 0.008 c -3.74005,5.01518 -8.58611,8.55939 -8.95349,8.82247 -1.83919,0.96938 -3.66376,2.09808 -5.42951,3.28315 h -0.0289 -35.65981 a 43.158621,22.112132 0 0 1 -2.86119,3.05963 h 34.29184 c -2.20893,1.68515 -4.23047,3.37134 -5.89193,4.83607 -2.09206,0.0229 -4.13271,0.17111 -5.96128,0.34104 -2.0677,1.55819 -2.58493,1.838 -5.3563,4.00951 -0.0142,0.0114 -0.004,0.0103 -0.0174,0.0212 0.0823,-0.0525 0.15953,-0.12244 0.24276,-0.17148 0.0498,-0.026 0.0913,-0.0567 0.13872,-0.0829 0.49536,-0.27257 0.99341,-0.49675 1.48166,-0.68399 0.0947,-0.0355 0.18787,-0.0694 0.27551,-0.10019 0.46693,-0.16354 0.92579,-0.31234 1.34293,-0.41424 0.71578,-0.17302 1.33989,-0.27349 1.77837,-0.32562 0.22754,-0.0213 0.45023,-0.048 0.68013,-0.0693 h 0.01 c 0.91011,-0.0759 1.85016,-0.14246 2.80531,-0.1946 -1.29645,1.21587 -2.10456,2.03559 -2.25619,2.18491 l -0.37187,0.37378 c 0,0 -4.08417,4.22145 -10.5546,4.22145 0,0 1.57099,1.43523 16.61415,-1.16952 0.12799,-0.0166 0.25351,-0.0418 0.38149,-0.0655 0.18014,-0.0308 0.33623,-0.0574 0.51637,-0.0906 0,0 -0.0253,-0.005 -0.0443,-0.01 2.97925,-0.58779 6.2601,-1.83973 8.32923,-2.71667 l 4.28696,-1.69746 c 0,0 -4.2248,-3.3578 -10.96306,-3.29855 1.85819,-1.56191 4.00537,-3.26946 6.28305,-4.89773 h 2.91706 16.27889 l -0.18111,-1.69359 c -0.0142,-0.11852 -0.23907,-2.2932 -0.51637,-5.89577 0.4361,-0.005 0.87926,0.003 1.30825,0.0386 h 0.004 c 0.21093,0.0189 0.39909,0.0535 0.59343,0.0867 0.26789,0.10668 0.47649,0.32112 0.2158,0.78803 -0.52381,0.92909 -1.15989,1.33329 -1.15989,1.3333 0,0 1.67913,-0.17367 2.66273,-1.79956 0.98834,-1.62117 -1.03985,-2.9106 -3.3602,-2.71861 v 0.008 c -0.1303,0 -0.28361,0.008 -0.42581,0.0174 -0.12319,-1.7373 -0.25483,-3.69896 -0.37571,-5.8534 1.77759,-2.76593 3.15196,-5.87954 3.44113,-9.16928 0.35787,-4.08608 -1.01161,-7.86917 -4.02878,-11.265548 0,-0.597271 0.0101,-1.211633 0.0154,-1.820754 0,0 2.14696,-40.12114 4.12126,-46.532315 l 0.2524,-0.818858 -0.73215,-0.454707 c -0.0332,-0.02133 -1.74723,-1.108505 -3.42764,-2.907426 0,0 -1.76388,-1.583721 -2.41804,-3.489298 -0.72531,-1.557169 -1.09254,-3.324592 -0.64931,-5.234909 0.0734,-0.170649 0.89696,-2.111215 1.73598,-4.616432 l 0.39884,4.44688 c -0.41716,1.225353 -0.76983,2.533154 -1.10402,3.874642 0.46692,0.955162 1.3432,2.466269 2.43345,3.155974 0.46218,-2.249243 0.99351,-4.414094 1.66661,-6.350482 l 0.11176,-0.308276 z m -0.68783,32.677241 c 0.7774,0.711036 1.4902,1.262488 1.9903,1.620375 -1.39601,5.067317 -2.5154,18.377978 -3.35442,27.199565 -0.0782,-6.980005 0.14347,-20.56007 1.36412,-28.81994 z m -2.06545,74.099885 c 0.0521,0.80347 0.11091,1.58918 0.16762,2.31207 -0.92199,0.10903 -1.85312,0.27921 -2.81301,0.53755 0.86271,-0.8485 1.75896,-1.8115 2.64539,-2.84962 z m 0.32946,4.49505 c 0.14701,1.80366 0.27617,3.27567 0.37572,4.3043 h -11.16537 c 3.68078,-2.20895 7.45016,-3.90375 10.78965,-4.3043 z m -24.22662,14.43887 c 2.9982,0.005 5.87001,0.25439 7.91305,0.94409 -4.3231,1.77285 -9.73779,3.39677 -11.38501,2.47006 -0.0427,-0.0237 -0.0804,-0.0524 -0.11368,-0.0809 0.65416,-0.6423 1.90759,-1.83768 3.58564,-3.33323 z"
     style="fill:#231f20;fill-opacity:1;fill-rule:nonzero;stroke:none;stroke-width:1.33333325" /><path
     id="path8672"
     d="m 27.037677,131.60006 3.057711,3.05963 H 61.52604 a 43.158621,22.112132 0 0 1 -2.924768,-3.05963 z"
     style="fill:#231f20;fill-opacity:1;fill-rule:nonzero;stroke:none;stroke-width:1.33333325" /><path
     id="path8466"
     d="m 149.18428,1.0278892 v 3.0596379 h 29.85652 c 1.14002,4.6833574 7.28626,7.3832459 9.8128,8.3099619 l 0.68592,9.851341 c 1.51926,-3.676056 2.24078,-11.471717 2.24078,-11.471717 l -0.0558,-0.660866 -0.97878,-0.300569 C 188.4514,9.1046419 181.91551,6.2436883 181.91551,2.5557814 V 1.0278892 Z"
     style="fill:#231f20;fill-opacity:1;fill-rule:nonzero;stroke:none;stroke-width:1.33333325" /><path
     id="path8722"
     d="m 5.9458276,16.023584 -1.9228706,21.456 0.11175,0.308276 C 4.8078271,39.724249 5.33915,41.889099 5.8013233,44.138342 6.8915906,43.448637 7.7678741,41.93753 8.2347759,40.982368 7.900589,39.64088 7.5479101,38.33308 7.130763,37.107726 l 0.3988319,-4.44688 c 0.8390226,2.505217 1.6625107,4.445783 1.7359785,4.616432 0.4432243,1.910317 0.076004,3.67774 -0.649306,5.234909 -0.6541531,1.905577 -2.4199656,3.489298 -2.4199656,3.489298 -1.6804093,1.798921 -3.3925457,2.886095 -3.4257155,2.907426 l -0.7340819,0.454707 0.2543276,0.818858 c 1.974316,6.411175 4.1212629,46.532315 4.1212629,46.532315 0.00534,0.609121 0.013487,1.223483 0.013487,1.820754 -3.0171571,3.396375 -4.3847357,7.179475 -4.0268534,11.265555 0.2891605,3.28973 1.6635391,6.40335 3.4411293,9.16928 -0.1208761,2.15443 -0.2524708,4.11609 -0.3757112,5.85339 -0.1422072,-0.01 -0.2973644,-0.0174 -0.4277328,-0.0174 v -0.008 c -2.3203419,-0.19198 -4.34854697,1.09744 -3.3602069,2.7186 0.9835939,1.6259 2.6627328,1.79953 2.6627328,1.79957 0,0 -0.6360855,-0.40422 -1.159888,-1.3333 -0.2607014,-0.46692 -0.05209,-0.68138 0.2157931,-0.78804 0.194344,-0.0331 0.3824843,-0.0678 0.593431,-0.0867 h 0.00386 c 0.4289857,-0.0355 0.8721314,-0.0434 1.3082457,-0.0386 -0.2773046,3.60259 -0.5021414,5.77727 -0.5163622,5.89577 l -0.181112,1.6936 h 16.2788937 2.91706 c 2.27768,1.62828 4.426806,3.33582 6.284974,4.89773 -6.73824,-0.0593 -10.964987,3.29855 -10.964987,3.29855 l 4.286961,1.69745 c 2.069115,0.87694 5.349988,2.12889 8.329229,2.71667 -0.01902,0.005 -0.04431,0.01 -0.04431,0.01 0.180141,0.0331 0.336219,0.0598 0.516361,0.0906 0.127987,0.0237 0.255433,0.0489 0.383419,0.0655 15.043158,2.60477 16.612215,1.16952 16.612215,1.16952 -6.470428,0 -10.554595,-4.22145 -10.554595,-4.22145 l -0.371857,-0.37378 c -0.151628,-0.14932 -0.959743,-0.96904 -2.256194,-2.18491 0.955153,0.0521 1.895183,0.11875 2.80531,0.1946 h 0.0097 c 0.229913,0.0213 0.45453,0.048 0.682061,0.0694 0.43846,0.0522 1.060658,0.15452 1.77644,0.32754 0.41713,0.10192 0.877934,0.24879 1.344853,0.41232 0.08764,0.0308 0.178796,0.0646 0.273595,0.10019 0.488251,0.18724 0.986289,0.41142 1.481651,0.68399 0.04746,0.026 0.08895,0.0568 0.138724,0.0829 0.08319,0.049 0.162357,0.11894 0.244694,0.17148 -0.01423,-0.0113 -0.005,-0.0103 -0.01927,-0.0212 -2.77137,-2.17152 -3.288619,-2.45132 -5.356294,-4.00951 -1.828572,-0.16993 -3.869239,-0.31813 -5.961285,-0.34103 -1.661459,-1.46474 -3.682982,-3.15092 -5.891922,-4.83608 h 0.01734 l -0.277449,-0.2023 c -1.149496,-0.8722 -2.343542,-1.73939 -3.576,-2.57604 l -0.393051,-0.28129 h -0.02697 c -1.76577,-1.18505 -3.590291,-2.31376 -5.429509,-3.28314 -0.367375,-0.26308 -5.213438,-3.80731 -8.9534878,-8.82247 v -0.008 c 0,0 -0.030205,-0.0348 -0.084775,-0.10596 -0.239388,-0.32945 -0.4772121,-0.66149 -0.7071078,-0.99805 -0.078214,-0.11376 -0.1555695,-0.22504 -0.2408405,-0.35066 -1.69463,-2.57395 -3.0035886,-5.44973 -3.261944,-8.43134 -0.2275316,-2.57632 0.387259,-5.02683 1.788,-7.32348 -0.042662,3.49356 -0.1295625,6.86714 -0.2504741,9.98621 0.5854137,1.45526 1.6690267,3.90002 2.8611853,5.41216 C 9.3355684,111.6861 11.832461,60.189112 9.265621,45.752711 10.97449,43.36126 12.229957,40.228677 11.369604,36.58343 11.289078,36.36301 8.832479,30.583109 8.1095865,26.198387 c 0,0 -2.1854796,-6.96826 -2.1617844,-10.17503 z m 0.6878405,32.677241 c 1.220618,8.25987 1.4423348,21.839935 1.3641208,28.81994 C 7.1587664,68.699178 6.0413014,55.388517 4.6452888,50.3212 5.1453963,49.963313 5.8562746,49.411861 6.6336681,48.700825 Z m 2.0654483,74.099885 c 0.886431,1.03812 1.7826736,2.00112 2.6453926,2.84962 -0.9599,-0.25834 -1.889108,-0.42853 -2.8110908,-0.53755 0.056883,-0.72289 0.1136151,-1.5086 0.1656982,-2.31207 z m -0.3294697,4.49505 c 3.3394873,0.40055 7.1088523,2.09535 10.7896553,4.3043 H 7.9939354 c 0.099545,-1.02863 0.2287579,-2.50064 0.3757113,-4.3043 z m 24.2266303,14.43887 c 1.678045,1.49554 2.931479,2.69093 3.585633,3.33323 -0.03325,0.0284 -0.07102,0.0572 -0.113677,0.0809 -1.64724,0.92672 -7.061914,-0.69721 -11.385013,-2.47006 2.043055,-0.68971 4.914867,-0.93929 7.913057,-0.94409 z"
     style="fill:#231f20;fill-opacity:1;fill-rule:nonzero;stroke:none;stroke-width:1.33333325" /><path
     id="path8745"
     d="m 16.08425,1.0278892 v 1.5278922 c 0,3.6879069 -6.5339676,6.5488605 -8.8282499,7.2598966 l -0.9807026,0.300569 -0.053948,0.660866 c 0,0 0.7196005,7.795661 2.2388535,11.471717 L 9.1480432,12.397489 C 11.674585,11.470773 17.818883,8.7708845 18.958923,4.0875271 h 31.29 V 1.0278892 Z"
     style="fill:#231f20;fill-opacity:1;fill-rule:nonzero;stroke:none;stroke-width:1.33333325" /><path
     id="path8781"
     d="M 49.954905,0.99999986 H 149.58967 V 4.0879587 H 49.954905 Z"
     style="fill:#231f20;fill-opacity:1;stroke:none;stroke-width:1px;stroke-linecap:butt;stroke-linejoin:miter;stroke-opacity:1" /></svg>