<?xml version="1.0" encoding="UTF-8" standalone="no"?>
<svg
   xmlns:dc="http://purl.org/dc/elements/1.1/"
   xmlns:cc="http://creativecommons.org/ns#"
   xmlns:rdf="http://www.w3.org/1999/02/22-rdf-syntax-ns#"
   xmlns:svg="http://www.w3.org/2000/svg"
   xmlns="http://www.w3.org/2000/svg"
   xmlns:sodipodi="http://sodipodi.sourceforge.net/DTD/sodipodi-0.dtd"
   xmlns:inkscape="http://www.inkscape.org/namespaces/inkscape"
   viewBox="0 0 152 38"
   height="38"
   width="152"
   xml:space="preserve"
   id="svg2"
   version="1.1"
   sodipodi:docname="featured-number.svg"
   inkscape:version="0.92.1 r15371"><sodipodi:namedview
     pagecolor="#ffffff"
     bordercolor="#666666"
     borderopacity="1"
     objecttolerance="10"
     gridtolerance="10"
     guidetolerance="10"
     inkscape:pageopacity="0"
     inkscape:pageshadow="2"
     inkscape:window-width="1177"
     inkscape:window-height="626"
     id="namedview8"
     showgrid="false"
     inkscape:measure-start="97.1712,-37.2927"
     inkscape:measure-end="101.898,20.4847"
     inkscape:zoom="1.9038565"
     inkscape:cx="75.373329"
     inkscape:cy="18.759333"
     inkscape:window-x="0"
     inkscape:window-y="0"
     inkscape:window-maximized="0"
     inkscape:current-layer="svg2" /><metadata
     id="metadata8"><rdf:RDF><cc:Work
         rdf:about=""><dc:format>image/svg+xml</dc:format><dc:type
           rdf:resource="http://purl.org/dc/dcmitype/StillImage" /><dc:title></dc:title></cc:Work></rdf:RDF></metadata><defs
     id="defs6" /><g
     transform="matrix(1.3333333,0,0,-1.3333333,-123.79866,888.81611)"
     id="g10"><g
       transform="matrix(-1,0,0,1,93.321,658.7676)"
       id="g12"><path
         id="path14"
         style="fill:#221c1b;fill-opacity:1;fill-rule:nonzero;stroke:none"
         d="m 0,0 -0.395,0.186 c -1.462,0.687 -3.274,3.341 -3.848,4.305 l -0.2,0.336 h -80.476 v 2.837 h -6.874 l -0.263,-0.33 c -0.442,-0.555 -0.985,-0.992 -1.587,-1.303 -1.488,0.641 -3.058,1.002 -4.644,1.085 -0.125,0.265 -0.389,0.452 -0.702,0.452 -0.312,0 -0.577,-0.187 -0.701,-0.452 -1.586,-0.083 -3.155,-0.444 -4.643,-1.085 -0.603,0.311 -1.146,0.748 -1.587,1.303 l -0.263,0.33 h -6.875 v -28.139 h 6.875 l 0.263,0.33 c 0.441,0.554 0.983,0.992 1.585,1.302 1.485,-0.643 3.042,-1.009 4.649,-1.091 0.126,-0.261 0.388,-0.445 0.697,-0.445 0.309,0 0.572,0.184 0.697,0.445 1.608,0.082 3.166,0.448 4.651,1.091 0.601,-0.31 1.144,-0.748 1.585,-1.302 l 0.263,-0.33 h 6.874 v 2.837 h 80.087 0.391 l 0.2,0.336 c 0.574,0.965 2.385,3.618 3.847,4.306 l 0.396,0.185 z M -6.846,-14.099 H -82.915 V 1.288 h 76.071 c 2.318,-1.307 4.647,-3.082 5.47,-5.221 v -4.942 c -0.822,-2.14 -3.152,-3.916 -5.472,-5.224 M -84.919,1.288 h 1.255 v -15.387 h -1.255 z m 83.544,-2.133 v -1.483 c -1.812,2.694 -5.548,4.666 -8.138,5.78 h 4.296 c 0.566,-0.889 2.184,-3.28 3.842,-4.297 m -10.174,4.297 c 0.782,-0.291 1.975,-0.768 3.284,-1.414 h -76.654 v 1.414 z m -88.083,2.925 c 0.137,-0.216 0.368,-0.366 0.643,-0.366 0.276,0 0.506,0.15 0.645,0.366 1.247,-0.063 2.482,-0.307 3.67,-0.734 -0.365,-0.09 -0.741,-0.139 -1.122,-0.139 h -6.384 c -0.383,0 -0.758,0.049 -1.121,0.139 1.186,0.427 2.422,0.671 3.669,0.734 m 1.287,-25.564 c -0.139,0.214 -0.369,0.366 -0.644,0.366 -0.275,0 -0.505,-0.152 -0.642,-0.366 -1.248,0.062 -2.484,0.306 -3.67,0.734 0.363,0.09 0.738,0.139 1.121,0.139 h 6.384 c 0.381,0 0.757,-0.049 1.122,-0.139 -1.188,-0.428 -2.424,-0.672 -3.671,-0.734 m 7.378,0.462 c -1.247,1.378 -2.985,2.161 -4.829,2.161 h -6.384 c -1.845,0 -3.582,-0.783 -4.829,-2.161 h -1.164 c 0,0 -3.135,0.033 -3.135,4.251 V 1.663 c 0,4.219 3.135,4.251 3.135,4.251 h 1.164 c 1.247,-1.378 2.984,-2.16 4.829,-2.16 h 6.384 c 1.844,0 3.582,0.782 4.829,2.16 h 1.163 c 0,0 3.135,-0.032 3.135,-4.251 v -16.137 c 0,-4.218 -3.135,-4.251 -3.135,-4.251 z m 6.048,3.876 h 76.652 c -1.308,-0.645 -2.501,-1.123 -3.282,-1.414 h -73.37 z m 79.704,-1.414 h -4.298 c 2.591,1.115 6.328,3.087 8.14,5.783 v -1.486 c -1.659,-1.016 -3.276,-3.407 -3.842,-4.297"
         inkscape:connector-curvature="0" /></g></g></svg>