<?xml version="1.0" encoding="UTF-8" standalone="no"?>
<svg
   xmlns:dc="http://purl.org/dc/elements/1.1/"
   xmlns:cc="http://creativecommons.org/ns#"
   xmlns:rdf="http://www.w3.org/1999/02/22-rdf-syntax-ns#"
   xmlns:svg="http://www.w3.org/2000/svg"
   xmlns="http://www.w3.org/2000/svg"
   xmlns:sodipodi="http://sodipodi.sourceforge.net/DTD/sodipodi-0.dtd"
   xmlns:inkscape="http://www.inkscape.org/namespaces/inkscape"
   version="1.1"
   id="svg2"
   xml:space="preserve"
   width="172"
   height="58"
   viewBox="0 0 172 58"
   sodipodi:docname="featured-number-taller.svg"
   inkscape:version="0.92.1 r15371"><sodipodi:namedview
     pagecolor="#ffffff"
     bordercolor="#666666"
     borderopacity="1"
     objecttolerance="10"
     gridtolerance="10"
     guidetolerance="10"
     inkscape:pageopacity="0"
     inkscape:pageshadow="2"
     inkscape:window-width="1655"
     inkscape:window-height="890"
     id="namedview6"
     showgrid="false"
     inkscape:zoom="4"
     inkscape:cx="86"
     inkscape:cy="29"
     inkscape:window-x="0"
     inkscape:window-y="0"
     inkscape:window-maximized="0"
     inkscape:current-layer="svg2" /><metadata
     id="metadata8"><rdf:RDF><cc:Work
         rdf:about=""><dc:format>image/svg+xml</dc:format><dc:type
           rdf:resource="http://purl.org/dc/dcmitype/StillImage" /><dc:title /></cc:Work></rdf:RDF></metadata><defs
     id="defs6" /><path
     style="fill:#ffffff;fill-opacity:1;fill-rule:nonzero;stroke:none;stroke-width:1.33333325"
     d="M 113.85547 0.24023438 L 113.85547 4.0234375 L 7.0722656 4.0234375 L 6.5507812 4.0234375 L 6.2832031 4.4707031 C 5.5178698 5.7573701 3.1036303 9.295557 1.1542969 10.212891 L 0.62695312 10.458984 L 0.62695312 18.941406 L 0.62695312 39.058594 L 0.62695312 47.541016 L 1.1542969 47.787109 C 3.1036303 48.704442 5.5178698 52.24263 6.2832031 53.529297 L 6.5507812 53.976562 L 7.0722656 53.976562 L 113.85547 53.976562 L 113.85547 57.759766 L 121.20117 57.759766 L 131.20117 57.759766 L 133.01953 57.759766 L 133.37109 57.318359 C 133.95909 56.579693 134.68305 55.997318 135.48438 55.583984 C 137.46436 56.441318 139.54155 56.927776 141.68555 57.037109 C 141.85222 57.385109 142.20323 57.630859 142.61523 57.630859 C 143.02724 57.630859 143.37692 57.385109 143.54492 57.037109 C 145.68759 56.927776 147.76219 56.441318 149.74219 55.583984 C 150.54485 55.997318 151.26746 56.579693 151.85547 57.318359 L 152.20703 57.759766 L 153.7207 57.759766 L 163.7207 57.759766 L 171.37305 57.759766 L 171.37305 39.058594 L 171.37305 18.941406 L 171.37305 0.24023438 L 163.7207 0.24023438 L 153.7207 0.24023438 L 152.20703 0.24023438 L 151.85547 0.68164062 C 151.26746 1.4203066 150.54485 2.0026816 149.74219 2.4160156 C 147.76219 1.5586815 145.68759 1.0722236 143.54492 0.96289062 C 143.37692 0.61489068 143.02724 0.36914063 142.61523 0.36914062 C 142.20323 0.36914062 141.85222 0.61489067 141.68555 0.96289062 C 139.54155 1.0722236 137.46437 1.5586815 135.48438 2.4160156 C 134.68304 2.0026816 133.95909 1.4203066 133.37109 0.68164062 L 133.01953 0.24023438 L 131.20117 0.24023438 L 121.20117 0.24023438 L 113.85547 0.24023438 z "
     id="path8437" /><path
     id="path8511"
     d="M 113.85548,0.24023438 V 4.0234375 H 7.0722675 6.5507831 L 6.283205,4.4707031 C 5.5178717,5.7573701 3.1036321,9.2955574 1.1542987,10.212891 L 0.626955,10.458985 v 8.482422 20.117187 8.482422 l 0.5273437,0.246094 c 1.9493334,0.917333 4.363573,4.45552 5.1289063,5.742187 l 0.2675781,0.447266 H 7.0722675 113.85548 v 3.783203 h 7.34569 10 1.81837 l 0.35155,-0.441406 c 0.588,-0.738666 1.31195,-1.321041 2.11328,-1.734375 1.97999,0.857334 4.05717,1.343792 6.20117,1.453125 0.16667,0.348 0.51769,0.59375 0.92969,0.59375 0.41201,0 0.76169,-0.24575 0.92969,-0.59375 2.14267,-0.109333 4.21726,-0.595791 6.19726,-1.453125 0.80266,0.413334 1.52529,0.995709 2.1133,1.734375 l 0.35156,0.441406 h 1.51366 10 7.65234 V 39.058594 18.941407 0.24023438 h -7.65234 -10 -1.51366 l -0.35156,0.44140624 c -0.58801,0.73866598 -1.31064,1.32104098 -2.1133,1.73437498 -1.98,-0.8573341 -4.05459,-1.343792 -6.19726,-1.45312497 -0.168,-0.34799995 -0.51768,-0.59375 -0.92969,-0.59375 -0.412,0 -0.76302,0.24575005 -0.92969,0.59375 -2.144,0.10933297 -4.22118,0.59579087 -6.20117,1.45312497 -0.80133,-0.413334 -1.52528,-0.995709 -2.11328,-1.73437498 l -0.35155,-0.44140624 h -1.81837 -10 z m 27.90038,1.71679682 c 0.18533,0.285333 0.4927,0.4882813 0.85937,0.4882813 0.36666,0 0.6728,-0.2029483 0.85547,-0.4882813 1.664,0.08267 3.31125,0.4098018 4.89259,0.9804688 -0.48401,0.120004 -0.98348,0.1835937 -1.49415,0.1835937 h -8.51172 c -0.508,0 -1.00942,-0.063591 -1.49609,-0.1835937 1.584,-0.570667 3.23186,-0.8977988 4.89453,-0.9804688 z m -21.38868,0.6171875 h 0.83399 10 0.71681 c 1.66265,1.837333 3.98078,2.8808594 6.43944,2.8808594 h 8.51172 c 2.46,0 4.77678,-1.0435264 6.43945,-2.8808594 h 0.41211 10 1.13867 c -1e-5,0 4.17969,0.043968 4.17969,5.6679688 V 18.941407 39.058594 49.757813 c 0,5.624001 -4.1797,5.667969 -4.17969,5.667969 h -1.13867 -10 -0.41211 c -1.66267,-1.837333 -3.97945,-2.88086 -6.43945,-2.88086 h -8.51172 c -2.45866,0 -4.77679,1.043527 -6.43944,2.88086 h -0.71681 -10 -0.83399 c 0,0 -4.17967,-0.04397 -4.17967,-5.667969 V 39.058594 18.941407 8.2421875 c 0,-5.6239991 4.17967,-5.6679688 4.17967,-5.6679688 z M 7.5820331,5.8574218 H 13.312502 C 9.8578348,7.3440878 4.8769394,9.9717396 2.4609394,13.566407 v -1.980469 c 2.212,-1.354668 4.3664271,-4.5418501 5.1210937,-5.7285162 z m 8.4453129,0 H 113.85548 V 7.7421875 H 11.652346 c 1.744,-0.86 3.333667,-1.4967657 4.375,-1.8847657 z M 9.7578144,8.7421875 H 111.18359 V 18.941407 39.058594 49.257813 H 9.7578144 C 6.6644811,47.513814 3.5569394,45.146302 2.4609394,42.292969 V 39.058594 18.941407 15.707032 c 1.096,-2.853333 4.2035417,-5.220845 7.296875,-6.9648445 z m 102.4238256,0 h 1.67384 V 18.941407 39.058594 49.257813 h -1.67384 V 39.058594 18.941407 Z M 2.4609394,44.433594 c 2.416,3.594667 7.3968954,6.222318 10.8515626,7.708984 H 7.5820331 C 6.8273665,50.955913 4.6729394,47.768731 2.4609394,46.414063 Z m 9.1914066,5.824219 H 113.85548 v 1.884765 H 16.027346 c -1.041333,-0.387999 -2.631,-1.024765 -4.375,-1.884765 z m 126.705074,4.621094 h 8.51172 c 0.51067,0 1.01014,0.06359 1.49415,0.183593 -1.58134,0.570667 -3.22859,0.897799 -4.89259,0.980469 -0.18267,-0.285333 -0.48881,-0.488281 -0.85547,-0.488281 -0.36667,0 -0.67404,0.202948 -0.85937,0.488281 -1.66267,-0.08267 -3.31053,-0.409802 -4.89453,-0.980469 0.48667,-0.120003 0.98809,-0.183593 1.49609,-0.183593 z"
     style="fill:#221c1b;fill-opacity:1;fill-rule:nonzero;stroke:none;stroke-width:1.33333325" /></svg>