<?xml version="1.0" encoding="UTF-8" standalone="no"?>
<svg
   xmlns:dc="http://purl.org/dc/elements/1.1/"
   xmlns:cc="http://creativecommons.org/ns#"
   xmlns:rdf="http://www.w3.org/1999/02/22-rdf-syntax-ns#"
   xmlns:svg="http://www.w3.org/2000/svg"
   xmlns="http://www.w3.org/2000/svg"
   viewBox="0 0 39 39"
   height="39"
   width="39"
   xml:space="preserve"
   id="svg2"
   version="1.1"><metadata
     id="metadata8"><rdf:RDF><cc:Work
         rdf:about=""><dc:format>image/svg+xml</dc:format><dc:type
           rdf:resource="http://purl.org/dc/dcmitype/StillImage" /><dc:title></dc:title></cc:Work></rdf:RDF></metadata><defs
     id="defs6" /><g
     transform="matrix(1.3333333,0,0,-1.3333333,0,39)"
     id="g10"><path
       id="path4500"
       d="M 3.9975585,25.49737 V 23.404112 H 1.125 v -0.90381 c 1.182,0 1.2465817,-1.936522 1.2465817,-1.936522 v -1.063478 h 0.7500001 v 0.31494 h 0.8759767 v -0.31494 h 1.2509768 v 4.444335 h 4.5014646 v 0.833498 h -2.67041 c -1.3339996,0 -1.8310546,0.719235 -1.8310546,0.719235 z"
       style="fill:#231f20;fill-opacity:1;fill-rule:nonzero;stroke:none;stroke-width:0.99999994" /><path
       id="path4505"
       d="m 9.7499999,24.77814 v -0.8335 h 9.7500011 v 0.8335 z"
       style="fill:#231f20;fill-opacity:1;fill-rule:nonzero;stroke:none;stroke-width:0.99999994" /><path
       id="path4515"
       d="M 2.3715818,9.7503 V 9.1644005 c 0,0 -0.06458,-1.93657 -1.246582,-1.93657 v -0.90233 h 1.246582 1.625977 v -3.29737 h 1.250977 c 0,0 0.497055,0.72067 1.831054,0.72067 h 2.6704101 v 0.83355 H 5.2485358 V 9.7503 H 3.9975588 V 9.1644005 H 3.1215818 V 9.7503 Z"
       style="fill:#231f20;fill-opacity:1;fill-rule:nonzero;stroke:none;stroke-width:0.99999994" /><path
       id="path4519"
       d="m 9.7499999,4.5823505 v -0.83355 h 9.7500011 v 0.83355 z"
       style="fill:#231f20;fill-opacity:1;fill-rule:nonzero;stroke:none;stroke-width:0.99999994" /><path
       style="fill:#231f20;fill-opacity:1;fill-rule:nonzero;stroke:none;stroke-width:0.99999994"
       d="m 25.252443,25.49737 v -2.09326 h 2.872558 V 22.5003 c -1.182,0 -1.246582,-1.93652 -1.246582,-1.93652 V 19.5003 h -0.75 v 0.31494 H 25.252443 V 19.5003 h -1.250977 v 4.44434 h -4.501465 v 0.8335 h 2.67041 c 1.334,0 1.831055,0.71923 1.831055,0.71923 z"
       id="path4525" /><path
       id="path4510"
       d="m 2.3715818,19.5003 v -9.75 h 0.75 v 9.75 z m 1.6259768,0 v -9.75 h 1.2509772 v 9.75 z"
       style="fill:#231f20;fill-opacity:1;fill-rule:nonzero;stroke:none;stroke-width:0.99999994" /><path
       style="fill:#231f20;fill-opacity:1;fill-rule:nonzero;stroke:none;stroke-width:0.99999994"
       d="m 26.878419,19.5003 v -9.75 h -0.75 v 9.75 z m -1.625976,0 v -9.75 h -1.250978 v 9.75 z"
       id="path4527" /><path
       style="fill:#231f20;fill-opacity:1;fill-rule:nonzero;stroke:none;stroke-width:0.99999994"
       d="M 26.878419,9.7503 V 9.1644005 c 0,0 0.06458,-1.93657 1.246582,-1.93657 v -0.90233 h -1.246582 -1.625977 v -3.29737 h -1.250977 c 0,0 -0.497055,0.72067 -1.831054,0.72067 h -2.67041 v 0.83355 h 4.501464 V 9.7503 h 1.250977 V 9.1644005 h 0.875977 V 9.7503 Z"
       id="path4529" /></g></svg>