<?xml version="1.0" encoding="UTF-8" standalone="no"?>
<!-- Created with Inkscape (http://www.inkscape.org/) -->

<svg
   xmlns:dc="http://purl.org/dc/elements/1.1/"
   xmlns:cc="http://creativecommons.org/ns#"
   xmlns:rdf="http://www.w3.org/1999/02/22-rdf-syntax-ns#"
   xmlns:svg="http://www.w3.org/2000/svg"
   xmlns="http://www.w3.org/2000/svg"
   xmlns:sodipodi="http://sodipodi.sourceforge.net/DTD/sodipodi-0.dtd"
   xmlns:inkscape="http://www.inkscape.org/namespaces/inkscape"
   version="1.1"
   id="svg2"
   xml:space="preserve"
   width="201"
   height="201"
   viewBox="0 0 201 201"
   sodipodi:docname="page.svg"
   inkscape:version="0.92.1 r15371"><metadata
     id="metadata8"><rdf:RDF><cc:Work
         rdf:about=""><dc:format>image/svg+xml</dc:format><dc:type
           rdf:resource="http://purl.org/dc/dcmitype/StillImage" /><dc:title /></cc:Work></rdf:RDF></metadata><defs
     id="defs6"><clipPath
       clipPathUnits="userSpaceOnUse"
       id="clipPath4543"><path
         inkscape:connector-curvature="0"
         id="use4545"
         d="m 24.492188,71.616211 v -0.269527 c -0.851,-7.280003 -3.774156,-7.588358 -3.785156,-7.589355 h -0.947754 v -0.94776 c 0,-8.793998 2.01491,-15.734003 4.73291,-21.104018 V 31.034175 L 25.324219,30.7764 c 2.113,-0.656025 7.598145,-3.0645 7.598145,-6.291525 V 23.3013 h 14.318848 v 2.365725 h -3.74707 c -2.462,1.10595 -10.992231,5.52405 -16.636231,15.662101 v 2.560522 c 1.64659,10.388745 2.496156,19.690741 2.537109,27.726563 h -0.946289 c -0.03298,-6.273855 -0.570806,-13.34388 -1.59082,-21.095213 v 21.095213 z m 0,-6.949215 V 46.416503 c -1.659,4.366005 -2.751008,9.538995 -2.833008,15.645998 0.623,0.227003 1.465762,0.719393 2.280762,1.775393 0.196,0.252997 0.378246,0.535102 0.552246,0.829102 z m 2.365723,-27.014671 c 1.552999,-2.33895 3.196348,-4.288725 4.756348,-5.863725 2.817999,-2.84805 5.613898,-4.8216 7.795898,-6.121575 h -4.255371 c -0.914,3.94995 -6.209876,6.2961 -8.296875,7.078125 z"
         style="fill:#000000;fill-opacity:1;stroke:none;stroke-width:0.76691723;stroke-opacity:1" /></clipPath><clipPath
       clipPathUnits="userSpaceOnUse"
       id="clipPath4551"><path
         inkscape:connector-curvature="0"
         id="use4553"
         d="m 97.61719,71.616211 v -0.269527 c -0.851,-7.280003 -3.774156,-7.588358 -3.785156,-7.589355 H 92.88428 v -0.94776 c 0,-8.793998 2.01491,-15.734003 4.73291,-21.104018 V 31.034175 L 98.449221,30.7764 c 2.112999,-0.656025 7.598149,-3.0645 7.598149,-6.291525 V 23.3013 h 14.31884 v 2.365725 h -3.74707 c -2.462,1.10595 -10.99223,5.52405 -16.636227,15.662101 v 2.560522 c 1.646587,10.388745 2.496157,19.690741 2.537107,27.726563 h -0.94629 c -0.033,-6.273855 -0.5708,-13.34388 -1.590817,-21.095213 v 21.095213 z m 0,-6.949215 V 46.416503 c -1.659,4.366005 -2.751008,9.538995 -2.833008,15.645998 0.623,0.227003 1.465762,0.719393 2.280762,1.775393 0.196,0.252997 0.378246,0.535102 0.552246,0.829102 z m 2.365723,-27.014671 c 1.552997,-2.33895 3.196347,-4.288725 4.756347,-5.863725 2.818,-2.84805 5.6139,-4.8216 7.7959,-6.121575 h -4.25537 c -0.914,3.94995 -6.20988,6.2961 -8.296877,7.078125 z"
         style="fill:#000000;fill-opacity:1;stroke:none;stroke-width:0.76691723;stroke-opacity:1" /></clipPath></defs><sodipodi:namedview
     pagecolor="#ffffff"
     bordercolor="#666666"
     borderopacity="1"
     objecttolerance="10"
     gridtolerance="10"
     guidetolerance="10"
     inkscape:pageopacity="0"
     inkscape:pageshadow="2"
     inkscape:window-width="1558"
     inkscape:window-height="938"
     id="namedview4"
     showgrid="false"
     showguides="false"
     inkscape:zoom="4"
     inkscape:cx="50.003738"
     inkscape:cy="81.27109"
     inkscape:window-x="0"
     inkscape:window-y="0"
     inkscape:window-maximized="0"
     inkscape:current-layer="g10" /><g
     id="g10"
     inkscape:groupmode="layer"
     inkscape:label="A9R1a9rly1_wqksq6_nx0"
     transform="matrix(1.3333333,0,0,-1.3333333,0,201)"><path
       style="fill:#231f20;fill-opacity:1;fill-rule:nonzero;stroke:none;stroke-width:1.33333325"
       d="M 67.009766 37.898438 L 67.009766 37.900391 L 47.917969 37.900391 L 47.917969 39.480469 C 47.917969 43.769802 40.604443 46.987188 37.787109 47.867188 L 36.677734 48.214844 L 36.677734 67.009766 L 36.679688 67.009766 L 36.679688 133.99023 L 36.679688 134.34766 C 35.545021 144.05433 31.647479 144.46547 31.632812 144.4668 L 30.369141 144.4668 L 30.369141 145.73242 C 30.369141 157.45775 33.055688 166.71107 36.679688 173.87109 L 36.679688 188.09961 L 37.789062 188.44141 C 40.606396 189.31611 47.919922 192.52738 47.919922 196.83008 L 47.919922 198.4082 L 67.011719 198.4082 L 133.98633 198.4082 L 153.08008 198.4082 L 153.08008 196.83008 C 153.08008 192.52738 160.39165 189.31611 163.20898 188.44141 L 164.31836 188.09961 L 164.31836 173.87109 C 167.94236 166.71107 170.62891 157.45775 170.62891 145.73242 L 170.62891 144.4668 L 169.36523 144.4668 C 169.35057 144.46547 165.45303 144.05433 164.31836 134.34766 L 164.31836 133.99023 L 164.32227 133.99023 L 164.32227 67.009766 L 164.32227 48.214844 L 163.21289 47.867188 C 160.39556 46.987188 153.08203 43.769802 153.08203 39.480469 L 153.08203 37.900391 L 133.99023 37.900391 L 133.99023 37.898438 L 67.009766 37.898438 z M 50.894531 41.054688 L 57.216797 41.054688 C 48.975464 45.470687 43.038698 54.063406 39.832031 59.691406 L 39.832031 50.492188 C 42.614698 49.449521 49.675865 46.321367 50.894531 41.054688 z M 64.638672 41.054688 L 67.009766 41.054688 L 133.99023 41.054688 L 136.36133 41.054688 C 146.15999 42.869354 153.59672 52.250948 157.77539 58.988281 L 157.77539 67.009766 L 157.77539 133.99023 L 157.78125 133.99023 C 157.83585 144.70466 158.96861 157.10732 161.16406 170.95898 L 161.16406 174.37109 C 153.63873 187.88849 142.26509 193.77931 138.98242 195.25391 L 133.98633 195.25391 L 67.011719 195.25391 L 62.015625 195.25391 C 58.732958 193.77931 47.359318 187.88849 39.833984 174.37109 L 39.833984 170.95898 C 42.029438 157.10732 43.162193 144.70466 43.216797 133.99023 L 43.226562 133.99023 L 43.226562 67.009766 L 43.224609 67.009766 L 43.224609 58.988281 C 47.403276 52.250948 54.840005 42.869354 64.638672 41.054688 z M 143.7832 41.054688 L 150.10547 41.054688 C 151.32414 46.321367 158.3853 49.449521 161.16797 50.492188 L 161.16797 59.691406 C 157.9613 54.063406 152.02454 45.470687 143.7832 41.054688 z M 41.962891 61.109375 L 41.962891 67.009766 L 41.964844 67.009766 L 41.964844 133.99023 L 41.955078 133.99023 C 41.911105 142.35537 41.194003 151.78012 39.833984 162.11523 L 39.833984 133.99023 L 39.833984 67.009766 L 39.832031 67.009766 L 39.832031 65.146484 C 40.245365 64.283818 40.958891 62.861375 41.962891 61.109375 z M 159.03711 61.109375 C 160.04111 62.861375 160.75464 64.283818 161.16797 65.146484 L 161.16797 67.009766 L 161.16797 133.99023 L 161.16406 133.99023 L 161.16406 162.11523 C 159.80405 151.78013 159.08697 142.35537 159.04297 133.99023 L 159.03711 133.99023 L 159.03711 67.009766 L 159.03711 61.109375 z M 36.679688 143.25391 L 36.679688 167.58984 C 34.467688 161.7685 33.011677 154.86923 32.902344 146.72656 C 33.73301 146.42389 34.856693 145.76737 35.943359 144.35938 C 36.204693 144.02205 36.447688 143.64591 36.679688 143.25391 z M 164.31836 143.25391 C 164.55036 143.64591 164.79335 144.02204 165.05469 144.35938 C 166.14135 145.76737 167.26504 146.42389 168.0957 146.72656 C 167.98637 154.86923 166.53036 161.7685 164.31836 167.58984 L 164.31836 143.25391 z M 39.833984 179.27539 C 41.90465 182.39399 44.095781 184.9918 46.175781 187.0918 C 49.933113 190.8892 53.660979 193.52061 56.570312 195.25391 L 50.896484 195.25391 C 49.677818 189.98731 42.61665 186.85911 39.833984 185.81641 L 39.833984 179.27539 z M 161.16406 179.27539 L 161.16406 185.81641 C 158.3814 186.85911 151.32218 189.98731 150.10352 195.25391 L 144.42773 195.25391 C 147.33707 193.52061 151.06493 190.8892 154.82227 187.0918 C 156.90227 184.9918 159.0934 182.39399 161.16406 179.27539 z "
       transform="matrix(0.75000002,0,0,-0.75000002,0,150.75)"
       id="path14" /></g></svg>