<?xml version="1.0" encoding="UTF-8" standalone="no"?>
<!-- Created with Inkscape (http://www.inkscape.org/) -->

<svg
   xmlns:dc="http://purl.org/dc/elements/1.1/"
   xmlns:cc="http://creativecommons.org/ns#"
   xmlns:rdf="http://www.w3.org/1999/02/22-rdf-syntax-ns#"
   xmlns:svg="http://www.w3.org/2000/svg"
   xmlns="http://www.w3.org/2000/svg"
   xmlns:sodipodi="http://sodipodi.sourceforge.net/DTD/sodipodi-0.dtd"
   xmlns:inkscape="http://www.inkscape.org/namespaces/inkscape"
   version="1.1"
   id="svg2"
   xml:space="preserve"
   width="70"
   height="70"
   viewBox="0 0 70 70"
   sodipodi:docname="box-labeled.svg"
   inkscape:version="0.92.1 r15371"><metadata
     id="metadata8"><rdf:RDF><cc:Work
         rdf:about=""><dc:format>image/svg+xml</dc:format><dc:type
           rdf:resource="http://purl.org/dc/dcmitype/StillImage" /><dc:title></dc:title></cc:Work></rdf:RDF></metadata><defs
     id="defs6" /><sodipodi:namedview
     pagecolor="#ffffff"
     bordercolor="#666666"
     borderopacity="1"
     objecttolerance="10"
     gridtolerance="10"
     guidetolerance="10"
     inkscape:pageopacity="0"
     inkscape:pageshadow="2"
     inkscape:window-width="1317"
     inkscape:window-height="870"
     id="namedview4"
     showgrid="false"
     inkscape:zoom="3.5757576"
     inkscape:cx="49.261006"
     inkscape:cy="2.7869915"
     inkscape:window-x="0"
     inkscape:window-y="0"
     inkscape:window-maximized="0"
     inkscape:current-layer="g10" /><g
     id="g10"
     inkscape:groupmode="layer"
     inkscape:label="A9Rp9g9n2_wqksqk_nx0"
     transform="matrix(1.3333333,0,0,-1.3333333,-448.30719,879.61185)"><g
       id="g12"
       transform="translate(383.5874,658.0979)"><path
         d="m 0,0 h -42.215 l -5.012,-5.013 v -39.253 l 5.012,-5.012 H 0 l 5.013,5.012 V -5.013 Z M 3.638,-5.583 V -9.458 C 3.23,-8.236 2.651,-6.933 1.839,-5.702 v 0.071 H 1.793 c -1.155,1.727 -2.782,3.294 -5.07,4.256 h 2.707 z m -8.852,-42.32 h -31.812 c -2.614,0.632 -4.706,2.072 -6.278,4.279 v 37.947 c 1.367,1.915 3.37,3.579 6.303,4.302 h 31.812 c 2.614,-0.632 4.706,-2.071 6.278,-4.278 v -37.948 c -1.366,-1.915 -3.37,-3.579 -6.303,-4.302 m -40.638,36.174 c 0.302,1.417 0.842,3.181 1.798,4.873 v -35.581 c -0.167,0.297 -0.343,0.579 -0.495,0.899 -0.657,1.384 -1.057,2.775 -1.303,3.939 z m 47.691,4.888 c 0.167,-0.297 0.344,-0.579 0.495,-0.898 0.657,-1.385 1.058,-2.776 1.304,-3.94 V -37.548 C 3.335,-38.966 2.795,-40.73 1.839,-42.421 Z m -43.483,5.466 h 2.707 c -2.289,-0.962 -3.915,-2.529 -5.071,-4.256 h -0.046 v -0.071 c -0.812,-1.231 -1.391,-2.534 -1.798,-3.756 v 3.875 z m -4.208,-42.321 v 3.876 c 0.407,-1.221 0.986,-2.525 1.798,-3.755 v -0.072 h 0.046 c 1.156,-1.726 2.782,-3.294 5.071,-4.256 h -2.707 z m 45.282,-4.207 h -2.707 c 2.288,0.962 3.915,2.53 5.07,4.256 h 0.046 v 0.072 c 0.812,1.23 1.391,2.534 1.799,3.755 v -3.876 z"
         style="fill:#231f20;fill-opacity:1;fill-rule:nonzero;stroke:none"
         id="path14"
         inkscape:connector-curvature="0" /></g></g></svg>